<svg width="40" height="40" viewBox="0 0 40 40" fill="none" xmlns="http://www.w3.org/2000/svg">
<circle cx="20" cy="20" r="20" fill="url(#paint0_linear_817_952)"/>
<path d="M24 12H16C13.7909 12 12 13.7909 12 16V24C12 26.2091 13.7909 28 16 28H24C26.2091 28 28 26.2091 28 24V16C28 13.7909 26.2091 12 24 12Z" stroke="white" stroke-width="2" stroke-linecap="round" stroke-linejoin="round"/>
<path d="M23.1999 19.496C23.2986 20.1618 23.1849 20.8418 22.8749 21.4392C22.5649 22.0367 22.0744 22.5211 21.4732 22.8237C20.8719 23.1263 20.1906 23.2317 19.5261 23.1247C18.8616 23.0178 18.2477 22.7041 17.7717 22.2281C17.2958 21.7522 16.982 21.1383 16.8751 20.4738C16.7682 19.8092 16.8735 19.1279 17.1761 18.5267C17.4787 17.9255 17.9632 17.435 18.5607 17.125C19.1581 16.815 19.8381 16.7013 20.5039 16.8C21.183 16.9007 21.8117 17.2172 22.2972 17.7026C22.7827 18.1881 23.0992 18.8169 23.1999 19.496Z" stroke="white" stroke-width="2" stroke-linecap="round" stroke-linejoin="round"/>
<path d="M24.3999 15.6H24.4079" stroke="white" stroke-width="2" stroke-linecap="round" stroke-linejoin="round"/>
<defs>
<linearGradient id="paint0_linear_817_952" x1="32.8" y1="8" x2="7.2" y2="35.6" gradientUnits="userSpaceOnUse">
<stop stop-color="#EA6E66"/>
<stop offset="0.9999" stop-color="#E51BE2"/>
<stop offset="1" stop-color="#B62A99"/>
</linearGradient>
</defs>
</svg>
