<svg width="200" height="61" viewBox="0 0 200 61" fill="none" xmlns="http://www.w3.org/2000/svg">
<g filter="url(#filter0_i_605_137)">
<path d="M33.0807 1.86437C11.382 3.04166 0 15.3331 0 27.7367C0 42.7751 1.57597 54.3658 15.9202 59.159C27.0103 62.8731 55.7134 57.281 90.3409 57.4352C136.861 57.6314 168.191 59.9299 177.661 60.4344C204.73 61.836 210.727 7.17618 175.764 3.13976C144.376 -0.42013 67.8104 0.0143454 33.0807 1.86437Z" fill="url(#paint0_linear_605_137)"/>
</g>
<path d="M29.6608 35.4609C29.2928 35.4609 28.9728 35.3249 28.7008 35.0529C28.4288 34.7809 28.2928 34.4609 28.2928 34.0929V19.3089C28.2928 18.9409 28.4288 18.6209 28.7008 18.3489C28.9728 18.0769 29.2928 17.9409 29.6608 17.9409H37.8928C38.2608 17.9409 38.5808 18.0769 38.8528 18.3489C39.1248 18.6209 39.2608 18.9409 39.2608 19.3089V19.9809C39.2608 20.3489 39.1248 20.6689 38.8528 20.9409C38.5808 21.2129 38.2608 21.3489 37.8928 21.3489H32.7088C32.5648 21.3489 32.4928 21.4129 32.4928 21.5409V34.0929C32.4928 34.4609 32.3568 34.7809 32.0848 35.0529C31.8288 35.3249 31.5168 35.4609 31.1488 35.4609H29.6608ZM46.3672 32.5809C46.3352 32.6129 46.3272 32.6529 46.3432 32.7009C46.3752 32.7329 46.4152 32.7489 46.4632 32.7489H50.0392C50.1672 32.7489 50.2312 32.6769 50.2312 32.5329V25.9089C50.2312 25.7649 50.1672 25.6929 50.0392 25.6929H47.8072C47.6632 25.6929 47.5912 25.7729 47.5912 25.9329C47.5912 28.1889 47.5272 29.6529 47.3992 30.3249C47.2872 30.9809 46.9432 31.7329 46.3672 32.5809ZM42.4792 38.3409C42.1112 38.3409 41.7912 38.2049 41.5192 37.9329C41.2472 37.6609 41.1112 37.3409 41.1112 36.9729V33.6129C41.1112 33.3729 41.1992 33.1729 41.3752 33.0129C41.5512 32.8369 41.7592 32.7489 41.9992 32.7489C42.0792 32.7489 42.1432 32.7169 42.1912 32.6529C42.9912 31.6929 43.4792 30.8529 43.6552 30.1329C43.8312 29.4129 43.9192 27.9329 43.9192 25.6929V24.3489C43.9192 23.9809 44.0552 23.6609 44.3272 23.3889C44.5992 23.1169 44.9192 22.9809 45.2872 22.9809H52.6312C52.9992 22.9809 53.3192 23.1169 53.5912 23.3889C53.8632 23.6609 53.9992 23.9809 53.9992 24.3489V32.5329C53.9992 32.6769 54.0712 32.7489 54.2152 32.7489H54.2392C54.6072 32.7489 54.9272 32.8849 55.1992 33.1569C55.4712 33.4129 55.6072 33.7249 55.6072 34.0929V36.9729C55.6072 37.3409 55.4712 37.6609 55.1992 37.9329C54.9272 38.2049 54.6072 38.3409 54.2392 38.3409H53.2072C52.8392 38.3409 52.5192 38.2049 52.2472 37.9329C51.9752 37.6609 51.8392 37.3409 51.8392 36.9729V35.6769C51.8392 35.5329 51.7672 35.4609 51.6232 35.4609H45.0952C44.9512 35.4609 44.8792 35.5329 44.8792 35.6769V36.9729C44.8792 37.3409 44.7432 37.6609 44.4712 37.9329C44.1992 38.2049 43.8792 38.3409 43.5112 38.3409H42.4792ZM63.2876 25.3569C62.5676 25.3569 62.0236 25.5489 61.6556 25.9329C61.2876 26.3009 61.0556 26.9409 60.9596 27.8529C60.9596 27.9809 61.0156 28.0449 61.1276 28.0449H65.1836C65.3276 28.0449 65.3996 27.9729 65.3996 27.8289C65.3356 26.1809 64.6316 25.3569 63.2876 25.3569ZM63.8876 35.7009C61.7116 35.7009 60.0316 35.1489 58.8476 34.0449C57.6796 32.9409 57.0956 31.3329 57.0956 29.2209C57.0956 27.1249 57.6156 25.5249 58.6556 24.4209C59.7116 23.3009 61.2316 22.7409 63.2156 22.7409C67.0236 22.7409 68.9596 24.8209 69.0236 28.9809C69.0236 29.3649 68.8716 29.6929 68.5676 29.9649C68.2796 30.2209 67.9436 30.3489 67.5596 30.3489H61.1516C60.9916 30.3489 60.9276 30.4209 60.9596 30.5649C61.0876 31.4449 61.4236 32.0769 61.9676 32.4609C62.5276 32.8289 63.3596 33.0129 64.4636 33.0129C65.1836 33.0129 65.9596 32.9089 66.7916 32.7009C67.1276 32.6209 67.4236 32.6849 67.6796 32.8929C67.9516 33.1009 68.0876 33.3729 68.0876 33.7089V33.7569C68.0876 34.1569 67.9596 34.5249 67.7036 34.8609C67.4636 35.1809 67.1516 35.3729 66.7676 35.4369C65.8396 35.6129 64.8796 35.7009 63.8876 35.7009ZM79.8108 35.4609C79.4428 35.4609 79.1228 35.3249 78.8508 35.0529C78.5948 34.7809 78.4668 34.4609 78.4668 34.0929V24.3489C78.4668 23.9809 78.5948 23.6609 78.8508 23.3889C79.1228 23.1169 79.4428 22.9809 79.8108 22.9809H80.9868C81.3548 22.9809 81.6668 23.1169 81.9228 23.3889C82.1948 23.6609 82.3308 23.9809 82.3308 24.3489V27.6849C82.3308 27.7009 82.3388 27.7089 82.3548 27.7089L82.4028 27.6849L85.4028 24.0369C85.9788 23.3329 86.7148 22.9809 87.6108 22.9809H89.3388C89.5948 22.9809 89.7788 23.1009 89.8908 23.3409C90.0188 23.5809 89.9948 23.8049 89.8188 24.0129L85.7148 28.8369C85.6348 28.9329 85.6348 29.0369 85.7148 29.1489L89.8668 34.4049C90.0428 34.6289 90.0668 34.8609 89.9388 35.1009C89.8108 35.3409 89.6108 35.4609 89.3388 35.4609H87.6108C86.7148 35.4609 85.9868 35.1009 85.4268 34.3809L82.4028 30.4449C82.3868 30.4289 82.3708 30.4209 82.3548 30.4209C82.3388 30.4209 82.3308 30.4289 82.3308 30.4449V34.0929C82.3308 34.4609 82.1948 34.7809 81.9228 35.0529C81.6668 35.3249 81.3548 35.4609 80.9868 35.4609H79.8108ZM96.131 35.2689L91.859 24.2529C91.731 23.9489 91.755 23.6609 91.931 23.3889C92.123 23.1169 92.387 22.9809 92.723 22.9809H94.259C94.643 22.9809 94.995 23.1089 95.315 23.3649C95.635 23.6049 95.851 23.9169 95.963 24.3009L97.955 31.7649C97.955 31.7809 97.963 31.7889 97.979 31.7889C97.995 31.7889 98.003 31.7809 98.003 31.7649L100.187 24.2769C100.283 23.8929 100.491 23.5809 100.811 23.3409C101.147 23.1009 101.523 22.9809 101.939 22.9809H103.283C103.619 22.9809 103.875 23.1169 104.051 23.3889C104.243 23.6609 104.283 23.9489 104.171 24.2529L99.971 35.6289C99.315 37.3889 98.491 38.6769 97.499 39.4929C96.507 40.3089 95.171 40.7889 93.491 40.9329C93.123 40.9649 92.803 40.8449 92.531 40.5729C92.259 40.3169 92.123 39.9969 92.123 39.6129V39.4209C92.123 39.0529 92.251 38.7329 92.507 38.4609C92.779 38.1889 93.107 38.0289 93.491 37.9809C94.211 37.8689 94.763 37.6369 95.147 37.2849C95.547 36.9489 95.875 36.4049 96.131 35.6529C96.147 35.5889 96.155 35.5249 96.155 35.4609C96.155 35.3969 96.147 35.3329 96.131 35.2689ZM107.632 35.4609C107.264 35.4609 106.944 35.3249 106.672 35.0529C106.4 34.7809 106.264 34.4609 106.264 34.0929V24.3489C106.264 23.9809 106.4 23.6609 106.672 23.3889C106.944 23.1169 107.264 22.9809 107.632 22.9809H116.272C116.64 22.9809 116.96 23.1169 117.232 23.3889C117.504 23.6609 117.64 23.9809 117.64 24.3489V34.0929C117.64 34.4609 117.504 34.7809 117.232 35.0529C116.96 35.3249 116.64 35.4609 116.272 35.4609H115.072C114.704 35.4609 114.384 35.3249 114.112 35.0529C113.84 34.7809 113.704 34.4609 113.704 34.0929V26.0049C113.704 25.8769 113.64 25.8129 113.512 25.8129H110.392C110.264 25.8129 110.2 25.8769 110.2 26.0049V34.0929C110.2 34.4609 110.064 34.7809 109.792 35.0529C109.52 35.3249 109.2 35.4609 108.832 35.4609H107.632ZM122.186 35.4609C121.818 35.4609 121.498 35.3249 121.226 35.0529C120.954 34.7809 120.818 34.4609 120.818 34.0929V24.3489C120.818 23.9809 120.954 23.6609 121.226 23.3889C121.498 23.1169 121.818 22.9809 122.186 22.9809H123.314C123.682 22.9809 124.002 23.1169 124.274 23.3889C124.546 23.6609 124.682 23.9809 124.682 24.3489V30.1569H124.706H124.73L127.682 24.2049C128.082 23.3889 128.738 22.9809 129.65 22.9809H130.826C131.194 22.9809 131.514 23.1169 131.786 23.3889C132.058 23.6609 132.194 23.9809 132.194 24.3489V34.0929C132.194 34.4609 132.058 34.7809 131.786 35.0529C131.514 35.3249 131.194 35.4609 130.826 35.4609H129.698C129.33 35.4609 129.01 35.3249 128.738 35.0529C128.466 34.7809 128.33 34.4609 128.33 34.0929V28.2849H128.306H128.282L125.33 34.2369C124.93 35.0529 124.274 35.4609 123.362 35.4609H122.186ZM136.021 25.9089C135.653 25.9089 135.333 25.7729 135.061 25.5009C134.789 25.2289 134.653 24.9089 134.653 24.5409V24.3489C134.653 23.9809 134.789 23.6609 135.061 23.3889C135.333 23.1169 135.653 22.9809 136.021 22.9809H144.709C145.077 22.9809 145.397 23.1169 145.669 23.3889C145.941 23.6609 146.077 23.9809 146.077 24.3489V24.5409C146.077 24.9089 145.941 25.2289 145.669 25.5009C145.397 25.7729 145.077 25.9089 144.709 25.9089H142.573C142.445 25.9089 142.381 25.9809 142.381 26.1249V34.0929C142.381 34.4609 142.245 34.7809 141.973 35.0529C141.701 35.3249 141.381 35.4609 141.013 35.4609H139.717C139.349 35.4609 139.029 35.3249 138.757 35.0529C138.485 34.7809 138.349 34.4609 138.349 34.0929V26.1249C138.349 25.9809 138.285 25.9089 138.157 25.9089H136.021ZM152.362 29.1969V32.6289C152.362 32.7889 152.418 32.8769 152.53 32.8929C152.77 32.9569 153.042 32.9889 153.346 32.9889C154.146 32.9889 154.73 32.8129 155.098 32.4609C155.466 32.1089 155.65 31.5649 155.65 30.8289C155.65 30.2049 155.45 29.7249 155.05 29.3889C154.666 29.0369 154.09 28.8609 153.322 28.8609C153.13 28.8609 152.874 28.8929 152.554 28.9569C152.426 28.9889 152.362 29.0689 152.362 29.1969ZM149.842 35.5329C149.458 35.4849 149.138 35.3169 148.882 35.0289C148.641 34.7249 148.521 34.3729 148.521 33.9729V24.3489C148.521 23.9809 148.65 23.6609 148.906 23.3889C149.178 23.1169 149.498 22.9809 149.866 22.9809H150.994C151.362 22.9809 151.682 23.1169 151.954 23.3889C152.226 23.6609 152.362 23.9809 152.362 24.3489V26.0769C152.362 26.1249 152.378 26.1729 152.41 26.2209C152.442 26.2529 152.482 26.2609 152.53 26.2449C152.914 26.1809 153.378 26.1489 153.922 26.1489C155.634 26.1489 156.962 26.5729 157.906 27.4209C158.85 28.2529 159.322 29.3889 159.322 30.8289C159.322 32.4769 158.81 33.7009 157.786 34.5009C156.762 35.3009 155.154 35.7009 152.962 35.7009C151.826 35.7009 150.786 35.6449 149.842 35.5329ZM163.183 21.4929C162.863 21.5729 162.567 21.5169 162.295 21.3249C162.023 21.1169 161.887 20.8449 161.887 20.5089V19.7889C161.887 19.3889 162.007 19.0369 162.247 18.7329C162.503 18.4129 162.823 18.2209 163.207 18.1569C164.855 17.8529 166.431 17.7009 167.935 17.7009C169.903 17.7009 171.439 18.0929 172.543 18.8769C173.647 19.6609 174.199 20.6849 174.199 21.9489C174.199 22.5409 174.119 23.0689 173.959 23.5329C173.815 23.9969 173.567 24.4209 173.215 24.8049C172.879 25.1889 172.583 25.4849 172.327 25.6929C172.087 25.8849 171.719 26.1489 171.223 26.4849C170.807 26.7889 170.503 27.0129 170.311 27.1569C170.119 27.2849 169.887 27.4929 169.615 27.7809C169.343 28.0529 169.135 28.3249 168.991 28.5969C168.543 29.4609 167.975 29.8929 167.287 29.8929H166.255C165.871 29.8929 165.551 29.7569 165.295 29.4849C165.039 29.2129 164.959 28.9009 165.055 28.5489C165.199 28.0049 165.455 27.4849 165.823 26.9889C166.191 26.4769 166.519 26.1009 166.807 25.8609C167.095 25.6049 167.511 25.2769 168.055 24.8769C168.487 24.5569 168.807 24.3009 169.015 24.1089C169.239 23.9169 169.447 23.6769 169.639 23.3889C169.831 23.1009 169.927 22.8049 169.927 22.5009C169.927 21.4449 169.063 20.9169 167.335 20.9169C166.071 20.9169 164.687 21.1089 163.183 21.4929ZM166.039 31.8609H167.479C167.847 31.8609 168.167 31.9969 168.439 32.2689C168.711 32.5409 168.847 32.8609 168.847 33.2289V34.0929C168.847 34.4609 168.711 34.7809 168.439 35.0529C168.167 35.3249 167.847 35.4609 167.479 35.4609H166.039C165.671 35.4609 165.351 35.3249 165.079 35.0529C164.823 34.7809 164.695 34.4609 164.695 34.0929V33.2289C164.695 32.8609 164.823 32.5409 165.079 32.2689C165.351 31.9969 165.671 31.8609 166.039 31.8609Z" fill="white"/>
<defs>
<filter id="filter0_i_605_137" x="0" y="0.460938" width="200" height="60" filterUnits="userSpaceOnUse" color-interpolation-filters="sRGB">
<feFlood flood-opacity="0" result="BackgroundImageFix"/>
<feBlend mode="normal" in="SourceGraphic" in2="BackgroundImageFix" result="shape"/>
<feColorMatrix in="SourceAlpha" type="matrix" values="0 0 0 0 0 0 0 0 0 0 0 0 0 0 0 0 0 0 127 0" result="hardAlpha"/>
<feOffset dx="-6" dy="5"/>
<feComposite in2="hardAlpha" operator="arithmetic" k2="-1" k3="1"/>
<feColorMatrix type="matrix" values="0 0 0 0 0.6 0 0 0 0 0.179365 0 0 0 0 0.07 0 0 0 0.3 0"/>
<feBlend mode="normal" in2="shape" result="effect1_innerShadow_605_137"/>
</filter>
<linearGradient id="paint0_linear_605_137" x1="5.56263e-06" y1="-22.6644" x2="151.157" y2="60.8735" gradientUnits="userSpaceOnUse">
<stop stop-color="#FFB1A4"/>
<stop offset="1" stop-color="#FF5F4E"/>
</linearGradient>
</defs>
</svg>
