<svg width="200" height="60" viewBox="0 0 200 60" fill="none" xmlns="http://www.w3.org/2000/svg">
<g filter="url(#filter0_i_603_440)">
<path d="M33.0807 1.40343C11.382 2.58072 0 14.8722 0 27.2757C0 42.3142 1.57597 53.9049 15.9202 58.6981C27.0103 62.4122 55.7134 56.8201 90.3409 56.9742C136.861 57.1704 168.191 59.469 177.661 59.9735C204.73 61.375 210.727 6.71524 175.764 2.67883C144.376 -0.881067 67.8104 -0.446592 33.0807 1.40343Z" fill="url(#paint0_linear_603_440)"/>
</g>
<path d="M38.2936 35C37.9256 35 37.6056 34.864 37.3336 34.592C37.0616 34.32 36.9256 34 36.9256 33.632V18.848C36.9256 18.48 37.0616 18.16 37.3336 17.888C37.6056 17.616 37.9256 17.48 38.2936 17.48H49.0936C49.4616 17.48 49.7816 17.616 50.0536 17.888C50.3256 18.16 50.4616 18.48 50.4616 18.848V33.632C50.4616 34 50.3256 34.32 50.0536 34.592C49.7816 34.864 49.4616 35 49.0936 35H47.7256C47.3576 35 47.0376 34.864 46.7656 34.592C46.5096 34.32 46.3816 34 46.3816 33.632V20.96C46.3816 20.832 46.3096 20.768 46.1656 20.768H41.2216C41.0776 20.768 41.0056 20.832 41.0056 20.96V33.632C41.0056 34 40.8696 34.32 40.5976 34.592C40.3416 34.864 40.0296 35 39.6616 35H38.2936ZM61.0893 25.88C60.7053 25.288 60.1133 24.992 59.3133 24.992C58.5133 24.992 57.9133 25.288 57.5133 25.88C57.1293 26.472 56.9373 27.432 56.9373 28.76C56.9373 30.088 57.1293 31.048 57.5133 31.64C57.9133 32.232 58.5133 32.528 59.3133 32.528C60.1133 32.528 60.7053 32.232 61.0893 31.64C61.4893 31.048 61.6893 30.088 61.6893 28.76C61.6893 27.432 61.4893 26.472 61.0893 25.88ZM63.9453 33.536C62.8413 34.672 61.2973 35.24 59.3133 35.24C57.3293 35.24 55.7853 34.672 54.6813 33.536C53.5773 32.4 53.0253 30.808 53.0253 28.76C53.0253 26.712 53.5773 25.12 54.6813 23.984C55.7853 22.848 57.3293 22.28 59.3133 22.28C61.2973 22.28 62.8413 22.848 63.9453 23.984C65.0493 25.12 65.6013 26.712 65.6013 28.76C65.6013 30.808 65.0493 32.4 63.9453 33.536ZM72.3438 32.12C72.3118 32.152 72.3038 32.192 72.3198 32.24C72.3518 32.272 72.3918 32.288 72.4398 32.288H76.0158C76.1438 32.288 76.2078 32.216 76.2078 32.072V25.448C76.2078 25.304 76.1438 25.232 76.0158 25.232H73.7838C73.6398 25.232 73.5678 25.312 73.5678 25.472C73.5678 27.728 73.5038 29.192 73.3758 29.864C73.2638 30.52 72.9198 31.272 72.3438 32.12ZM68.4558 37.88C68.0878 37.88 67.7678 37.744 67.4958 37.472C67.2238 37.2 67.0878 36.88 67.0878 36.512V33.152C67.0878 32.912 67.1758 32.712 67.3518 32.552C67.5278 32.376 67.7358 32.288 67.9758 32.288C68.0558 32.288 68.1198 32.256 68.1678 32.192C68.9678 31.232 69.4558 30.392 69.6318 29.672C69.8078 28.952 69.8958 27.472 69.8958 25.232V23.888C69.8958 23.52 70.0318 23.2 70.3038 22.928C70.5758 22.656 70.8958 22.52 71.2638 22.52H78.6078C78.9758 22.52 79.2958 22.656 79.5677 22.928C79.8398 23.2 79.9758 23.52 79.9758 23.888V32.072C79.9758 32.216 80.0478 32.288 80.1918 32.288H80.2158C80.5838 32.288 80.9038 32.424 81.1758 32.696C81.4478 32.952 81.5838 33.264 81.5838 33.632V36.512C81.5838 36.88 81.4478 37.2 81.1758 37.472C80.9038 37.744 80.5838 37.88 80.2158 37.88H79.1838C78.8158 37.88 78.4958 37.744 78.2238 37.472C77.9518 37.2 77.8158 36.88 77.8158 36.512V35.216C77.8158 35.072 77.7438 35 77.5998 35H71.0718C70.9278 35 70.8558 35.072 70.8558 35.216V36.512C70.8558 36.88 70.7198 37.2 70.4478 37.472C70.1758 37.744 69.8558 37.88 69.4878 37.88H68.4558ZM87.7041 27.272V30.248C87.7041 30.776 87.9441 31.264 88.4241 31.712C88.9201 32.144 89.4801 32.36 90.1041 32.36C90.8401 32.36 91.4241 32.064 91.8561 31.472C92.2881 30.864 92.5041 29.96 92.5041 28.76C92.5041 26.36 91.7041 25.16 90.1041 25.16C89.4801 25.16 88.9201 25.384 88.4241 25.832C87.9441 26.264 87.7041 26.744 87.7041 27.272ZM85.2801 40.28C84.9121 40.28 84.5921 40.144 84.3201 39.872C84.0481 39.6 83.9121 39.28 83.9121 38.912V23.888C83.9121 23.52 84.0481 23.2 84.3201 22.928C84.5921 22.656 84.9121 22.52 85.2801 22.52H86.2401C86.6241 22.52 86.9521 22.656 87.2241 22.928C87.4961 23.184 87.6401 23.504 87.6561 23.888V24.08C87.6561 24.096 87.6641 24.104 87.6801 24.104L87.7281 24.056C88.7521 22.872 89.9841 22.28 91.4241 22.28C92.9121 22.28 94.0961 22.84 94.9761 23.96C95.8721 25.08 96.3201 26.68 96.3201 28.76C96.3201 30.776 95.8561 32.36 94.9281 33.512C94.0161 34.664 92.8481 35.24 91.4241 35.24C90.0961 35.24 88.9121 34.752 87.8721 33.776C87.8561 33.76 87.8401 33.752 87.8241 33.752C87.8081 33.752 87.8001 33.76 87.8001 33.776V38.912C87.8001 39.28 87.6641 39.6 87.3921 39.872C87.1201 40.144 86.8001 40.28 86.4321 40.28H85.2801ZM105.996 25.88C105.612 25.288 105.02 24.992 104.22 24.992C103.42 24.992 102.82 25.288 102.42 25.88C102.036 26.472 101.844 27.432 101.844 28.76C101.844 30.088 102.036 31.048 102.42 31.64C102.82 32.232 103.42 32.528 104.22 32.528C105.02 32.528 105.612 32.232 105.996 31.64C106.396 31.048 106.596 30.088 106.596 28.76C106.596 27.432 106.396 26.472 105.996 25.88ZM108.852 33.536C107.748 34.672 106.204 35.24 104.22 35.24C102.236 35.24 100.692 34.672 99.5875 33.536C98.4835 32.4 97.9315 30.808 97.9315 28.76C97.9315 26.712 98.4835 25.12 99.5875 23.984C100.692 22.848 102.236 22.28 104.22 22.28C106.204 22.28 107.748 22.848 108.852 23.984C109.956 25.12 110.508 26.712 110.508 28.76C110.508 30.808 109.956 32.4 108.852 33.536ZM116.554 28.88V29.12C116.554 30.128 116.77 30.92 117.202 31.496C117.65 32.072 118.242 32.36 118.978 32.36C119.762 32.36 120.37 32.08 120.802 31.52C121.234 30.944 121.45 30.104 121.45 29C121.45 27.944 121.226 27.12 120.778 26.528C120.33 25.936 119.746 25.64 119.026 25.64C118.274 25.64 117.674 25.92 117.226 26.48C116.778 27.04 116.554 27.84 116.554 28.88ZM119.098 35.24C117.05 35.24 115.474 34.656 114.37 33.488C113.266 32.32 112.714 30.64 112.714 28.448V23.888C112.714 21.616 113.346 19.944 114.61 18.872C115.874 17.784 117.89 17.24 120.658 17.24C121.522 17.24 122.282 17.208 122.938 17.144C123.306 17.112 123.618 17.224 123.874 17.48C124.146 17.72 124.282 18.016 124.282 18.368V18.44C124.282 18.824 124.154 19.168 123.898 19.472C123.658 19.76 123.346 19.92 122.962 19.952C122.066 20.016 121.354 20.048 120.826 20.048C119.13 20.048 117.978 20.312 117.37 20.84C116.762 21.368 116.458 22.368 116.458 23.84V24.512H116.482C116.514 24.512 116.53 24.504 116.53 24.488C117.442 23.336 118.658 22.76 120.178 22.76C121.586 22.76 122.754 23.32 123.682 24.44C124.626 25.56 125.098 27.08 125.098 29C125.098 30.968 124.57 32.504 123.514 33.608C122.458 34.696 120.986 35.24 119.098 35.24ZM129.272 35C128.904 35 128.584 34.864 128.312 34.592C128.04 34.32 127.904 34 127.904 33.632V23.888C127.904 23.52 128.04 23.2 128.312 22.928C128.584 22.656 128.904 22.52 129.272 22.52H130.496C130.864 22.52 131.176 22.656 131.432 22.928C131.704 23.2 131.84 23.52 131.84 23.888V26.96C131.84 27.088 131.912 27.152 132.056 27.152H135.08C135.224 27.152 135.296 27.088 135.296 26.96V23.888C135.296 23.52 135.424 23.2 135.68 22.928C135.952 22.656 136.272 22.52 136.64 22.52H137.864C138.232 22.52 138.552 22.656 138.824 22.928C139.096 23.2 139.232 23.52 139.232 23.888V33.632C139.232 34 139.096 34.32 138.824 34.592C138.552 34.864 138.232 35 137.864 35H136.64C136.272 35 135.952 34.864 135.68 34.592C135.424 34.32 135.296 34 135.296 33.632V30.08C135.296 29.936 135.224 29.864 135.08 29.864H132.056C131.912 29.864 131.84 29.936 131.84 30.08V33.632C131.84 34 131.704 34.32 131.432 34.592C131.176 34.864 130.864 35 130.496 35H129.272ZM147.741 24.896C147.021 24.896 146.477 25.088 146.109 25.472C145.741 25.84 145.509 26.48 145.413 27.392C145.413 27.52 145.469 27.584 145.581 27.584H149.637C149.781 27.584 149.853 27.512 149.853 27.368C149.789 25.72 149.085 24.896 147.741 24.896ZM148.341 35.24C146.165 35.24 144.485 34.688 143.301 33.584C142.133 32.48 141.549 30.872 141.549 28.76C141.549 26.664 142.069 25.064 143.109 23.96C144.165 22.84 145.685 22.28 147.669 22.28C151.477 22.28 153.413 24.36 153.477 28.52C153.477 28.904 153.325 29.232 153.021 29.504C152.733 29.76 152.397 29.888 152.013 29.888H145.605C145.445 29.888 145.381 29.96 145.413 30.104C145.541 30.984 145.877 31.616 146.421 32C146.981 32.368 147.813 32.552 148.917 32.552C149.637 32.552 150.413 32.448 151.245 32.24C151.581 32.16 151.877 32.224 152.133 32.432C152.405 32.64 152.541 32.912 152.541 33.248V33.296C152.541 33.696 152.413 34.064 152.157 34.4C151.917 34.72 151.605 34.912 151.221 34.976C150.293 35.152 149.333 35.24 148.341 35.24ZM161.288 24.896C160.568 24.896 160.024 25.088 159.656 25.472C159.288 25.84 159.056 26.48 158.96 27.392C158.96 27.52 159.016 27.584 159.128 27.584H163.184C163.328 27.584 163.4 27.512 163.4 27.368C163.336 25.72 162.632 24.896 161.288 24.896ZM161.888 35.24C159.712 35.24 158.032 34.688 156.848 33.584C155.68 32.48 155.096 30.872 155.096 28.76C155.096 26.664 155.616 25.064 156.656 23.96C157.712 22.84 159.232 22.28 161.216 22.28C165.024 22.28 166.96 24.36 167.024 28.52C167.024 28.904 166.872 29.232 166.568 29.504C166.28 29.76 165.944 29.888 165.56 29.888H159.152C158.992 29.888 158.928 29.96 158.96 30.104C159.088 30.984 159.424 31.616 159.968 32C160.528 32.368 161.36 32.552 162.464 32.552C163.184 32.552 163.96 32.448 164.792 32.24C165.128 32.16 165.424 32.224 165.68 32.432C165.952 32.64 166.088 32.912 166.088 33.248V33.296C166.088 33.696 165.96 34.064 165.704 34.4C165.464 34.72 165.152 34.912 164.768 34.976C163.84 35.152 162.88 35.24 161.888 35.24Z" fill="white"/>
<defs>
<filter id="filter0_i_603_440" x="0" y="0" width="200" height="60" filterUnits="userSpaceOnUse" color-interpolation-filters="sRGB">
<feFlood flood-opacity="0" result="BackgroundImageFix"/>
<feBlend mode="normal" in="SourceGraphic" in2="BackgroundImageFix" result="shape"/>
<feColorMatrix in="SourceAlpha" type="matrix" values="0 0 0 0 0 0 0 0 0 0 0 0 0 0 0 0 0 0 127 0" result="hardAlpha"/>
<feOffset dx="4" dy="-5"/>
<feComposite in2="hardAlpha" operator="arithmetic" k2="-1" k3="1"/>
<feColorMatrix type="matrix" values="0 0 0 0 1 0 0 0 0 0.801587 0 0 0 0 0.75 0 0 0 0.68 0"/>
<feBlend mode="normal" in2="shape" result="effect1_innerShadow_603_440"/>
</filter>
<linearGradient id="paint0_linear_603_440" x1="5.56263e-06" y1="-23.1253" x2="151.157" y2="60.4126" gradientUnits="userSpaceOnUse">
<stop stop-color="#FFB1A4"/>
<stop offset="1" stop-color="#FF5F4E"/>
</linearGradient>
</defs>
</svg>
