<svg width="170" height="66" viewBox="0 0 170 66" fill="none" xmlns="http://www.w3.org/2000/svg">
<g id="detmir logo">
<g id="&#208;&#161;&#208;&#187;&#208;&#190;&#208;&#185; 1">
<path id="Vector" d="M60.9634 12.3379C60.6298 10.4523 60.1267 8.60064 59.4604 6.80541C58.8212 4.99443 58.0172 3.24591 57.0584 1.58185C56.7185 1.00837 56.2094 0.55422 55.601 0.281793C54.9926 0.00936536 54.3147 -0.0679671 53.6606 0.0604213C51.7922 0.453251 49.9554 0.983346 48.165 1.64639C46.3644 2.28369 44.6137 3.05422 42.9276 3.95159C42.3422 4.27186 41.8705 4.76569 41.5774 5.36511C41.2843 5.96453 41.1842 6.64006 41.2909 7.29873C41.6271 9.18422 42.1317 11.0358 42.7985 12.8312C43.4318 14.64 44.2297 16.387 45.1821 18.0501C45.5213 18.6245 46.0301 19.0796 46.6386 19.3528C47.2471 19.6261 47.9253 19.7041 48.5799 19.5762C50.4483 19.1813 52.2851 18.6497 54.0755 17.9856C55.877 17.3469 57.6291 16.5764 59.3175 15.6804C59.902 15.3595 60.3728 14.8653 60.665 14.266C60.9573 13.6666 61.0567 12.9914 60.9496 12.3333" fill="#E53424"/>
<path id="Vector_2" d="M81.5581 3.33371C79.8072 2.56981 78.0028 1.93496 76.1593 1.43423C74.3174 0.905806 72.4389 0.514391 70.5392 0.26319C69.8771 0.184654 69.2069 0.313138 68.6207 0.630981C68.0346 0.948823 67.5613 1.44042 67.2659 2.03819C66.4392 3.77131 65.7696 5.57504 65.265 7.42773C64.7352 9.2722 64.3741 11.161 64.1861 13.0708C64.1221 13.738 64.2693 14.4084 64.6068 14.9875C64.9443 15.5665 65.4551 16.025 66.0672 16.2981C67.8165 17.0583 69.6194 17.6885 71.4613 18.1838C73.3035 18.7091 75.1819 19.0974 77.0814 19.3456C77.7441 19.429 78.4162 19.3026 79.0034 18.9842C79.5905 18.6658 80.0631 18.1715 80.3547 17.5706C81.1862 15.8395 81.8561 14.0353 82.3557 12.181C82.8895 10.34 83.2552 8.45428 83.4483 6.54714C83.5081 5.88057 83.3592 5.2119 83.0222 4.6337C82.6852 4.0555 82.1767 3.59637 81.5673 3.31988" fill="#F9BB25"/>
<path id="Vector_3" d="M106.173 12.3379C105.841 10.4518 105.338 8.59994 104.67 6.80542C104.03 4.99551 103.227 3.2472 102.272 1.58185C101.932 1.00837 101.423 0.55422 100.815 0.281793C100.206 0.00936536 99.5286 -0.0679671 98.8744 0.0604213C95.1374 0.871731 91.526 2.18045 88.1369 3.95159C87.5524 4.27253 87.0816 4.76665 86.7894 5.36602C86.4971 5.96538 86.3977 6.64056 86.5048 7.29873C86.8368 9.18468 87.3399 11.0365 88.0078 12.8312C88.6476 14.6397 89.45 16.3865 90.4052 18.0501C90.7447 18.6253 91.2543 19.081 91.8637 19.3543C92.4731 19.6276 93.1523 19.7052 93.8076 19.5762C95.6746 19.1818 97.5099 18.6502 99.2986 17.9856C101.101 17.3478 102.853 16.5773 104.541 15.6804C105.125 15.3595 105.596 14.8653 105.888 14.266C106.18 13.6666 106.28 12.9914 106.173 12.3333" fill="#4AAC34"/>
<path id="Vector_4" d="M126.786 3.33371C123.265 1.82759 119.56 0.795082 115.767 0.26319C115.105 0.184654 114.435 0.313138 113.849 0.630981C113.262 0.948823 112.789 1.44042 112.494 2.03819C111.667 3.77079 110.999 5.57466 110.497 7.42773C109.967 9.27218 109.604 11.1609 109.414 13.0708C109.354 13.7374 109.503 14.4061 109.84 14.9843C110.177 15.5625 110.685 16.0216 111.295 16.2981C113.044 17.063 114.847 17.6979 116.689 18.1976C118.527 18.7174 120.401 19.1011 122.295 19.3456C122.958 19.4283 123.63 19.3016 124.217 18.9833C124.804 18.665 125.277 18.171 125.569 17.5706C126.396 15.8384 127.064 14.0344 127.565 12.181C128.089 10.3391 128.446 8.45342 128.63 6.54714C128.69 5.88057 128.541 5.2119 128.204 4.6337C127.867 4.0555 127.358 3.59637 126.749 3.31988" fill="#32BDEF"/>
<g id="Group" opacity="0.5">
<path id="Vector_5" opacity="0.5" d="M57.819 53.4624C57.9911 53.466 58.1551 53.5362 58.2764 53.6584C58.3977 53.7805 58.4668 53.945 58.4691 54.1171V65.1405C58.4667 65.3122 58.3975 65.4761 58.2761 65.5975C58.1547 65.7189 57.9907 65.7882 57.819 65.7906H57.0952C56.9236 65.7882 56.7596 65.7189 56.6382 65.5975C56.5168 65.4761 56.4475 65.3122 56.4452 65.1405V64.9884C56.1565 65.3016 55.8046 65.5498 55.4128 65.7168C55.0209 65.8837 54.5981 65.9654 54.1722 65.9566C53.667 65.978 53.163 65.8897 52.6951 65.6979C52.2271 65.5061 51.8062 65.2153 51.4613 64.8454C50.7504 64.0502 50.3825 63.0062 50.4378 61.9409C50.4175 61.3735 50.5152 60.808 50.7247 60.2803C50.9342 59.7525 51.251 59.274 51.655 58.875C52.071 58.4771 52.5631 58.1674 53.1019 57.9645C53.6407 57.7617 54.2149 57.6699 54.79 57.6947C55.3667 57.6711 55.9389 57.805 56.4452 58.082V54.1401C56.4475 53.968 56.5166 53.8036 56.6379 53.6814C56.7592 53.5593 56.9231 53.489 57.0952 53.4855L57.819 53.4624ZM56.4359 60.0506C55.9683 59.7501 55.4243 59.5901 54.8684 59.5896C54.5661 59.5751 54.2641 59.624 53.9817 59.7331C53.6994 59.8422 53.443 60.0091 53.229 60.2231C53.015 60.4371 52.8481 60.6935 52.739 60.9759C52.6299 61.2582 52.581 61.5602 52.5955 61.8625C52.5955 63.218 53.4576 64.0617 54.5872 64.0617C54.9337 64.0596 55.2761 63.9866 55.5933 63.847C55.9105 63.7074 56.1957 63.5043 56.4313 63.2502L56.4359 60.0506Z" fill="#316CB3"/>
<path id="Vector_6" opacity="0.5" d="M66.2512 63.9603C66.3744 63.8865 66.5136 63.8438 66.6569 63.8358C66.7601 63.8408 66.8605 63.8707 66.9496 63.9229C67.0387 63.9751 67.1139 64.048 67.1687 64.1355L67.3255 64.366C67.3962 64.469 67.4332 64.5915 67.4315 64.7164C67.4368 64.8219 67.4135 64.9269 67.364 65.0203C67.3145 65.1136 67.2406 65.1918 67.1503 65.2466C66.3522 65.7416 65.4291 65.9976 64.4901 65.9843C63.9263 66.0096 63.3632 65.9215 62.8342 65.725C62.3052 65.5286 61.821 65.228 61.4103 64.8409C61.0129 64.4503 60.7023 63.9803 60.4989 63.4615C60.2955 62.9428 60.2039 62.3869 60.2301 61.8303C60.2016 60.7253 60.6128 59.6541 61.3734 58.852C61.7706 58.4531 62.2471 58.1419 62.772 57.9386C63.2969 57.7353 63.8587 57.6444 64.4209 57.6717C65.4081 57.6478 66.3646 58.0158 67.0811 58.6952C67.439 59.0377 67.7211 59.4514 67.9093 59.9096C68.0975 60.3678 68.1876 60.8603 68.1738 61.3554C68.1861 61.5089 68.1861 61.663 68.1738 61.8165C68.1421 61.9815 68.0582 62.1319 67.9345 62.2457C67.8109 62.3594 67.6539 62.4304 67.4868 62.4481H62.3232C62.4845 63.6284 63.4343 64.2923 64.7021 64.2923C65.2372 64.3023 65.7673 64.1887 66.2512 63.9603ZM66.1452 61.088V61.0558C66.1515 60.8215 66.1079 60.5885 66.0175 60.3723C65.927 60.1562 65.7916 59.9617 65.6203 59.8017C65.449 59.6417 65.2457 59.52 65.0239 59.4445C64.802 59.369 64.5666 59.3415 64.3333 59.3637C63.8304 59.3236 63.3317 59.4814 62.9434 59.8035C62.555 60.1255 62.3077 60.5864 62.254 61.088H66.1452Z" fill="#316CB3"/>
<path id="Vector_7" opacity="0.5" d="M74.4255 64.578C74.4801 64.6687 74.5103 64.7719 74.5131 64.8777C74.5243 64.9902 74.5034 65.1036 74.4528 65.2048C74.4022 65.306 74.324 65.3908 74.2273 65.4494C73.6227 65.8005 72.9347 65.9821 72.2356 65.9749C70.4929 65.9749 69.769 64.9007 69.769 62.7892V56.3346C69.7726 56.1626 69.8429 55.9986 69.965 55.8773C70.0872 55.756 70.2516 55.6869 70.4237 55.6846H71.1429C71.315 55.6869 71.4795 55.756 71.6016 55.8773C71.7238 55.9986 71.794 56.1626 71.7976 56.3346V57.8837H73.6971C73.87 57.8861 74.0351 57.9558 74.1574 58.0781C74.2796 58.2004 74.3494 58.3655 74.3518 58.5384V59.1377C74.3482 59.3098 74.2779 59.4738 74.1558 59.5951C74.0337 59.7164 73.8692 59.7855 73.6971 59.7878H71.7838V62.6739C71.7838 63.6283 72.1019 64.1031 72.7335 64.1031C73.0596 64.0628 73.3829 64.0027 73.7017 63.9233C73.8173 63.9248 73.9302 63.9588 74.0272 64.0217C74.1243 64.0845 74.2017 64.1735 74.2503 64.2783L74.4255 64.578Z" fill="#316CB3"/>
<path id="Vector_8" opacity="0.5" d="M78.1923 58.7454C78.5064 58.4036 78.8918 58.1352 79.3213 57.9591C79.7507 57.783 80.2137 57.7036 80.6773 57.7265C81.8576 57.7265 82.6828 58.2383 82.9825 58.9944C83.292 58.5809 83.6978 58.2493 84.1646 58.0284C84.6315 57.8074 85.1452 57.7038 85.6611 57.7265C87.3485 57.7265 88.1968 58.6947 88.1968 60.6126V65.14C88.1933 65.3121 88.123 65.4761 88.0009 65.5973C87.8787 65.7186 87.7143 65.7877 87.5422 65.7901H86.8229C86.6508 65.7877 86.4864 65.7186 86.3642 65.5973C86.2421 65.4761 86.1718 65.3121 86.1683 65.14V61.1428C86.1683 60.1377 85.7072 59.626 84.8128 59.626C84.4793 59.5995 84.1454 59.6731 83.8538 59.8374C83.5623 60.0016 83.3264 60.2491 83.1761 60.5481C83.1761 60.6172 83.1761 61.0091 83.1761 61.129V65.1446C83.1737 65.3163 83.1045 65.4803 82.9831 65.6017C82.8617 65.7231 82.6977 65.7923 82.5261 65.7947H81.8022C81.6306 65.7923 81.4666 65.7231 81.3452 65.6017C81.2238 65.4803 81.1546 65.3163 81.1522 65.1446V60.9953C81.1738 60.8136 81.1549 60.6294 81.0969 60.4559C81.0389 60.2824 80.9433 60.1238 80.8168 59.9917C80.6903 59.8595 80.5362 59.7569 80.3654 59.6913C80.1946 59.6257 80.0114 59.5986 79.829 59.6122C79.5027 59.5942 79.1775 59.6633 78.8867 59.8124C78.5958 59.9614 78.3498 60.1851 78.1739 60.4605V65.1262C78.1715 65.2979 78.1022 65.4618 77.9808 65.5832C77.8594 65.7046 77.6955 65.7739 77.5238 65.7763H76.8C76.6283 65.7739 76.4643 65.7046 76.3429 65.5832C76.2215 65.4618 76.1523 65.2979 76.1499 65.1262V58.5333C76.1523 58.3612 76.2214 58.1968 76.3426 58.0746C76.4639 57.9525 76.6279 57.8822 76.8 57.8787H77.5238C77.6991 57.8774 77.8677 57.9456 77.993 58.0682C78.1182 58.1909 78.1899 58.3581 78.1923 58.5333V58.7454Z" fill="#316CB3"/>
<path id="Vector_9" opacity="0.5" d="M92.775 55.0117C92.7856 55.1721 92.7636 55.333 92.7104 55.4846C92.6571 55.6362 92.5737 55.7755 92.4651 55.894C92.3565 56.0125 92.225 56.1077 92.0786 56.174C91.9322 56.2403 91.7739 56.2762 91.6132 56.2796C91.4444 56.2882 91.2757 56.2613 91.118 56.2006C90.9603 56.1399 90.817 56.0469 90.6975 55.9274C90.578 55.8079 90.485 55.6646 90.4243 55.5069C90.3636 55.3492 90.3367 55.1805 90.3453 55.0117C90.3468 54.8499 90.3814 54.69 90.4468 54.542C90.5123 54.394 90.6073 54.2608 90.726 54.1508C90.8447 54.0407 90.9846 53.956 91.1371 53.9019C91.2897 53.8478 91.4517 53.8254 91.6132 53.8361C91.7673 53.8348 91.92 53.8645 92.0625 53.9233C92.2049 53.9821 92.3341 54.0689 92.4424 54.1785C92.5508 54.2881 92.636 54.4183 92.6931 54.5614C92.7502 54.7045 92.7781 54.8577 92.775 55.0117ZM91.9313 57.8656C92.1034 57.8691 92.2673 57.9394 92.3886 58.0615C92.5099 58.1837 92.579 58.3481 92.5813 58.5202V65.1408C92.579 65.3124 92.5097 65.4764 92.3883 65.5978C92.2669 65.7192 92.1029 65.7884 91.9313 65.7908H91.2075C91.0358 65.7884 90.8718 65.7192 90.7504 65.5978C90.629 65.4764 90.5598 65.3124 90.5574 65.1408V58.5341C90.5597 58.362 90.6288 58.1975 90.7501 58.0754C90.8714 57.9532 91.0354 57.883 91.2075 57.8794L91.9313 57.8656Z" fill="#316CB3"/>
<path id="Vector_10" opacity="0.5" d="M98.4271 59.6259C98.1549 59.6231 97.8882 59.7026 97.6619 59.854C97.4357 60.0054 97.2605 60.2216 97.1592 60.4743V65.14C97.1568 65.3116 97.0876 65.4756 96.9662 65.597C96.8448 65.7184 96.6808 65.7876 96.5091 65.79H95.7853C95.6136 65.7876 95.4497 65.7184 95.3283 65.597C95.2069 65.4756 95.1376 65.3116 95.1353 65.14V58.5333C95.1376 58.3612 95.2067 58.1967 95.328 58.0746C95.4493 57.9524 95.6132 57.8822 95.7853 57.8786H96.5091C96.5984 57.8816 96.6861 57.9022 96.7673 57.9394C96.8484 57.9766 96.9214 58.0296 96.9819 58.0952C97.0424 58.1608 97.0892 58.2379 97.1196 58.3218C97.1501 58.4057 97.1635 58.4948 97.1592 58.584C97.3763 58.3138 97.6526 58.0972 97.9668 57.9509C98.281 57.8046 98.6246 57.7325 98.9711 57.7403C99.2065 57.7299 99.4412 57.7725 99.658 57.8648C99.7683 57.8948 99.8652 57.9613 99.933 58.0533C100.001 58.1454 100.036 58.2577 100.031 58.3719C100.032 58.458 100.013 58.5432 99.9762 58.6209L99.7134 59.1833C99.6607 59.3332 99.5628 59.463 99.4331 59.5547C99.3034 59.6464 99.1484 59.6955 98.9895 59.6951C98.9146 59.7059 98.8385 59.7059 98.7636 59.6951C98.6525 59.6747 98.54 59.6624 98.4271 59.6582" fill="#316CB3"/>
<path id="Vector_11" opacity="0.5" d="M103.692 64.472C103.706 64.8285 103.579 65.176 103.338 65.4393C103.097 65.7025 102.762 65.8602 102.406 65.8781C102.221 65.8812 102.036 65.847 101.864 65.7774C101.692 65.7079 101.536 65.6044 101.405 65.4732C101.274 65.342 101.17 65.1858 101.101 65.0137C101.031 64.8417 100.997 64.6575 101 64.472C101.02 64.1149 101.178 63.7795 101.44 63.5362C101.702 63.2929 102.049 63.1607 102.406 63.1672C102.747 63.1789 103.07 63.3207 103.309 63.5634C103.548 63.8061 103.686 64.1312 103.692 64.472Z" fill="#316CB3"/>
<path id="Vector_12" opacity="0.5" d="M108.907 59.6258C108.634 59.6224 108.367 59.7016 108.141 59.8531C107.915 60.0045 107.74 60.2211 107.639 60.4741V65.1398C107.635 65.3119 107.565 65.4759 107.443 65.5972C107.321 65.7185 107.156 65.7876 106.984 65.7899H106.265C106.093 65.7876 105.928 65.7185 105.806 65.5972C105.684 65.4759 105.614 65.3119 105.61 65.1398V58.5332C105.613 58.3603 105.682 58.1951 105.805 58.0729C105.927 57.9506 106.092 57.8809 106.265 57.8785H106.984C107.074 57.8815 107.161 57.9021 107.243 57.9392C107.324 57.9763 107.398 58.0292 107.458 58.0948C107.519 58.1604 107.567 58.2374 107.598 58.3213C107.628 58.4052 107.642 58.4945 107.639 58.5839C107.856 58.3137 108.132 58.097 108.446 57.9507C108.761 57.8044 109.104 57.7324 109.451 57.7402C109.686 57.7303 109.921 57.7728 110.138 57.8647C110.247 57.8949 110.344 57.9615 110.411 58.0536C110.478 58.1458 110.512 58.258 110.506 58.3718C110.507 58.4574 110.489 58.5421 110.456 58.6208L110.193 59.1832C110.14 59.3327 110.042 59.4621 109.912 59.5537C109.783 59.6453 109.628 59.6947 109.469 59.695C109.393 59.7055 109.315 59.7055 109.239 59.695C109.129 59.6747 109.018 59.6623 108.907 59.6581" fill="#316CB3"/>
<path id="Vector_13" opacity="0.5" d="M113.66 62.2864C113.66 63.5036 114.172 64.0983 115.172 64.0983C115.525 64.0937 115.872 64.0032 116.182 63.8345C116.492 63.6658 116.756 63.424 116.952 63.1301V58.5336C116.954 58.3607 117.024 58.1956 117.146 58.0733C117.268 57.951 117.434 57.8813 117.607 57.8789H118.326C118.499 57.8813 118.664 57.951 118.786 58.0733C118.908 58.1956 118.978 58.3607 118.98 58.5336V65.1541C118.977 65.3262 118.907 65.4901 118.784 65.6114C118.662 65.7327 118.498 65.8018 118.326 65.8042H117.607C117.434 65.8018 117.27 65.7327 117.148 65.6114C117.026 65.4901 116.955 65.3262 116.952 65.1541V64.836C116.649 65.2138 116.262 65.5157 115.822 65.7174C115.381 65.9191 114.9 66.0151 114.416 65.9978C112.779 65.9978 111.65 64.8913 111.65 62.7244V58.5336C111.652 58.3615 111.721 58.197 111.843 58.0749C111.964 57.9527 112.128 57.8825 112.3 57.8789H113.024C113.196 57.8825 113.36 57.9527 113.481 58.0749C113.602 58.197 113.672 58.3615 113.674 58.5336L113.66 62.2864Z" fill="#316CB3"/>
</g>
<path id="Vector_14" d="M4.22798 48.133C4.22983 48.2842 4.20141 48.4344 4.14437 48.5745C4.08734 48.7146 4.00285 48.8419 3.89587 48.9489C3.7889 49.0558 3.66161 49.1403 3.52149 49.1974C3.38137 49.2544 3.23126 49.2828 3.07999 49.281H1.14824C0.996773 49.2842 0.846248 49.2564 0.705914 49.1993C0.565581 49.1422 0.438404 49.0571 0.3322 48.949C0.224159 48.8428 0.138978 48.7156 0.0818934 48.5753C0.0248086 48.435 -0.00297437 48.2844 0.000252008 48.133V43.1814C-0.00297437 43.03 0.0248086 42.8794 0.0818934 42.7391C0.138978 42.5988 0.224159 42.4716 0.3322 42.3654C0.438404 42.2573 0.565581 42.1722 0.705914 42.1151C0.846248 42.058 0.996773 42.0302 1.14824 42.0334H1.7522C2.03665 41.6517 2.27063 41.2349 2.44837 40.7932C2.65729 40.2777 2.82832 39.7477 2.96012 39.2073C3.09843 38.6356 3.2183 38.0408 3.3059 37.4277C3.3935 36.8145 3.46265 36.2059 3.50415 35.5835L3.62402 33.8039C3.63838 33.4929 3.77411 33.1999 4.00207 32.9879C4.11148 32.8803 4.24119 32.7955 4.38366 32.7385C4.52613 32.6815 4.67851 32.6535 4.83194 32.6559H13.3197C13.4709 32.6541 13.621 32.6825 13.7612 32.7395C13.9013 32.7965 14.0286 32.881 14.1355 32.988C14.2425 33.095 14.327 33.2223 14.384 33.3624C14.4411 33.5025 14.4695 33.6526 14.4676 33.8039V42.0334H15.5834C15.7346 42.0316 15.8847 42.06 16.0249 42.117C16.165 42.1741 16.2923 42.2586 16.3992 42.3655C16.5062 42.4725 16.5907 42.5998 16.6477 42.7399C16.7048 42.88 16.7332 43.0301 16.7313 43.1814V48.133C16.7332 48.2842 16.7048 48.4344 16.6477 48.5745C16.5907 48.7146 16.5062 48.8419 16.3992 48.9489C16.2923 49.0558 16.165 49.1403 16.0249 49.1974C15.8847 49.2544 15.7346 49.2828 15.5834 49.281H13.6516C13.5003 49.2828 13.3502 49.2544 13.2101 49.1974C13.07 49.1403 12.9427 49.0558 12.8357 48.9489C12.7287 48.8419 12.6443 48.7146 12.5872 48.5745C12.5302 48.4344 12.5018 48.2842 12.5036 48.133V46.2612H4.20492L4.22798 48.133ZM9.93563 36.8975H7.91167L7.83791 37.4415C7.73613 38.4039 7.54474 39.3547 7.26622 40.2815C7.08223 40.8978 6.81712 41.487 6.47784 42.0334H9.9218L9.93563 36.8975Z" fill="#316CB3"/>
<path id="Vector_15" d="M22.6188 40.9777C22.8137 41.5901 23.243 42.1006 23.8129 42.3977C24.4238 42.7129 25.1034 42.8713 25.7907 42.8588C26.235 42.8622 26.6789 42.8314 27.1185 42.7666C27.5013 42.7058 27.8768 42.6054 28.2388 42.4669C28.4508 42.3857 28.6757 42.3435 28.9027 42.3424C29.1225 42.3291 29.3412 42.3817 29.5309 42.4934C29.7206 42.6051 29.8727 42.7708 29.9677 42.9694L30.4288 43.933C30.509 44.1031 30.55 44.289 30.5486 44.477C30.5592 44.6778 30.514 44.8775 30.418 45.0541C30.3219 45.2307 30.1789 45.3772 30.0046 45.4775C29.2619 45.9049 28.458 46.2159 27.621 46.3996C26.8609 46.5419 26.0892 46.6129 25.3158 46.6116C24.2772 46.6252 23.2446 46.4503 22.2684 46.0953C21.4054 45.7905 20.6187 45.3021 19.9629 44.6637C19.307 44.0253 18.7974 43.2522 18.4694 42.3977C18.1065 41.4649 17.9265 40.471 17.9392 39.4701C17.9337 38.5223 18.1138 37.5826 18.4694 36.7039C18.8101 35.8558 19.3128 35.0822 19.9494 34.4264C20.602 33.758 21.3872 33.2335 22.2545 32.8865C23.2235 32.5003 24.2591 32.3092 25.302 32.324C26.1547 32.3226 27.0004 32.4789 27.7962 32.7851C28.5736 33.0754 29.2863 33.5155 29.894 34.0806C30.5049 34.6466 30.9997 35.3263 31.3508 36.0815C31.7205 36.9075 31.9047 37.8046 31.8903 38.7094C31.9013 39.1718 31.8751 39.6344 31.8119 40.0925C31.7591 40.3352 31.6259 40.5529 31.4338 40.7103C31.2622 40.8866 31.0296 40.9905 30.7838 41.0008L22.6188 40.9777ZM27.3629 37.9533C27.3523 37.4694 27.1519 37.0091 26.805 36.6716C26.5865 36.4646 26.3274 36.3052 26.0441 36.2036C25.7607 36.102 25.4594 36.0604 25.1591 36.0815C24.5399 36.0342 23.9228 36.1966 23.4071 36.5426C22.9781 36.9097 22.659 37.3884 22.4851 37.9257L27.3629 37.9533Z" fill="#316CB3"/>
<path id="Vector_16" d="M38.1742 46.2614C38.0229 46.2633 37.8728 46.2349 37.7326 46.1778C37.5925 46.1208 37.4652 46.0363 37.3583 45.9293C37.2513 45.8224 37.1668 45.6951 37.1098 45.5549C37.0527 45.4148 37.0243 45.2647 37.0262 45.1134V37.202H34.2599C34.109 37.2026 33.9595 37.1733 33.8199 37.1159C33.6803 37.0584 33.5535 36.9739 33.4468 36.8671C33.3401 36.7604 33.2556 36.6336 33.1981 36.4941C33.1406 36.3545 33.1113 36.205 33.1119 36.054V33.818C33.1113 33.6671 33.1406 33.5175 33.1981 33.378C33.2556 33.2384 33.3401 33.1116 33.4468 33.0049C33.5535 32.8982 33.6803 32.8136 33.8199 32.7561C33.9595 32.6987 34.109 32.6694 34.2599 32.67H44.3336C44.4849 32.6682 44.635 32.6966 44.7751 32.7536C44.9152 32.8106 45.0425 32.8951 45.1495 33.0021C45.2565 33.1091 45.341 33.2364 45.398 33.3765C45.455 33.5166 45.4835 33.6667 45.4816 33.818V36.054C45.4835 36.2053 45.455 36.3554 45.398 36.4955C45.341 36.6356 45.2565 36.7629 45.1495 36.8699C45.0425 36.9769 44.9152 37.0614 44.7751 37.1184C44.635 37.1754 44.4849 37.2039 44.3336 37.202H41.5674V45.1134C41.5693 45.2647 41.5408 45.4148 41.4838 45.5549C41.4268 45.6951 41.3423 45.8224 41.2353 45.9293C41.1283 46.0363 41.001 46.1208 40.8609 46.1778C40.7208 46.2349 40.5707 46.2633 40.4194 46.2614H38.1742Z" fill="#316CB3"/>
<path id="Vector_17" d="M56.4775 37.0817C55.8377 36.7412 55.1273 36.5549 54.4028 36.5377C54.0418 36.5379 53.6833 36.5987 53.3424 36.7175C53.0021 36.8425 52.689 37.0319 52.4203 37.2753C52.1344 37.5337 51.9038 37.8474 51.7426 38.1974C51.5634 38.5956 51.4752 39.0287 51.4844 39.4653C51.4777 39.8942 51.5708 40.3187 51.7564 40.7055C51.927 41.0548 52.1634 41.3679 52.4526 41.6275C52.7294 41.8787 53.0518 42.0743 53.4023 42.2038C53.7462 42.3312 54.1099 42.3967 54.4766 42.3975C55.2294 42.3824 55.9621 42.152 56.5881 41.7336C56.836 41.5574 57.1323 41.4624 57.4364 41.4616C57.6178 41.4616 57.7965 41.5056 57.9571 41.59C58.1178 41.6743 58.2555 41.7963 58.3585 41.9457L59.2806 43.1858C59.4372 43.3946 59.5213 43.6487 59.5203 43.9097C59.5247 44.0983 59.4828 44.2851 59.3985 44.4539C59.3141 44.6226 59.1897 44.7682 59.0362 44.8779C58.2868 45.5189 57.4146 46.0005 56.4729 46.2932C55.723 46.5083 54.9477 46.6215 54.1677 46.6298C53.1035 46.6423 52.0454 46.4676 51.0418 46.1134C50.1542 45.8013 49.341 45.3084 48.6537 44.6658C47.9961 44.0278 47.4862 43.2536 47.1599 42.3975C46.7966 41.4648 46.6166 40.4707 46.6297 39.4699C46.6241 38.5233 46.7993 37.5844 47.1461 36.7036C47.4785 35.8556 47.9752 35.0816 48.6075 34.4261C49.2554 33.7627 50.032 33.2387 50.8897 32.8862C51.8178 32.5038 52.8135 32.3125 53.8173 32.3238C54.6398 32.3157 55.4607 32.3977 56.2654 32.5681C57.0891 32.7702 57.8699 33.1184 58.5706 33.5962C58.7653 33.6972 58.9294 33.8482 59.0461 34.0338C59.1629 34.2194 59.2279 34.4329 59.2345 34.652C59.2342 34.8572 59.1697 35.0571 59.0501 35.2237L58.1741 36.676C58.0761 36.8615 57.9285 37.0161 57.7478 37.1228C57.5671 37.2294 57.3604 37.2838 57.1506 37.2799C56.9169 37.2828 56.687 37.2206 56.4867 37.1001" fill="#316CB3"/>
<path id="Vector_18" d="M66.6249 39.7652V45.1133C66.6267 45.2645 66.5983 45.4146 66.5413 45.5548C66.4842 45.6949 66.3997 45.8222 66.2928 45.9291C66.1858 46.0361 66.0585 46.1206 65.9184 46.1776C65.7783 46.2347 65.6282 46.2631 65.4769 46.2612H63.2408C63.0896 46.2631 62.9395 46.2347 62.7993 46.1776C62.6592 46.1206 62.5319 46.0361 62.425 45.9291C62.318 45.8222 62.2335 45.6949 62.1765 45.5548C62.1194 45.4146 62.091 45.2645 62.0929 45.1133V33.8178C62.091 33.6665 62.1194 33.5164 62.1765 33.3763C62.2335 33.2362 62.318 33.1089 62.425 33.0019C62.5319 32.895 62.6592 32.8105 62.7993 32.7534C62.9395 32.6964 63.0896 32.668 63.2408 32.6698H65.4677C65.6189 32.668 65.769 32.6964 65.9092 32.7534C66.0493 32.8105 66.1766 32.895 66.2835 33.0019C66.3905 33.1089 66.475 33.2362 66.532 33.3763C66.5891 33.5164 66.6175 33.6665 66.6157 33.8178V38.5896L70.1195 33.4259C70.2835 33.2018 70.4943 33.0162 70.7373 32.8819C70.9813 32.7417 71.2581 32.6685 71.5395 32.6698H73.6511C73.8104 32.6656 73.9688 32.6959 74.1152 32.7588C74.2617 32.8217 74.3928 32.9156 74.4994 33.034C74.702 33.2311 74.8242 33.4964 74.842 33.7784C74.8599 34.0604 74.7723 34.3391 74.5962 34.5601L71.3966 38.7878L72.8766 40.8118C73.2556 41.4193 73.8317 41.8783 74.5086 42.1119C74.8597 42.1554 75.1852 42.3182 75.4307 42.5729C75.6071 42.8736 75.686 43.2215 75.6566 43.5688V45.4129C75.6548 45.661 75.5574 45.8988 75.3846 46.0768C75.223 46.2682 74.9995 46.397 74.753 46.441L74.2919 46.4825C74.149 46.4825 73.9969 46.4825 73.8309 46.4825C73.4514 46.4798 73.073 46.4396 72.7014 46.3627C72.2883 46.2648 71.8911 46.1097 71.5211 45.9016C71.0899 45.6591 70.6942 45.3581 70.3455 45.0072C69.8993 44.561 69.5007 44.0696 69.156 43.5411L66.6249 39.7652Z" fill="#316CB3"/>
<path id="Vector_19" d="M88.7317 46.2614C88.5816 46.2614 88.433 46.2316 88.2945 46.1737C88.156 46.1159 88.0303 46.0311 87.9248 45.9243C87.8193 45.8175 87.7361 45.6908 87.6799 45.5516C87.6237 45.4124 87.5957 45.2635 87.5976 45.1134V39.1706L83.2638 45.5053C83.1125 45.719 82.9235 45.9034 82.706 46.0493C82.4861 46.1943 82.227 46.2683 81.9637 46.2614H79.368C79.2168 46.2632 79.0667 46.2348 78.9265 46.1778C78.7864 46.1207 78.6591 46.0362 78.5522 45.9293C78.4452 45.8223 78.3607 45.695 78.3037 45.5549C78.2466 45.4148 78.2182 45.2646 78.2201 45.1134V33.8179C78.2182 33.6667 78.2466 33.5165 78.3037 33.3764C78.3607 33.2363 78.4452 33.109 78.5522 33.002C78.6591 32.8951 78.7864 32.8106 78.9265 32.7535C79.0667 32.6965 79.2168 32.6681 79.368 32.6699H81.6041C81.7553 32.6681 81.9055 32.6965 82.0456 32.7535C82.1857 32.8106 82.313 32.8951 82.42 33.002C82.5269 33.109 82.6114 33.2363 82.6685 33.3764C82.7255 33.5165 82.7539 33.6667 82.7521 33.8179V39.7699L87.072 33.426C87.216 33.217 87.3936 33.0332 87.5976 32.882C87.8121 32.7367 88.067 32.6625 88.326 32.6699H90.9539C91.1048 32.6687 91.2544 32.6976 91.394 32.7549C91.5336 32.8122 91.6603 32.8968 91.7668 33.0037C91.8733 33.1106 91.9574 33.2377 92.0141 33.3775C92.0709 33.5173 92.0992 33.6671 92.0973 33.8179V45.1134C92.0992 45.2643 92.0709 45.414 92.0141 45.5538C91.9574 45.6936 91.8733 45.8207 91.7668 45.9276C91.6603 46.0345 91.5336 46.1191 91.394 46.1764C91.2544 46.2337 91.1048 46.2626 90.9539 46.2614H88.7317Z" fill="#316CB3"/>
<path id="Vector_20" d="M105.947 46.2613C105.796 46.2631 105.645 46.2347 105.505 46.1777C105.365 46.1206 105.238 46.0361 105.131 45.9292C105.024 45.8222 104.94 45.6949 104.882 45.5548C104.825 45.4147 104.797 45.2645 104.799 45.1133V39.1705L100.479 45.5144C100.328 45.7281 100.139 45.9125 99.9211 46.0584C99.7012 46.2034 99.4421 46.2774 99.1788 46.2705H96.5832C96.4311 46.2724 96.2802 46.2436 96.1395 46.186C95.9987 46.1284 95.871 46.0431 95.7639 45.9352C95.6568 45.8272 95.5725 45.6988 95.5161 45.5576C95.4596 45.4164 95.4321 45.2653 95.4352 45.1133V33.8178C95.4333 33.6666 95.4617 33.5164 95.5188 33.3763C95.5758 33.2362 95.6603 33.1089 95.7673 33.0019C95.8742 32.895 96.0015 32.8105 96.1417 32.7534C96.2818 32.6964 96.4319 32.668 96.5832 32.6698H98.8192C98.9705 32.668 99.1206 32.6964 99.2607 32.7534C99.4008 32.8105 99.5281 32.895 99.6351 33.0019C99.7421 33.1089 99.8265 33.2362 99.8836 33.3763C99.9406 33.5164 99.969 33.6666 99.9672 33.8178V39.7652L104.283 33.4259C104.433 33.2159 104.616 33.032 104.827 32.8819C105.047 32.7312 105.311 32.6568 105.578 32.6698H108.206C108.357 32.6686 108.506 32.6975 108.646 32.7548C108.786 32.8121 108.912 32.8967 109.019 33.0036C109.125 33.1105 109.209 33.2376 109.266 33.3774C109.323 33.5172 109.351 33.6669 109.349 33.8178V45.1133C109.351 45.2641 109.323 45.4139 109.266 45.5537C109.209 45.6935 109.125 45.8206 109.019 45.9275C108.912 46.0344 108.786 46.119 108.646 46.1763C108.506 46.2336 108.357 46.2625 108.206 46.2613H105.947ZM105.283 26.7224C105.537 26.7033 105.792 26.7391 106.03 26.8274C106.269 26.9158 106.486 27.0545 106.666 27.2342C106.983 27.6018 107.148 28.0768 107.127 28.562C107.118 28.9657 107.006 29.3605 106.803 29.7096C106.6 30.0587 106.312 30.3506 105.965 30.5583C105.191 31.0962 104.038 31.3666 102.508 31.3697C100.814 31.3697 99.6014 31.0992 98.8699 30.5583C98.5359 30.3429 98.2601 30.0485 98.0671 29.7011C97.8741 29.3537 97.7698 28.964 97.7634 28.5666C97.7435 28.0816 97.9083 27.6071 98.2245 27.2388C98.3996 27.0586 98.6122 26.9189 98.8472 26.8297C99.0822 26.7405 99.3339 26.7039 99.5845 26.7224C99.9936 26.6876 100.402 26.8022 100.733 27.0452C100.977 27.2654 101.154 27.5498 101.244 27.8658C101.332 28.1198 101.477 28.3501 101.668 28.5389C101.784 28.6369 101.919 28.711 102.064 28.7568C102.208 28.8027 102.361 28.8196 102.512 28.8063C102.65 28.8184 102.789 28.8007 102.919 28.7546C103.05 28.7085 103.169 28.6349 103.268 28.5389C103.441 28.3421 103.574 28.1134 103.66 27.8658C103.751 27.5498 103.928 27.2654 104.172 27.0452C104.493 26.8041 104.892 26.6893 105.292 26.7224" fill="#316CB3"/>
<path id="Vector_21" d="M123.222 45.1135C123.224 45.2648 123.195 45.4149 123.138 45.5551C123.081 45.6952 122.997 45.8225 122.89 45.9294C122.783 46.0364 122.656 46.1209 122.515 46.1779C122.375 46.235 122.225 46.2634 122.074 46.2615H119.838C119.687 46.2634 119.537 46.235 119.396 46.1779C119.256 46.1209 119.129 46.0364 119.022 45.9294C118.915 45.8225 118.831 45.6952 118.774 45.5551C118.716 45.4149 118.688 45.2648 118.69 45.1135V33.8181C118.688 33.6668 118.716 33.5167 118.774 33.3766C118.831 33.2365 118.915 33.1092 119.022 33.0022C119.129 32.8952 119.256 32.8108 119.396 32.7537C119.537 32.6967 119.687 32.6683 119.838 32.6701H121.982C122.25 32.6751 122.513 32.7403 122.753 32.8608C122.992 32.9813 123.201 33.154 123.365 33.3663L126.841 37.2897L130.041 33.3939C130.209 33.1836 130.413 33.0055 130.645 32.8684C130.872 32.7344 131.132 32.6658 131.396 32.6701H133.42C133.571 32.6683 133.721 32.6967 133.862 32.7537C134.002 32.8108 134.129 32.8952 134.236 33.0022C134.343 33.1092 134.427 33.2365 134.484 33.3766C134.542 33.5167 134.57 33.6668 134.568 33.8181V45.1135C134.57 45.2648 134.542 45.4149 134.484 45.5551C134.427 45.6952 134.343 45.8225 134.236 45.9294C134.129 46.0364 134.002 46.1209 133.862 46.1779C133.721 46.235 133.571 46.2634 133.42 46.2615H131.184C131.033 46.2634 130.883 46.235 130.743 46.1779C130.602 46.1209 130.475 46.0364 130.368 45.9294C130.261 45.8225 130.177 45.6952 130.12 45.5551C130.063 45.4149 130.034 45.2648 130.036 45.1135V39.5811L127.468 42.481C127.371 42.5943 127.251 42.6854 127.116 42.7482C126.981 42.8111 126.833 42.8441 126.684 42.8452C126.538 42.8468 126.393 42.8181 126.258 42.761C126.123 42.7039 126.001 42.6195 125.901 42.5133L123.213 39.5811L123.222 45.1135Z" fill="#316CB3"/>
<path id="Vector_22" d="M148.408 46.2615C148.257 46.2633 148.107 46.2349 147.967 46.1779C147.827 46.1208 147.699 46.0364 147.592 45.9294C147.486 45.8224 147.401 45.6951 147.344 45.555C147.287 45.4149 147.259 45.2648 147.26 45.1135V39.1707L142.922 45.5054C142.771 45.7191 142.582 45.9035 142.364 46.0494C142.146 46.1938 141.888 46.2678 141.627 46.2615H139.026C138.875 46.2633 138.725 46.2349 138.585 46.1779C138.445 46.1208 138.317 46.0364 138.21 45.9294C138.103 45.8224 138.019 45.6951 137.962 45.555C137.905 45.4149 137.876 45.2648 137.878 45.1135V33.8181C137.876 33.6668 137.905 33.5167 137.962 33.3766C138.019 33.2364 138.103 33.1091 138.21 33.0022C138.317 32.8952 138.445 32.8107 138.585 32.7537C138.725 32.6966 138.875 32.6682 139.026 32.6701H141.262C141.414 32.6682 141.564 32.6966 141.704 32.7537C141.844 32.8107 141.971 32.8952 142.078 33.0022C142.185 33.1091 142.27 33.2364 142.327 33.3766C142.384 33.5167 142.412 33.6668 142.41 33.8181V39.7701L146.73 33.4262C146.88 33.2161 147.064 33.0323 147.274 32.8821C147.487 32.736 147.74 32.6617 147.998 32.6701H150.626C150.777 32.6682 150.927 32.6966 151.067 32.7537C151.208 32.8107 151.335 32.8952 151.442 33.0022C151.549 33.1091 151.633 33.2364 151.69 33.3766C151.747 33.5167 151.776 33.6668 151.774 33.8181V45.1135C151.776 45.2648 151.747 45.4149 151.69 45.555C151.633 45.6951 151.549 45.8224 151.442 45.9294C151.335 46.0364 151.208 46.1208 151.067 46.1779C150.927 46.2349 150.777 46.2633 150.626 46.2615H148.408Z" fill="#316CB3"/>
<path id="Vector_23" d="M159.644 51.1577C159.646 51.3089 159.617 51.459 159.56 51.5992C159.503 51.7393 159.419 51.8666 159.312 51.9735C159.205 52.0805 159.078 52.165 158.937 52.222C158.797 52.2791 158.647 52.3075 158.496 52.3056H156.26C156.109 52.3075 155.959 52.2791 155.818 52.222C155.678 52.165 155.551 52.0805 155.444 51.9735C155.337 51.8666 155.253 51.7393 155.196 51.5992C155.138 51.459 155.11 51.3089 155.112 51.1577V33.818C155.11 33.6667 155.138 33.5166 155.196 33.3765C155.253 33.2364 155.337 33.1091 155.444 33.0021C155.551 32.8951 155.678 32.8106 155.818 32.7536C155.959 32.6966 156.109 32.6682 156.26 32.67H158.643C158.775 32.6675 158.906 32.6915 159.028 32.7407C159.15 32.7898 159.261 32.8629 159.355 32.9559C159.448 33.0488 159.522 33.1595 159.571 33.2815C159.621 33.4034 159.646 33.5342 159.644 33.6658C160.097 33.2608 160.618 32.9393 161.184 32.7161C161.894 32.4303 162.654 32.2907 163.42 32.3058C164.277 32.2979 165.126 32.474 165.909 32.8222C166.647 33.1547 167.299 33.6496 167.818 34.2698C168.356 34.9239 168.77 35.6707 169.04 36.4736C169.339 37.3647 169.488 38.2997 169.478 39.2398C169.485 40.2263 169.307 41.2053 168.952 42.1259C168.614 42.9933 168.112 43.787 167.472 44.4634C166.82 45.1404 166.036 45.6756 165.167 46.0355C164.215 46.4295 163.192 46.6256 162.161 46.6118C161.698 46.6119 161.236 46.5764 160.778 46.5058C160.379 46.4474 159.989 46.3406 159.616 46.1877L159.644 51.1577ZM159.644 41.8862C159.938 42.0682 160.259 42.205 160.594 42.2919C160.975 42.3731 161.365 42.4087 161.755 42.3979C162.165 42.4309 162.576 42.3677 162.956 42.2131C163.336 42.0586 163.675 41.8172 163.945 41.5081C164.426 40.8936 164.677 40.1304 164.655 39.3505C164.677 38.6252 164.436 37.9166 163.978 37.3542C163.731 37.0781 163.425 36.8617 163.082 36.7211C162.739 36.5806 162.369 36.5196 162 36.5427C161.543 36.5607 161.095 36.678 160.689 36.8866C160.282 37.0953 159.925 37.3901 159.644 37.7507V41.8862Z" fill="#316CB3"/>
</g>
</g>
</svg>
