<svg xmlns="http://www.w3.org/2000/svg" width="1920" height="193" viewBox="0 0 1920 193" fill="none">
  <path d="M265 1C265 1 32 0.999791 0 1L-1 137.766C21 148.766 58.4313 200.26 217 175.766C463 137.766 732.567 139.426 936 155.766C1185 175.766 1477 191.766 1641 191.766C1752.76 191.766 1878 185.266 1920 140.266V1H1611H953H265Z" fill="#FFF6EE"/>
  <path d="M265 1C265 1 32 0.999791 0 1L-1 137.766C21 148.766 58.4313 200.26 217 175.766C463 137.766 732.567 139.426 936 155.766C1185 175.766 1477 191.766 1641 191.766C1752.76 191.766 1878 185.266 1920 140.266V1H1611H953H265Z" fill="url(#paint0_linear_757_42)"/>
  <path d="M265 1C265 1 32 0.999791 0 1L-1 137.766C21 148.766 58.4313 200.26 217 175.766C463 137.766 732.567 139.426 936 155.766C1185 175.766 1477 191.766 1641 191.766C1752.76 191.766 1878 185.266 1920 140.266V1H1611H953H265Z" stroke="#FFF6EE"/>
  <defs>
    <linearGradient id="paint0_linear_757_42" x1="919" y1="310.767" x2="919" y2="-793.233" gradientUnits="userSpaceOnUse">
      <stop stop-color="white"/>
      <stop offset="1" stop-color="white" stop-opacity="0"/>
    </linearGradient>
  </defs>
</svg>