<svg width="14" height="18" viewBox="0 0 14 18" fill="none" xmlns="http://www.w3.org/2000/svg">
<g id="021 1" clip-path="url(#clip0_787_65)">
<g id="&#208;&#161;&#208;&#187;&#208;&#190;&#208;&#185; 2">
<g id="&#208;&#161;&#208;&#187;&#208;&#190;&#208;&#185; 1">
<path id="Vector" d="M0.147488 6.77137C1.33807 8.75746 2.27822 10.8767 2.94749 13.0829C3.44854 14.5206 3.92012 15.9583 4.33275 17.3097C4.74538 18.6611 7.28012 17.856 7.56012 16.749C8.00888 14.5664 8.56959 12.4071 9.24012 10.2794C9.7624 8.56673 10.4024 6.8904 11.1559 5.26179C11.505 4.52088 11.8986 3.80077 12.3349 3.10524C12.5132 2.8292 12.7101 2.56504 12.9243 2.3145L13.2633 1.92632C13.2633 1.92632 13.7054 1.53814 13.4401 1.7538C13.9412 1.33686 14.3096 0.675522 13.6464 0.229835C13.2814 0.0505705 12.8718 -0.0243056 12.465 0.0138542C12.0583 0.052014 11.6708 0.201653 11.3475 0.44549C9.32415 2.38606 7.84723 4.80233 7.05907 7.46147C6.09703 10.0357 5.30454 12.6673 4.68644 15.3401C4.5538 15.9008 4.42117 16.4615 4.30328 17.0222L7.53065 16.4615C7.08854 15.0238 6.58749 13.5861 6.05696 12.1484C5.33986 9.83101 4.35085 7.60219 3.10959 5.50619C2.35801 4.3129 -0.707248 5.46306 0.147488 6.77137Z" fill="#FF5F4E"/>
</g>
</g>
</g>
<defs>
<clipPath id="clip0_787_65">
<rect width="14" height="18" fill="white"/>
</clipPath>
</defs>
</svg>
