<svg width="456" height="51" viewBox="0 0 456 51" fill="none" xmlns="http://www.w3.org/2000/svg">
<path d="M3.916 39.4609C3.11867 39.4609 2.42533 39.1663 1.836 38.5769C1.24667 37.9876 0.952 37.2943 0.952 36.4969V4.46494C0.952 3.6676 1.24667 2.97427 1.836 2.38493C2.42533 1.7956 3.11867 1.50094 3.916 1.50094H6.88C7.78133 1.50094 8.596 1.7436 9.324 2.22894C10.052 2.71427 10.5893 3.37294 10.936 4.20494L18.996 23.8089C18.996 23.8436 19.0133 23.8609 19.048 23.8609C19.0827 23.8609 19.1 23.8436 19.1 23.8089L27.16 4.20494C27.5067 3.37294 28.044 2.71427 28.772 2.22894C29.5 1.7436 30.3147 1.50094 31.216 1.50094H34.388C35.1853 1.50094 35.8787 1.7956 36.468 2.38493C37.0573 2.97427 37.352 3.6676 37.352 4.46494V36.4969C37.352 37.2943 37.0573 37.9876 36.468 38.5769C35.8787 39.1663 35.1853 39.4609 34.388 39.4609H31.892C31.0947 39.4609 30.4013 39.1663 29.812 38.5769C29.2573 37.9876 28.98 37.2943 28.98 36.4969V16.2689C28.98 16.2343 28.9627 16.2169 28.928 16.2169C28.8587 16.2169 28.824 16.2343 28.824 16.2689L23.832 28.0729C23.4853 28.9049 22.9307 29.5636 22.168 30.0489C21.44 30.5343 20.6253 30.7769 19.724 30.7769H18.372C17.4707 30.7769 16.6387 30.5343 15.876 30.0489C15.148 29.5636 14.6107 28.9049 14.264 28.0729L9.272 16.2689C9.272 16.2343 9.23733 16.2169 9.168 16.2169C9.13333 16.2169 9.116 16.2343 9.116 16.2689V36.4969C9.116 37.2943 8.82133 37.9876 8.232 38.5769C7.67733 39.1663 7.00133 39.4609 6.204 39.4609H3.916ZM51.9413 39.0449L43.1533 15.1769C42.8759 14.5183 42.9453 13.8943 43.3613 13.3049C43.7773 12.7156 44.3493 12.4209 45.0773 12.4209H48.3533C49.1853 12.4209 49.9479 12.6983 50.6413 13.2529C51.3346 13.7729 51.7853 14.4489 51.9933 15.2809L55.9453 31.4529C55.9453 31.4876 55.9626 31.5049 55.9973 31.5049C56.0319 31.5049 56.0493 31.4876 56.0493 31.4529L60.7813 15.2289C60.9893 14.3969 61.4399 13.7209 62.1333 13.2009C62.8613 12.6809 63.6759 12.4209 64.5773 12.4209H67.4373C68.1306 12.4209 68.6853 12.7156 69.1013 13.3049C69.5173 13.8943 69.6039 14.5183 69.3613 15.1769L57.0893 48.1449C56.7773 48.9769 56.2573 49.6356 55.5293 50.1209C54.8013 50.6409 54.0039 50.9009 53.1373 50.9009H50.2773C49.5493 50.9009 48.9946 50.6063 48.6133 50.0169C48.2319 49.4623 48.1799 48.8556 48.4573 48.1969L51.9413 39.8769C51.9759 39.7383 51.9933 39.5996 51.9933 39.4609C51.9933 39.3223 51.9759 39.1836 51.9413 39.0449ZM237.63 36.6529L227.126 4.30893C226.884 3.6156 226.97 2.97427 227.386 2.38493C227.837 1.7956 228.426 1.50094 229.154 1.50094H232.638C233.505 1.50094 234.285 1.77827 234.978 2.33294C235.672 2.85293 236.122 3.52894 236.33 4.36094L243.142 30.9329C243.142 30.9676 243.16 30.9849 243.194 30.9849C243.229 30.9849 243.246 30.9676 243.246 30.9329L250.266 4.36094C250.474 3.52894 250.925 2.85293 251.618 2.33294C252.312 1.77827 253.092 1.50094 253.958 1.50094H257.234C257.962 1.50094 258.534 1.7956 258.95 2.38493C259.401 2.97427 259.505 3.6156 259.262 4.30893L248.758 36.6529C248.516 37.4849 248.03 38.1609 247.302 38.6809C246.609 39.2009 245.812 39.4609 244.91 39.4609H241.478C240.612 39.4609 239.814 39.2009 239.086 38.6809C238.393 38.1609 237.908 37.4849 237.63 36.6529ZM267.794 39.4609C266.996 39.4609 266.303 39.1663 265.714 38.5769C265.124 37.9876 264.83 37.2943 264.83 36.4969V15.3849C264.83 14.5876 265.124 13.8943 265.714 13.3049C266.303 12.7156 266.996 12.4209 267.794 12.4209H270.706C271.503 12.4209 272.196 12.7156 272.786 13.3049C273.375 13.8943 273.67 14.5876 273.67 15.3849V36.4969C273.67 37.2943 273.375 37.9876 272.786 38.5769C272.196 39.1663 271.503 39.4609 270.706 39.4609H267.794ZM267.794 7.22094C266.996 7.22094 266.303 6.92627 265.714 6.33694C265.124 5.7476 264.83 5.05427 264.83 4.25694V3.42494C264.83 2.6276 265.124 1.93427 265.714 1.34494C266.303 0.755601 266.996 0.460934 267.794 0.460934H270.706C271.503 0.460934 272.196 0.755601 272.786 1.34494C273.375 1.93427 273.67 2.6276 273.67 3.42494V4.25694C273.67 5.05427 273.375 5.7476 272.786 6.33694C272.196 6.92627 271.503 7.22094 270.706 7.22094H267.794ZM283.475 19.3369C282.678 19.3369 281.984 19.0596 281.395 18.5049C280.806 17.9156 280.511 17.2223 280.511 16.4249C280.511 15.6276 280.806 14.9343 281.395 14.3449C281.984 13.7556 282.678 13.4609 283.475 13.4609H285.555C285.832 13.4609 285.971 13.3049 285.971 12.9929V6.54494C285.971 5.7476 286.266 5.05427 286.855 4.46494C287.444 3.8756 288.138 3.58093 288.935 3.58093H291.431C292.228 3.58093 292.922 3.8756 293.511 4.46494C294.1 5.05427 294.395 5.7476 294.395 6.54494V12.9929C294.395 13.3049 294.551 13.4609 294.863 13.4609H299.959C300.756 13.4609 301.432 13.7556 301.987 14.3449C302.576 14.9343 302.871 15.6276 302.871 16.4249C302.871 17.2223 302.576 17.9156 301.987 18.5049C301.432 19.0596 300.756 19.3369 299.959 19.3369H294.863C294.551 19.3369 294.395 19.4929 294.395 19.8049V28.6969C294.395 30.8809 294.586 32.2676 294.967 32.8569C295.383 33.4463 296.284 33.7409 297.671 33.7409C298.399 33.7409 298.971 33.7063 299.387 33.6369C300.15 33.5329 300.826 33.7063 301.415 34.1569C302.004 34.6076 302.299 35.1969 302.299 35.9249V36.3409C302.299 37.2076 302.022 37.9703 301.467 38.6289C300.912 39.2876 300.202 39.6689 299.335 39.7729C298.26 39.9116 297.012 39.9809 295.591 39.9809C292.055 39.9809 289.559 39.2356 288.103 37.7449C286.682 36.2196 285.971 33.4983 285.971 29.5809V19.8049C285.971 19.4929 285.832 19.3369 285.555 19.3369H283.475ZM321.973 27.0849C317.743 27.0849 315.629 28.3849 315.629 30.9849C315.629 31.9209 315.906 32.6663 316.461 33.2209C317.015 33.7409 317.761 34.0009 318.697 34.0009C320.361 34.0009 321.713 33.4809 322.753 32.4409C323.793 31.3663 324.313 29.9449 324.313 28.1769V27.5529C324.313 27.2409 324.157 27.0849 323.845 27.0849H321.973ZM316.149 39.9809C313.757 39.9809 311.781 39.2183 310.221 37.6929C308.695 36.1329 307.933 34.1223 307.933 31.6609C307.933 25.3516 312.613 22.1969 321.973 22.1969H323.845C324.157 22.1969 324.313 22.0583 324.313 21.7809V21.5209C324.313 20.2036 323.966 19.2503 323.273 18.6609C322.614 18.0716 321.487 17.7769 319.893 17.7769C317.778 17.7769 315.247 18.1063 312.301 18.7649C311.573 18.9036 310.914 18.7476 310.325 18.2969C309.77 17.8463 309.493 17.2569 309.493 16.5289V16.4249C309.493 15.5583 309.753 14.7783 310.273 14.0849C310.827 13.3569 311.521 12.9236 312.353 12.7849C315.403 12.1956 318.038 11.9009 320.257 11.9009C324.798 11.9009 328.005 12.7156 329.877 14.3449C331.783 15.9743 332.737 18.6783 332.737 22.4569V36.4969C332.737 37.2943 332.442 37.9876 331.853 38.5769C331.263 39.1663 330.57 39.4609 329.773 39.4609H327.849C327.017 39.4609 326.306 39.1836 325.717 38.6289C325.127 38.0396 324.815 37.3289 324.781 36.4969V35.9249C324.781 35.8903 324.763 35.8729 324.729 35.8729C324.659 35.8729 324.625 35.8903 324.625 35.9249C322.441 38.6289 319.615 39.9809 316.149 39.9809ZM342.31 39.4609C341.513 39.4609 340.819 39.1663 340.23 38.5769C339.641 37.9876 339.346 37.2943 339.346 36.4969V15.3849C339.346 14.5876 339.641 13.8943 340.23 13.3049C340.819 12.7156 341.513 12.4209 342.31 12.4209H344.234C345.066 12.4209 345.759 12.7156 346.314 13.3049C346.903 13.8596 347.233 14.5529 347.302 15.3849L347.354 15.8529C347.354 15.8876 347.371 15.9049 347.406 15.9049C347.475 15.9049 347.51 15.8876 347.51 15.8529C349.555 13.2183 351.895 11.9009 354.53 11.9009C356.125 11.9009 357.39 12.1956 358.326 12.7849C359.262 13.3396 360.129 14.3449 360.926 15.8009C360.926 15.8703 360.961 15.9049 361.03 15.9049L361.134 15.8009C363.526 13.2009 366.022 11.9009 368.622 11.9009C371.569 11.9009 373.701 12.6983 375.018 14.2929C376.335 15.8529 376.994 18.5223 376.994 22.3009V36.4969C376.994 37.2943 376.699 37.9876 376.11 38.5769C375.521 39.1663 374.827 39.4609 374.03 39.4609H371.742C370.945 39.4609 370.251 39.1663 369.662 38.5769C369.073 37.9876 368.778 37.2943 368.778 36.4969V22.8209C368.778 20.9489 368.57 19.7183 368.154 19.1289C367.738 18.5049 366.958 18.1929 365.814 18.1929C365.017 18.1929 364.237 18.5223 363.474 19.1809C362.746 19.8396 362.382 20.4809 362.382 21.1049V36.4969C362.382 37.2943 362.087 37.9876 361.498 38.5769C360.909 39.1663 360.215 39.4609 359.418 39.4609H357.13C356.333 39.4609 355.639 39.1663 355.05 38.5769C354.461 37.9876 354.166 37.2943 354.166 36.4969V22.8209C354.166 20.9489 353.958 19.7183 353.542 19.1289C353.161 18.5049 352.398 18.1929 351.254 18.1929C350.457 18.1929 349.677 18.5223 348.914 19.1809C348.151 19.8396 347.77 20.4809 347.77 21.1049V36.4969C347.77 37.2943 347.475 37.9876 346.886 38.5769C346.297 39.1663 345.603 39.4609 344.806 39.4609H342.31ZM387.841 39.4609C387.043 39.4609 386.35 39.1663 385.761 38.5769C385.171 37.9876 384.877 37.2943 384.877 36.4969V15.3849C384.877 14.5876 385.171 13.8943 385.761 13.3049C386.35 12.7156 387.043 12.4209 387.841 12.4209H390.753C391.55 12.4209 392.243 12.7156 392.833 13.3049C393.422 13.8943 393.717 14.5876 393.717 15.3849V36.4969C393.717 37.2943 393.422 37.9876 392.833 38.5769C392.243 39.1663 391.55 39.4609 390.753 39.4609H387.841ZM387.841 7.22094C387.043 7.22094 386.35 6.92627 385.761 6.33694C385.171 5.7476 384.877 5.05427 384.877 4.25694V3.42494C384.877 2.6276 385.171 1.93427 385.761 1.34494C386.35 0.755601 387.043 0.460934 387.841 0.460934H390.753C391.55 0.460934 392.243 0.755601 392.833 1.34494C393.422 1.93427 393.717 2.6276 393.717 3.42494V4.25694C393.717 5.05427 393.422 5.7476 392.833 6.33694C392.243 6.92627 391.55 7.22094 390.753 7.22094H387.841ZM404.77 39.4609C403.972 39.4609 403.279 39.1663 402.69 38.5769C402.135 37.9876 401.858 37.2943 401.858 36.4969V15.3849C401.858 14.5876 402.135 13.8943 402.69 13.3049C403.279 12.7156 403.972 12.4209 404.77 12.4209H406.902C407.734 12.4209 408.427 12.7156 408.982 13.3049C409.571 13.8596 409.883 14.5529 409.918 15.3849L409.97 15.8009C409.97 15.8356 409.987 15.8529 410.022 15.8529L410.126 15.7489C412.379 13.1836 415.083 11.9009 418.238 11.9009C421.392 11.9009 423.663 12.8023 425.05 14.6049C426.436 16.3729 427.13 19.4063 427.13 23.7049V36.4969C427.13 37.2943 426.835 37.9876 426.246 38.5769C425.691 39.1663 425.015 39.4609 424.218 39.4609H421.93C421.132 39.4609 420.439 39.1663 419.85 38.5769C419.26 37.9876 418.966 37.2943 418.966 36.4969V23.9649C418.966 21.8849 418.688 20.4636 418.134 19.7009C417.579 18.9036 416.574 18.5049 415.118 18.5049C413.904 18.5049 412.778 19.0076 411.738 20.0129C410.732 20.9836 410.23 22.0409 410.23 23.1849V36.4969C410.23 37.2943 409.935 37.9876 409.346 38.5769C408.791 39.1663 408.115 39.4609 407.318 39.4609H404.77ZM443.42 29.0609C439.676 28.3676 436.99 27.2929 435.36 25.8369C433.766 24.3809 432.968 22.4569 432.968 20.0649C432.968 17.4996 433.922 15.5063 435.828 14.0849C437.77 12.6289 440.682 11.9009 444.564 11.9009C446.852 11.9009 449.192 12.0916 451.584 12.4729C452.416 12.6116 453.092 13.0103 453.612 13.6689C454.167 14.3276 454.444 15.0903 454.444 15.9569V16.2169C454.444 16.9449 454.15 17.5343 453.56 17.9849C453.006 18.4356 452.364 18.5916 451.636 18.4529C449.383 18.0023 447.303 17.7769 445.396 17.7769C443.975 17.7769 442.97 17.9503 442.38 18.2969C441.826 18.6436 441.548 19.1636 441.548 19.8569C441.548 21.1743 442.588 22.0409 444.668 22.4569C448.62 23.1156 451.376 24.1556 452.936 25.5769C454.531 26.9983 455.328 29.0609 455.328 31.7649C455.328 34.3649 454.358 36.3929 452.416 37.8489C450.475 39.2703 447.65 39.9809 443.94 39.9809C441.236 39.9809 438.671 39.7209 436.244 39.2009C435.412 39.0276 434.719 38.5943 434.164 37.9009C433.644 37.1729 433.384 36.3583 433.384 35.4569V35.0409C433.384 34.3129 433.679 33.7583 434.268 33.3769C434.858 32.9609 435.516 32.8396 436.244 33.0129C438.498 33.6023 440.716 33.8969 442.9 33.8969C445.466 33.8969 446.748 33.1516 446.748 31.6609C446.748 30.9676 446.506 30.4303 446.02 30.0489C445.57 29.6676 444.703 29.3383 443.42 29.0609Z" fill="white"/>
<path d="M102.411 16.0609L101.059 23.8609C100.989 24.1383 101.111 24.2769 101.423 24.2769H104.699C104.976 24.2769 105.149 24.1383 105.219 23.8609L106.571 16.0609C106.64 15.7836 106.519 15.6449 106.207 15.6449H102.931C102.653 15.6449 102.48 15.7836 102.411 16.0609ZM90.6585 30.9849C89.8612 30.9849 89.1678 30.6903 88.5785 30.1009C87.9892 29.5116 87.6945 28.8183 87.6945 28.0209V27.2409C87.6945 26.4436 87.9892 25.7503 88.5785 25.1609C89.1678 24.5716 89.8612 24.2769 90.6585 24.2769H92.5305C92.8078 24.2769 92.9812 24.1383 93.0505 23.8609L94.4545 16.0609C94.5238 15.7836 94.4025 15.6449 94.0905 15.6449H93.3625C92.5652 15.6449 91.8718 15.3503 91.2825 14.7609C90.6932 14.1716 90.3985 13.4783 90.3985 12.6809V11.9009C90.3985 11.1036 90.6932 10.4103 91.2825 9.82093C91.8718 9.2316 92.5652 8.93694 93.3625 8.93694H95.2865C95.5638 8.93694 95.7372 8.79827 95.8065 8.52094L96.5345 4.41294C96.7078 3.58094 97.1065 2.8876 97.7305 2.33294C98.3545 1.77827 99.0998 1.50094 99.9665 1.50094H102.047C102.809 1.50094 103.433 1.7956 103.919 2.38493C104.439 2.97427 104.629 3.65027 104.491 4.41294L103.763 8.52094C103.693 8.79827 103.815 8.93694 104.127 8.93694H107.403C107.68 8.93694 107.853 8.79827 107.923 8.52094L108.651 4.41294C108.824 3.58094 109.223 2.8876 109.847 2.33294C110.505 1.77827 111.268 1.50094 112.135 1.50094H114.214C114.977 1.50094 115.601 1.7956 116.087 2.38493C116.572 2.97427 116.745 3.65027 116.607 4.41294L115.879 8.52094C115.844 8.62494 115.879 8.72894 115.983 8.83294C116.087 8.90227 116.191 8.93694 116.295 8.93694H116.919C117.716 8.93694 118.409 9.2316 118.999 9.82093C119.588 10.4103 119.883 11.1036 119.883 11.9009V12.6809C119.883 13.4783 119.588 14.1716 118.999 14.7609C118.409 15.3503 117.716 15.6449 116.919 15.6449H115.099C114.821 15.6449 114.648 15.7836 114.579 16.0609L113.175 23.8609C113.105 24.1383 113.227 24.2769 113.539 24.2769H114.214C115.012 24.2769 115.705 24.5716 116.295 25.1609C116.884 25.7503 117.179 26.4436 117.179 27.2409V28.0209C117.179 28.8183 116.884 29.5116 116.295 30.1009C115.705 30.6903 115.012 30.9849 114.214 30.9849H112.395C112.117 30.9849 111.944 31.1236 111.875 31.4009L110.939 36.5489C110.765 37.3809 110.367 38.0743 109.743 38.6289C109.119 39.1836 108.373 39.4609 107.507 39.4609H105.375C104.612 39.4609 103.988 39.1663 103.503 38.5769C103.017 37.9876 102.844 37.3116 102.983 36.5489L103.867 31.4009C103.936 31.1236 103.815 30.9849 103.503 30.9849H100.227C99.9492 30.9849 99.7758 31.1236 99.7065 31.4009L98.8225 36.5489C98.6492 37.3809 98.2332 38.0743 97.5745 38.6289C96.9505 39.1836 96.2052 39.4609 95.3385 39.4609H93.2585C92.4958 39.4609 91.8545 39.1663 91.3345 38.5769C90.8492 37.9876 90.6758 37.3116 90.8145 36.5489L91.7505 31.4009C91.8198 31.1236 91.6985 30.9849 91.3865 30.9849H90.6585ZM129.407 16.7369C128.922 17.1183 128.402 17.1703 127.847 16.8929C127.327 16.6156 127.067 16.1649 127.067 15.5409V11.7449C127.067 9.76894 127.865 8.20894 129.459 7.06494L134.711 3.21694C136.271 2.07294 138.057 1.50094 140.067 1.50094H143.343C144.141 1.50094 144.834 1.7956 145.423 2.38493C146.013 2.97427 146.307 3.6676 146.307 4.46494V36.4969C146.307 37.2943 146.013 37.9876 145.423 38.5769C144.834 39.1663 144.141 39.4609 143.343 39.4609H140.067C139.27 39.4609 138.577 39.1663 137.987 38.5769C137.398 37.9876 137.103 37.2943 137.103 36.4969V11.2249H137.051H136.999L129.407 16.7369ZM168.948 29.0609C165.204 28.3676 162.517 27.2929 160.888 25.8369C159.293 24.3809 158.496 22.4569 158.496 20.0649C158.496 17.4996 159.449 15.5063 161.356 14.0849C163.297 12.6289 166.209 11.9009 170.092 11.9009C172.38 11.9009 174.72 12.0916 177.112 12.4729C177.944 12.6116 178.62 13.0103 179.14 13.6689C179.694 14.3276 179.972 15.0903 179.972 15.9569V16.2169C179.972 16.9449 179.677 17.5343 179.088 17.9849C178.533 18.4356 177.892 18.5916 177.164 18.4529C174.91 18.0023 172.83 17.7769 170.924 17.7769C169.502 17.7769 168.497 17.9503 167.908 18.2969C167.353 18.6436 167.076 19.1636 167.076 19.8569C167.076 21.1743 168.116 22.0409 170.196 22.4569C174.148 23.1156 176.904 24.1556 178.464 25.5769C180.058 26.9983 180.856 29.0609 180.856 31.7649C180.856 34.3649 179.885 36.3929 177.944 37.8489C176.002 39.2703 173.177 39.9809 169.468 39.9809C166.764 39.9809 164.198 39.7209 161.772 39.2009C160.94 39.0276 160.246 38.5943 159.692 37.9009C159.172 37.1729 158.912 36.3583 158.912 35.4569V35.0409C158.912 34.3129 159.206 33.7583 159.796 33.3769C160.385 32.9609 161.044 32.8396 161.772 33.0129C164.025 33.6023 166.244 33.8969 168.428 33.8969C170.993 33.8969 172.276 33.1516 172.276 31.6609C172.276 30.9676 172.033 30.4303 171.548 30.0489C171.097 29.6676 170.23 29.3383 168.948 29.0609ZM187.6 19.3369C186.803 19.3369 186.109 19.0596 185.52 18.5049C184.931 17.9156 184.636 17.2223 184.636 16.4249C184.636 15.6276 184.931 14.9343 185.52 14.3449C186.109 13.7556 186.803 13.4609 187.6 13.4609H189.68C189.957 13.4609 190.096 13.3049 190.096 12.9929V6.54494C190.096 5.7476 190.391 5.05427 190.98 4.46494C191.569 3.8756 192.263 3.58093 193.06 3.58093H195.556C196.353 3.58093 197.047 3.8756 197.636 4.46494C198.225 5.05427 198.52 5.7476 198.52 6.54494V12.9929C198.52 13.3049 198.676 13.4609 198.988 13.4609H204.084C204.881 13.4609 205.557 13.7556 206.112 14.3449C206.701 14.9343 206.996 15.6276 206.996 16.4249C206.996 17.2223 206.701 17.9156 206.112 18.5049C205.557 19.0596 204.881 19.3369 204.084 19.3369H198.988C198.676 19.3369 198.52 19.4929 198.52 19.8049V28.6969C198.52 30.8809 198.711 32.2676 199.092 32.8569C199.508 33.4463 200.409 33.7409 201.796 33.7409C202.524 33.7409 203.096 33.7063 203.512 33.6369C204.275 33.5329 204.951 33.7063 205.54 34.1569C206.129 34.6076 206.424 35.1969 206.424 35.9249V36.3409C206.424 37.2076 206.147 37.9703 205.592 38.6289C205.037 39.2876 204.327 39.6689 203.46 39.7729C202.385 39.9116 201.137 39.9809 199.716 39.9809C196.18 39.9809 193.684 39.2356 192.228 37.7449C190.807 36.2196 190.096 33.4983 190.096 29.5809V19.8049C190.096 19.4929 189.957 19.3369 189.68 19.3369H187.6Z" fill="#FF5F4E"/>
</svg>
