<svg width="249" height="269" viewBox="0 0 249 269" fill="none" xmlns="http://www.w3.org/2000/svg">
<g opacity="0.3" clip-path="url(#clip0_605_58)">
<path d="M155.062 13.1815L142.516 18.7209L130.837 11.5303C130.539 11.3522 130.198 11.2601 129.851 11.2642C129.504 11.2683 129.164 11.3684 128.871 11.5534C128.577 11.7385 128.34 12.0013 128.187 12.3126C128.033 12.624 127.969 12.9718 128.001 13.3175L129.417 26.9863L118.968 35.8773C118.702 36.106 118.505 36.4041 118.399 36.7383C118.293 37.0725 118.282 37.4296 118.368 37.7697C118.453 38.1097 118.631 38.4194 118.882 38.664C119.133 38.9086 119.448 39.0785 119.79 39.1547L133.202 42.0444L138.416 54.7241C138.549 55.0503 138.77 55.3329 139.055 55.5395C139.34 55.7461 139.678 55.8685 140.029 55.8927C140.38 55.917 140.731 55.8421 141.042 55.6765C141.353 55.511 141.611 55.2616 141.787 54.9565L148.635 43.0718L162.308 42.036C162.66 42.0084 162.996 41.8831 163.28 41.6743C163.564 41.4655 163.784 41.1814 163.915 40.8542C164.046 40.5271 164.083 40.1698 164.021 39.8227C163.96 39.4756 163.803 39.1527 163.568 38.8902L154.447 28.7172L157.7 15.3772C157.798 15.0278 157.793 14.6574 157.685 14.3109C157.577 13.9644 157.372 13.6564 157.093 13.4243C156.814 13.1921 156.474 13.0456 156.113 13.0026C155.753 12.9595 155.388 13.0216 155.062 13.1815Z" fill="#FF7556"/>
<path d="M108.054 143.06C105.356 142.636 102.592 143.022 100.112 144.169C97.6327 145.316 95.5491 147.172 94.1249 149.503C92.7007 151.835 91.9999 154.536 92.1112 157.265C92.2224 159.995 93.1408 162.63 94.75 164.838C96.3593 167.045 98.5871 168.726 101.152 169.667C103.716 170.609 106.502 170.768 109.158 170.126C111.813 169.483 114.218 168.067 116.069 166.058C117.919 164.048 119.132 161.535 119.554 158.836C120.119 155.219 119.226 151.526 117.069 148.568C114.913 145.61 111.671 143.629 108.054 143.06Z" fill="#FFCD7B"/>
<path d="M144.962 169.709C141.004 168.575 136.816 167.695 133.08 166.009C129.869 164.558 131.315 159.482 134.846 160.048C139.171 160.735 143.467 162.459 147.655 163.732C149.347 164.244 149.961 166.594 149.299 168.06C148.493 169.859 146.672 170.211 144.962 169.709Z" fill="#FFCD7B"/>
<path d="M125.915 191.802C123.608 187.018 120.61 182.769 117.823 178.276C115.617 174.778 120.185 171.593 122.913 174.53C126.819 178.772 129.701 184.149 132.191 189.312C132.376 189.726 132.475 190.174 132.482 190.627C132.489 191.081 132.405 191.531 132.233 191.951C132.062 192.371 131.807 192.752 131.484 193.071C131.161 193.39 130.777 193.64 130.355 193.807C129.933 193.973 129.482 194.052 129.028 194.04C128.575 194.027 128.129 193.922 127.717 193.733C127.305 193.543 126.935 193.271 126.631 192.935C126.327 192.599 126.093 192.204 125.946 191.775L125.915 191.802Z" fill="#FFCD7B"/>
<path d="M102.011 181.1C102.405 180.649 102.955 180.365 103.551 180.304C104.146 180.244 104.742 180.412 105.218 180.775C107.887 182.55 107.42 186.447 107.095 189.223C106.728 192.127 105.936 194.96 104.745 197.633C103.016 201.572 96.9102 198.845 98.6429 194.893C102.048 187.155 99.3521 183.887 102.011 181.1Z" fill="#FFCD7B"/>
<path d="M75.6336 174.461C81.8263 170.956 84.088 167.857 87.2549 168.633C87.6635 168.708 88.0502 168.873 88.3864 169.117C88.7226 169.361 88.9999 169.678 89.1978 170.043C89.3956 170.408 89.5091 170.813 89.5298 171.228C89.5506 171.643 89.478 172.058 89.3175 172.441C88.6495 174.551 86.2729 175.528 84.5604 176.68C82.8478 177.832 81.2815 178.875 79.5533 179.843C78.8325 180.338 77.9502 180.538 77.0867 180.404C76.2231 180.269 75.4434 179.811 74.9067 179.121C73.9338 177.8 74.0832 175.338 75.6247 174.465L75.6336 174.461Z" fill="#FFCD7B"/>
<path d="M75.9245 158.777C72.4794 157.176 71.2182 156.802 69.7074 155.005C68.3915 153.433 69.5682 150.476 71.6923 150.45C74.1742 150.421 75.0351 150.978 78.6646 152.675C79.0653 152.855 79.4266 153.112 79.7279 153.431C80.0292 153.751 80.2646 154.127 80.4207 154.537C80.5768 154.948 80.6505 155.385 80.6376 155.824C80.6247 156.263 80.5254 156.695 80.3455 157.096C80.1656 157.496 79.9085 157.858 79.589 158.159C79.2694 158.46 78.8937 158.696 78.4831 158.852C78.0726 159.008 77.6353 159.082 77.1963 159.069C76.7573 159.056 76.3251 158.957 75.9245 158.777Z" fill="#FFCD7B"/>
<path d="M85.9421 142.65C82.0357 136.507 80.9068 135.232 81.3361 132.986C81.5886 131.664 82.9898 130.278 84.4528 130.695C87.1814 131.472 87.8052 133.141 91.227 138.78C91.7197 139.488 91.9205 140.359 91.7874 141.211C91.6543 142.063 91.1976 142.831 90.5125 143.355C89.811 143.863 88.9379 144.073 88.0824 143.941C87.2269 143.809 86.4579 143.345 85.9421 142.65Z" fill="#FFCD7B"/>
<path d="M107.998 121.155C109.399 118.983 113.246 120.229 113.317 122.747C113.387 125.264 112.971 126.007 109.917 137.287C109.76 138.152 109.277 138.924 108.567 139.444C107.858 139.964 106.977 140.193 106.105 140.083C104.455 139.808 102.802 138.038 103.308 136.27C106.531 124.509 106.588 123.332 107.998 121.155Z" fill="#FFCD7B"/>
<path d="M125.236 140.69C131.835 134.918 130.844 133.91 134.767 131.743C136.518 130.774 139.128 132.872 138.587 134.792C137.906 137.291 137.426 137.932 134.525 141.013C132.841 142.804 131.069 144.509 129.214 146.121C128.491 146.643 127.592 146.86 126.71 146.725C125.828 146.59 125.035 146.114 124.501 145.399C123.989 144.672 123.78 143.775 123.917 142.896C124.054 142.018 124.527 141.227 125.236 140.69Z" fill="#FFCD7B"/>
<path d="M198.143 212.969C186.974 210.938 182.071 197.052 185.864 187.359C190.087 176.624 202.032 170.179 213.324 171.99C225.575 173.936 232.645 183.928 230.059 195.046C227.536 205.873 216.002 209.643 207.463 203.591C201.36 199.254 200.793 192.234 203.684 189.7C205.919 187.728 209.557 189.048 209.268 192.2C209.18 192.807 208.92 193.376 208.519 193.839C208.118 194.303 207.593 194.642 207.005 194.817C207.21 197.726 211.139 201.686 216.738 201.615C223.902 201.547 226.869 193.461 225.464 187.413C223.668 179.711 215.703 176.063 208.345 176.343C200.62 176.632 192.988 181.71 190.101 188.968C188.553 192.944 188.626 197.368 190.306 201.291C191.985 205.213 195.136 208.32 199.082 209.944C199.45 210.094 199.749 210.377 199.919 210.737C200.088 211.096 200.117 211.507 199.999 211.887C199.881 212.266 199.625 212.588 199.282 212.789C198.938 212.989 198.532 213.054 198.143 212.969Z" fill="#70B2F5"/>
<path d="M27.6492 130.784L15.2907 106.767L51.5088 107.157L27.6492 130.784Z" fill="#6EDACA"/>
</g>
<defs>
<clipPath id="clip0_605_58">
<rect width="214.89" height="168.9" fill="white" transform="matrix(0.457885 0.889012 0.889012 -0.457885 0.322678 77.728)"/>
</clipPath>
</defs>
</svg>
