<svg width="297" height="238" viewBox="0 0 297 238" fill="none" xmlns="http://www.w3.org/2000/svg">
<g opacity="0.3" clip-path="url(#clip0_605_43)">
<path d="M251.351 126.019L253.091 114.731L264.279 111.512L265.334 98.7033L278.315 98.9544L280.141 84.5341L292.127 83.2925L296.15 69.7039L291.015 68.1658L288.002 78.3198L275.352 79.6354L273.599 93.4948L260.4 93.245L259.237 107.373L248.31 110.509L246.704 120.983L239.092 121.546L239.499 126.893L251.351 126.019Z" fill="#00C0A5"/>
<path d="M20.5299 102.015L33.7578 106.363L44.8532 97.9373C45.1373 97.7199 45.4766 97.5866 45.8326 97.5526C46.1887 97.5186 46.5471 97.5852 46.8671 97.745C47.1872 97.9047 47.4559 98.151 47.6428 98.456C47.8297 98.7609 47.9272 99.1122 47.9242 99.4699L47.8672 113.429L59.3128 121.371C59.6119 121.573 59.848 121.855 59.9938 122.186C60.1396 122.516 60.1894 122.881 60.1373 123.238C60.0852 123.595 59.9334 123.931 59.6993 124.206C59.4652 124.481 59.1584 124.684 58.8139 124.793L45.5494 129.051L41.523 142.39C41.4105 142.72 41.21 143.013 40.9431 143.237C40.6762 143.461 40.353 143.607 40.0087 143.661C39.6644 143.714 39.3119 143.673 38.9896 143.54C38.6672 143.408 38.3872 143.19 38.1799 142.91L30.0385 131.613L16.1239 131.88C15.7665 131.89 15.4136 131.799 15.1054 131.618C14.7971 131.437 14.5458 131.173 14.38 130.857C14.2143 130.54 14.1408 130.183 14.1678 129.827C14.1948 129.47 14.3213 129.128 14.533 128.84L22.7589 117.64L18.1311 104.47C18.0108 104.133 17.9877 103.769 18.0642 103.42C18.1407 103.07 18.3138 102.749 18.5638 102.493C18.8138 102.237 19.1307 102.057 19.4783 101.972C19.8259 101.888 20.1903 101.902 20.5299 102.015Z" fill="#FFCD7B"/>
<path d="M164.521 73.8596C166.574 73.8392 168.606 74.2757 170.47 75.1375C172.334 75.9992 173.983 77.2647 175.298 78.8421C176.24 79.926 176.955 81.1884 177.4 82.5542C177.845 83.92 178.011 85.3614 177.887 86.7925C177.763 88.2236 177.353 89.6153 176.681 90.8846C176.008 92.1539 175.087 93.275 173.973 94.1811C168.773 98.6365 158.72 99.3488 143.231 92.0948C138.468 75.6891 140.686 65.853 145.886 61.3976C146.955 60.4368 148.205 59.7002 149.564 59.2314C150.922 58.7627 152.361 58.5714 153.795 58.6688C155.229 58.7662 156.628 59.1503 157.911 59.7985C159.193 60.4466 160.333 61.3456 161.262 62.4421C162.617 63.985 163.612 65.8096 164.176 67.7842C164.739 69.7588 164.857 71.8339 164.521 73.8596Z" fill="#FF8D7F"/>
<path d="M128.107 35.5008C130.924 40.1591 134.001 44.6549 137.324 48.9666C138.327 50.2848 139.687 52.8138 141.503 52.8538C141.939 52.9015 142.378 52.7803 142.728 52.5152C143.078 52.25 143.313 51.861 143.386 51.4278C143.731 49.6345 141.788 48.0019 140.783 46.6933C137.738 42.7279 134.399 38.0266 131.336 33.1217C131.02 32.6935 130.548 32.4082 130.022 32.3285C129.496 32.2488 128.96 32.3813 128.532 32.6968C128.104 33.0123 127.818 33.4849 127.739 34.0108C127.659 34.5367 127.791 35.0726 128.107 35.5008Z" fill="#FF8D7F"/>
<path d="M169.29 110.129C170.732 112.069 172.213 113.977 173.682 115.893C175.15 117.809 176.443 120.132 178.385 121.36C178.684 121.585 179.048 121.707 179.423 121.709C179.797 121.71 180.162 121.591 180.464 121.368C180.765 121.145 180.986 120.832 181.095 120.473C181.204 120.114 181.194 119.73 181.066 119.378C180.362 117.105 178.394 115.268 176.973 113.438C175.553 111.609 174.023 109.614 172.515 107.728C171.006 105.843 167.727 108.032 169.276 110.105L169.29 110.129Z" fill="#FF8D7F"/>
<path d="M116.615 72.4096C122.498 71.7166 125.987 73.6876 129.246 74.7328C129.604 74.8816 130.005 74.8966 130.373 74.775C130.742 74.6534 131.055 74.4034 131.255 74.0704C131.455 73.7374 131.529 73.3437 131.463 72.961C131.397 72.5783 131.195 72.232 130.895 71.9853C127.188 68.4579 120.972 67.8122 116.127 68.4317C113.575 68.7573 114.049 72.7106 116.615 72.4096Z" fill="#FF8D7F"/>
<path d="M123.436 102.265C125.334 100.671 127.545 99.4921 129.926 98.8032C131.403 98.3851 136.307 98.2597 135.163 95.5523C134.02 92.8448 129.737 94.5351 127.881 95.1588C125.378 96.0044 123.057 97.3147 121.04 99.0209C119.068 100.692 121.434 103.928 123.436 102.265Z" fill="#FF8D7F"/>
<path d="M147.953 109.278C148 110.932 148.063 112.601 148.078 114.256C148.094 115.911 147.778 117.785 149.141 118.965C149.503 119.245 149.959 119.374 150.414 119.325C150.869 119.276 151.288 119.053 151.581 118.702C152.746 117.542 152.209 115.264 152.166 113.746C152.123 112.229 152.053 110.434 152.006 108.78C151.935 108.245 151.657 107.758 151.232 107.426C150.806 107.094 150.267 106.941 149.73 107.003C149.198 107.08 148.716 107.36 148.385 107.784C148.054 108.208 147.899 108.743 147.953 109.278Z" fill="#FF8D7F"/>
<path d="M166.179 51.6781C172.857 40.1081 172.96 40.1474 173.181 38.7243C173.22 38.3842 173.159 38.0403 173.007 37.7336C172.855 37.427 172.618 37.1707 172.324 36.9954C172.03 36.8202 171.691 36.7334 171.349 36.7455C171.007 36.7576 170.676 36.8681 170.395 37.0637C169.184 37.9816 169.404 37.8251 162.416 50.0563C162.207 50.5598 162.203 51.125 162.405 51.6314C162.607 52.1378 162.999 52.5453 163.497 52.7669C164.002 52.9737 164.567 52.977 165.074 52.776C165.581 52.575 165.991 52.1854 166.217 51.6889L166.179 51.6781Z" fill="#FF8D7F"/>
<path d="M179.675 69.0799C181.782 68.4814 183.819 67.6578 185.75 66.6235C187.547 65.6512 190.437 64.4129 190.419 62.0613C190.39 61.7877 190.288 61.5271 190.122 61.3072C189.957 61.0873 189.735 60.9165 189.48 60.8128C187.513 60.1596 185.546 62.1123 183.876 62.9959C182.056 63.9481 180.157 64.7412 178.2 65.3662C177.944 65.4547 177.71 65.594 177.51 65.7757C177.31 65.9573 177.149 66.1776 177.037 66.4232C176.924 66.6687 176.863 66.9345 176.856 67.2045C176.849 67.4745 176.897 67.7431 176.997 67.9941C177.096 68.2451 177.246 68.4733 177.436 68.6649C177.626 68.8566 177.854 69.0077 178.104 69.1092C178.354 69.2106 178.622 69.2603 178.892 69.2553C179.162 69.2503 179.429 69.1906 179.675 69.0799Z" fill="#FF8D7F"/>
<path d="M196.971 94.9974C197.393 94.8186 197.73 94.4836 197.912 94.0623C198.093 93.641 198.105 93.1659 197.945 92.7361C197.451 91.0096 194.846 90.2614 193.344 89.6549C191.59 88.9609 189.782 88.4076 187.94 88.0003C187.677 87.9613 187.409 87.9751 187.152 88.0408C186.894 88.1065 186.653 88.2229 186.441 88.3831C186.229 88.5433 186.051 88.7442 185.917 88.9739C185.784 89.2037 185.697 89.4577 185.663 89.7212C185.606 90.2468 185.751 90.7744 186.069 91.1969C186.387 91.6193 186.854 91.9048 187.375 91.9954C194.288 93.8224 194.583 95.7011 196.971 94.9974Z" fill="#FF8D7F"/>
<path d="M170.223 176.008C158.915 178.135 153.941 192.226 157.863 202.085C162.207 212.964 174.379 219.458 185.832 217.558C198.24 215.511 205.401 205.373 202.775 194.07C200.171 183.095 188.424 179.316 179.802 185.505C173.617 189.955 173.082 197.074 176.011 199.636C178.288 201.632 181.982 200.265 181.672 197.064C181.581 196.447 181.315 195.87 180.904 195.402C180.493 194.933 179.956 194.594 179.356 194.424C179.549 191.467 183.519 187.436 189.211 187.468C196.469 187.502 199.547 195.702 198.141 201.851C196.365 209.661 188.284 213.426 180.803 213.185C172.954 212.924 165.19 207.786 162.225 200.448C160.634 196.414 160.688 191.918 162.376 187.924C164.064 183.931 167.251 180.758 171.253 179.089C171.661 178.952 171.999 178.659 172.191 178.274C172.383 177.888 172.415 177.442 172.278 177.034C172.142 176.625 171.849 176.288 171.463 176.096C171.078 175.903 170.632 175.872 170.223 176.008Z" fill="#70B2F5"/>
</g>
<defs>
<clipPath id="clip0_605_43">
<rect width="258.77" height="174.52" fill="white" transform="translate(46.9449) rotate(15.6044)"/>
</clipPath>
</defs>
</svg>
