<svg width="302" height="249" viewBox="0 0 302 249" fill="none" xmlns="http://www.w3.org/2000/svg">
<g opacity="0.3" clip-path="url(#clip0_604_33)">
<path d="M239.829 71.8819L234.866 61.5954L242.26 52.6024L235.87 41.452L246.707 34.3022L240.039 21.3862L249.211 13.5706L244.825 0.0946493L239.722 1.73783L242.994 11.8109L233.318 20.0641L239.728 32.4762L228.711 39.7509L235.76 52.0501L228.535 60.8265L233.147 70.3665L227.195 75.1445L230.56 79.3189L239.829 71.8819Z" fill="#00C0A5"/>
<path d="M36.0511 182.917L49.4139 179.003L53.7804 165.773C53.8911 165.433 54.0952 165.131 54.3693 164.901C54.6433 164.671 54.9764 164.523 55.3306 164.473C55.6848 164.423 56.0458 164.474 56.3726 164.619C56.6994 164.765 56.9788 164.999 57.1791 165.295L65.0431 176.829L78.9739 176.885C79.335 176.882 79.6896 176.981 79.997 177.171C80.3043 177.36 80.552 177.633 80.7116 177.957C80.8712 178.28 80.9362 178.643 80.8992 179.002C80.8621 179.361 80.7245 179.703 80.5022 179.987L71.9871 191.014L76.2291 204.285C76.3234 204.621 76.324 204.975 76.2311 205.311C76.1381 205.647 75.9551 205.951 75.7017 206.19C75.4484 206.43 75.1344 206.595 74.7938 206.669C74.4532 206.742 74.0989 206.721 73.7693 206.608L60.6596 201.915L49.3465 210.021C49.0576 210.231 48.7154 210.356 48.3588 210.382C48.0023 210.407 47.6457 210.332 47.3296 210.165C47.0136 209.998 46.7507 209.746 46.571 209.437C46.3913 209.128 46.3018 208.775 46.3129 208.418L46.7429 194.528L35.4661 186.299C35.176 186.09 34.9507 185.803 34.8157 185.472C34.6807 185.141 34.6414 184.778 34.7024 184.426C34.7633 184.073 34.9221 183.745 35.1605 183.478C35.399 183.211 35.7075 183.017 36.0511 182.917Z" fill="#FFCD7B"/>
<path d="M138.73 78.1165C140.41 76.936 142.332 76.144 144.356 75.7977C146.38 75.4513 148.455 75.5594 150.433 76.1141C151.823 76.4728 153.128 77.1077 154.269 77.9809C155.409 78.8541 156.362 79.9478 157.072 81.197C157.781 82.4462 158.231 83.8252 158.397 85.2521C158.562 86.679 158.439 88.1246 158.034 89.5028C156.274 96.1207 148.396 102.404 131.523 105.206C118.302 94.3884 114.554 85.0277 116.314 78.4098C116.65 77.0125 117.263 75.6969 118.116 74.5408C118.97 73.3847 120.047 72.4117 121.283 71.6794C122.52 70.9471 123.891 70.4704 125.315 70.2775C126.739 70.0846 128.187 70.1795 129.574 70.5565C131.565 71.0597 133.419 71.999 135.002 73.3065C136.586 74.6139 137.859 76.2568 138.73 78.1165Z" fill="#FF8D7F"/>
<path d="M86.989 67.149C91.9499 69.3906 97.0332 71.3507 102.215 73.0198C103.788 73.5378 106.341 74.8508 107.86 73.8545C108.247 73.6463 108.54 73.2981 108.678 72.8812C108.816 72.4643 108.789 72.0104 108.604 71.6124C107.872 69.9393 105.346 69.695 103.776 69.1864C99.0198 67.6453 93.6049 65.6639 88.3011 63.3589C87.7985 63.1849 87.2473 63.2177 86.7689 63.4501C86.2905 63.6825 85.924 64.0953 85.75 64.5979C85.576 65.1006 85.6088 65.6517 85.8411 66.1301C86.0735 66.6085 86.4864 66.975 86.989 67.149Z" fill="#FF8D7F"/>
<path d="M163.214 105.296C165.501 106.077 167.803 106.81 170.099 107.556C172.395 108.302 174.776 109.484 177.072 109.395C177.446 109.411 177.815 109.305 178.125 109.094C178.434 108.883 178.667 108.578 178.789 108.224C178.911 107.869 178.916 107.485 178.802 107.128C178.688 106.771 178.463 106.461 178.158 106.242C176.289 104.769 173.627 104.371 171.42 103.668C169.213 102.966 166.822 102.189 164.51 101.491C162.199 100.792 160.737 104.454 163.189 105.284L163.214 105.296Z" fill="#FF8D7F"/>
<path d="M98.4382 104.071C102.893 100.166 106.884 99.8132 110.161 98.8274C110.541 98.7467 110.879 98.5322 111.114 98.223C111.349 97.9138 111.465 97.5304 111.441 97.1428C111.418 96.7552 111.255 96.3891 110.984 96.1111C110.713 95.8332 110.35 95.662 109.963 95.6287C104.91 94.8238 99.4227 97.8142 95.7818 101.071C93.864 102.785 96.495 105.773 98.4382 104.071Z" fill="#FF8D7F"/>
<path d="M120.977 124.804C121.638 122.415 122.792 120.19 124.363 118.273C125.343 117.092 129.313 114.209 126.836 112.627C124.359 111.044 121.789 114.864 120.613 116.43C119.03 118.545 117.86 120.94 117.165 123.489C116.487 125.983 120.271 127.308 120.977 124.804Z" fill="#FF8D7F"/>
<path d="M145.152 116.688C146.128 118.024 147.126 119.362 148.076 120.717C149.027 122.072 149.829 123.795 151.62 123.995C152.077 124.021 152.527 123.869 152.874 123.571C153.221 123.272 153.439 122.851 153.482 122.395C153.785 120.78 152.051 119.207 151.155 117.981C150.26 116.755 149.185 115.316 148.209 113.98C147.848 113.579 147.343 113.336 146.804 113.303C146.265 113.271 145.734 113.451 145.327 113.805C144.932 114.171 144.694 114.675 144.661 115.212C144.629 115.748 144.804 116.277 145.152 116.688Z" fill="#FF8D7F"/>
<path d="M127.525 58.9013C126.47 45.5839 126.577 45.5577 125.953 44.26C125.792 43.958 125.547 43.7089 125.248 43.5424C124.949 43.3759 124.608 43.2992 124.267 43.3215C123.925 43.3437 123.597 43.4639 123.322 43.6678C123.047 43.8716 122.837 44.1504 122.716 44.4707C122.238 45.9137 122.331 45.6599 123.506 59.6973C123.619 60.2306 123.936 60.6985 124.389 61.0013C124.842 61.3041 125.396 61.4178 125.932 61.3181C126.465 61.2025 126.933 60.8848 127.237 60.4317C127.541 59.9787 127.657 59.4255 127.562 58.8883L127.525 58.9013Z" fill="#FF8D7F"/>
<path d="M148.506 65.5901C149.903 63.9028 151.115 62.07 152.119 60.1235C153.049 58.3036 154.728 55.6457 153.381 53.7185C153.202 53.5094 152.97 53.3528 152.709 53.2653C152.448 53.1779 152.169 53.1628 151.9 53.2218C149.909 53.7983 149.395 56.5223 148.52 58.1963C147.56 60.0125 146.444 61.7424 145.186 63.3664C145.026 63.584 144.912 63.8317 144.85 64.0946C144.788 64.3576 144.781 64.6303 144.827 64.8963C144.874 65.1623 144.974 65.4162 145.121 65.6426C145.268 65.8689 145.46 66.0631 145.684 66.2134C145.909 66.3637 146.161 66.467 146.427 66.517C146.692 66.567 146.965 66.5628 147.229 66.5046C147.492 66.4463 147.741 66.3353 147.961 66.1781C148.181 66.0209 148.366 65.8209 148.506 65.5901Z" fill="#FF8D7F"/>
<path d="M177.445 77.1418C177.692 76.7551 177.78 76.288 177.69 75.838C177.601 75.388 177.342 74.9899 176.966 74.7266C175.581 73.584 173.011 74.4437 171.429 74.7954C169.59 75.2179 167.788 75.7862 166.039 76.4948C165.8 76.6116 165.587 76.7748 165.412 76.9749C165.238 77.1749 165.104 77.4078 165.021 77.66C164.937 77.9121 164.904 78.1784 164.924 78.4434C164.944 78.7083 165.017 78.9666 165.138 79.203C165.389 79.6684 165.808 80.0209 166.309 80.1888C166.81 80.3567 167.357 80.3274 167.837 80.1069C174.569 77.6941 175.877 79.0746 177.445 77.1418Z" fill="#FF8D7F"/>
<path d="M201.319 159.046C193.206 167.207 197.094 181.636 205.913 187.535C215.658 194.037 229.366 192.489 237.726 184.433C246.789 175.714 246.944 163.304 238.374 155.479C230.009 147.913 218.189 151.456 214.592 161.442C212.019 168.614 215.613 174.782 219.478 175.233C222.485 175.587 224.754 172.367 222.684 169.906C222.26 169.449 221.713 169.124 221.109 168.971C220.505 168.818 219.87 168.843 219.28 169.042C217.763 166.497 218.75 160.926 223.457 157.727C229.456 153.641 236.639 158.653 238.966 164.516C241.928 171.957 237.404 179.639 231.104 183.68C224.489 187.913 215.181 188.08 208.579 183.714C204.982 181.293 202.479 177.557 201.607 173.31C200.734 169.063 201.562 164.644 203.913 161C204.172 160.656 204.284 160.224 204.224 159.797C204.164 159.371 203.937 158.985 203.593 158.726C203.249 158.467 202.816 158.355 202.39 158.415C201.963 158.475 201.578 158.702 201.319 159.046Z" fill="#70B2F5"/>
</g>
<defs>
<clipPath id="clip0_604_33">
<rect width="258.77" height="174.52" fill="white" transform="translate(0 83.8966) rotate(-18.9179)"/>
</clipPath>
</defs>
</svg>
