<svg width="259" height="175" viewBox="0 0 259 175" fill="none" xmlns="http://www.w3.org/2000/svg">
<g opacity="0.3" clip-path="url(#clip0_604_18)">
<path d="M230.77 66.39L229.41 55.05L239.32 48.94L236.89 36.32L249.46 33.07L247.34 18.69L258.55 14.27L258.77 0.1L253.41 0L253.24 10.59L241.41 15.26L243.45 29.08L230.67 32.39L233.35 46.31L223.67 52.27L224.94 62.79L217.76 65.38L219.59 70.42L230.77 66.39Z" fill="#00C0A5"/>
<path d="M2.00006 105.36L15.9101 105.99L24.3301 94.89C24.5451 94.6042 24.8361 94.3845 25.1699 94.256C25.5036 94.1275 25.8668 94.0952 26.218 94.163C26.5692 94.2307 26.8943 94.3957 27.1563 94.6392C27.4183 94.8826 27.6067 95.1947 27.7001 95.54L31.4001 109L44.5601 113.57C44.9026 113.684 45.2059 113.893 45.4352 114.172C45.6645 114.451 45.8106 114.789 45.8565 115.147C45.9025 115.505 45.8465 115.869 45.695 116.197C45.5435 116.524 45.3026 116.803 45.0001 117L33.3701 124.67L33.0801 138.6C33.0605 138.948 32.9461 139.284 32.7492 139.571C32.5524 139.859 32.2807 140.087 31.9634 140.231C31.6462 140.376 31.2956 140.43 30.9495 140.39C30.6034 140.349 30.2751 140.214 30.0001 140L19.1201 131.31L5.79006 135.31C5.44848 135.415 5.08419 135.423 4.73859 135.331C4.393 135.24 4.07999 135.054 3.83516 134.793C3.59032 134.533 3.42349 134.209 3.35365 133.858C3.2838 133.508 3.31374 133.144 3.44006 132.81L8.35006 119.81L0.350058 108.37C0.143624 108.078 0.0234011 107.734 0.00308334 107.376C-0.0172344 107.019 0.06317 106.663 0.235138 106.35C0.407105 106.036 0.663722 105.777 0.975758 105.602C1.28779 105.427 1.6427 105.343 2.00006 105.36Z" fill="#FFCD7B"/>
<path d="M133.11 39.5101C135.082 38.9381 137.157 38.8119 139.184 39.1405C141.211 39.4691 143.14 40.2443 144.83 41.4101C146.03 42.2004 147.058 43.2239 147.854 44.4197C148.649 45.6155 149.197 46.9592 149.463 48.3709C149.728 49.7825 149.708 51.2332 149.401 52.6366C149.095 54.04 148.51 55.3675 147.68 56.5401C143.87 62.2301 134.38 65.6201 117.51 62.8001C108.51 48.2801 108 38.2101 111.81 32.5201C112.581 31.3072 113.587 30.2613 114.77 29.4444C115.952 28.6275 117.286 28.0562 118.693 27.7644C120.1 27.4725 121.552 27.466 122.961 27.7452C124.371 28.0245 125.71 28.5838 126.9 29.3901C128.62 30.5115 130.07 32.0012 131.144 33.7514C132.218 35.5016 132.889 37.4685 133.11 39.5101Z" fill="#FF8D7F"/>
<path d="M87.72 12.3599C91.6861 16.0888 95.8594 19.5911 100.22 22.8499C101.54 23.8499 103.53 25.9199 105.29 25.4699C105.723 25.3984 106.113 25.1638 106.379 24.8142C106.645 24.4647 106.767 24.0266 106.72 23.5899C106.57 21.7699 104.26 20.7199 102.94 19.7299C98.94 16.7299 94.46 13.0999 90.19 9.19994C89.771 8.8724 89.239 8.72474 88.711 8.78944C88.1831 8.85414 87.7025 9.1259 87.375 9.54494C87.0475 9.96398 86.8998 10.496 86.9645 11.0239C87.0292 11.5518 87.301 12.0324 87.72 12.3599Z" fill="#FF8D7F"/>
<path d="M147.46 73.16C149.37 74.64 151.31 76.0799 153.24 77.5299C155.17 78.9799 157.04 80.87 159.24 81.53C159.589 81.6661 159.973 81.686 160.334 81.5867C160.695 81.4873 161.015 81.2741 161.245 80.9787C161.475 80.6832 161.604 80.3213 161.612 79.9468C161.62 79.5723 161.507 79.2051 161.29 78.9C160 76.9 157.61 75.6599 155.75 74.2799C153.89 72.8999 151.88 71.39 149.92 69.98C147.96 68.57 145.39 71.56 147.44 73.14L147.46 73.16Z" fill="#FF8D7F"/>
<path d="M86.58 51C92.06 48.75 95.95 49.71 99.37 49.84C99.7556 49.8868 100.145 49.7936 100.468 49.5773C100.79 49.361 101.024 49.036 101.127 48.6615C101.23 48.287 101.195 47.888 101.029 47.5372C100.862 47.1863 100.575 46.907 100.22 46.75C95.7 44.35 89.54 45.4 85.04 47.3C82.67 48.3 84.19 51.98 86.58 51Z" fill="#FF8D7F"/>
<path d="M101.18 77.9199C102.58 75.8743 104.392 74.1439 106.5 72.8399C107.81 72.0399 112.5 70.5999 110.67 68.2999C108.84 65.9999 105.17 68.7799 103.55 69.8799C101.367 71.3676 99.4838 73.254 98 75.4399C96.55 77.5799 99.7 80.0599 101.18 77.9199Z" fill="#FF8D7F"/>
<path d="M126.68 78.08C127.17 79.66 127.68 81.25 128.14 82.84C128.6 84.43 128.8 86.32 130.43 87.09C130.854 87.2626 131.328 87.2642 131.753 87.0945C132.178 86.9248 132.521 86.5971 132.71 86.18C133.52 84.75 132.39 82.7 131.94 81.25C131.49 79.8 130.94 78.09 130.45 76.51C130.238 76.0132 129.839 75.6196 129.34 75.4139C128.841 75.2081 128.28 75.2067 127.78 75.41C127.288 75.628 126.9 76.0272 126.695 76.5245C126.49 77.0218 126.485 77.5789 126.68 78.08Z" fill="#FF8D7F"/>
<path d="M128.74 17.7001C132.06 4.76005 132.17 4.77005 132 3.34005C131.946 3.00214 131.795 2.68709 131.566 2.43265C131.337 2.17821 131.039 1.99518 130.709 1.90548C130.379 1.81577 130.03 1.82321 129.703 1.92689C129.377 2.03057 129.088 2.2261 128.87 2.49005C127.95 3.70005 128.12 3.49005 124.68 17.1501C124.614 17.6912 124.762 18.2367 125.093 18.6701C125.424 19.1035 125.911 19.3906 126.45 19.4701C126.992 19.5335 127.537 19.3846 127.972 19.0545C128.406 18.7245 128.696 18.2391 128.78 17.7001H128.74Z" fill="#FF8D7F"/>
<path d="M146.42 30.8299C148.288 29.6867 150.028 28.3456 151.61 26.8299C153.08 25.4099 155.53 23.4399 154.88 21.1799C154.779 20.9242 154.61 20.7008 154.391 20.5335C154.173 20.3662 153.913 20.2613 153.64 20.2299C151.57 20.1299 150.2 22.5399 148.83 23.8399C147.333 25.2468 145.717 26.5215 144 27.6499C143.778 27.8039 143.59 28.0011 143.446 28.2298C143.302 28.4586 143.206 28.714 143.164 28.9808C143.122 29.2475 143.134 29.5201 143.2 29.782C143.266 30.0439 143.385 30.2897 143.548 30.5046C143.712 30.7195 143.917 30.8991 144.152 31.0325C144.387 31.1659 144.646 31.2503 144.915 31.2807C145.183 31.3111 145.455 31.2869 145.713 31.2094C145.972 31.1319 146.212 31.0028 146.42 30.8299Z" fill="#FF8D7F"/>
<path d="M170.05 51.1399C170.409 50.8541 170.643 50.4408 170.705 49.9862C170.766 49.5316 170.65 49.0708 170.38 48.6999C169.44 47.1699 166.73 47.1499 165.12 46.9699C163.243 46.7735 161.354 46.7266 159.47 46.8299C159.206 46.8631 158.952 46.9484 158.722 47.081C158.491 47.2136 158.29 47.3907 158.129 47.602C157.968 47.8134 157.85 48.0547 157.784 48.3119C157.717 48.569 157.702 48.837 157.74 49.0999C157.826 49.6215 158.108 50.0907 158.528 50.412C158.948 50.7334 159.474 50.8828 160 50.8299C167.15 50.7299 167.94 52.4599 170.05 51.1399Z" fill="#FF8D7F"/>
<path d="M166.08 136.36C155.76 141.45 154.76 156.36 161.19 164.8C168.3 174.11 181.77 177.09 192.29 172.18C203.69 166.87 207.86 155.18 202.29 145C196.83 135.13 184.5 134.65 177.86 142.93C173.1 148.88 174.5 155.88 178.01 157.56C180.74 158.87 183.93 156.56 182.77 153.56C182.517 152.99 182.105 152.506 181.584 152.166C181.062 151.825 180.453 151.642 179.83 151.64C179.22 148.74 181.96 143.79 187.45 142.29C194.45 140.37 199.62 147.44 199.92 153.74C200.31 161.74 193.54 167.54 186.27 169.32C178.64 171.18 169.78 168.32 164.95 162.05C162.333 158.593 161.176 154.248 161.728 149.947C162.279 145.647 164.495 141.734 167.9 139.05C168.257 138.809 168.503 138.435 168.585 138.013C168.666 137.59 168.576 137.152 168.335 136.795C168.094 136.438 167.721 136.192 167.298 136.11C166.875 136.029 166.437 136.119 166.08 136.36Z" fill="#70B2F5"/>
</g>
<defs>
<clipPath id="clip0_604_18">
<rect width="258.77" height="174.52" fill="white"/>
</clipPath>
</defs>
</svg>
