<svg width="80" height="81" viewBox="0 0 80 81" fill="none" xmlns="http://www.w3.org/2000/svg">
<g id="arrow">
<g id="Ellipse 4" filter="url(#filter0_d_605_127)">
<circle cx="30" cy="30" r="30" transform="matrix(-1 0 0 1 70 1.46094)" fill="#FFF0E3"/>
<circle cx="30" cy="30" r="30" transform="matrix(-1 0 0 1 70 1.46094)" fill="url(#paint0_linear_605_127)"/>
<circle cx="30" cy="30" r="29" transform="matrix(-1 0 0 1 70 1.46094)" stroke="url(#paint1_linear_605_127)" stroke-width="2"/>
</g>
<path id="Polygon 1" d="M29.7457 29.9491C28.8248 30.7466 28.8248 32.1753 29.7457 32.9728L42.6907 44.1835C43.986 45.3052 46 44.3851 46 42.6716L46 20.2503C46 18.5368 43.986 17.6167 42.6907 18.7384L29.7457 29.9491Z" fill="#D07CC6"/>
</g>
<defs>
<filter id="filter0_d_605_127" x="0" y="0.460938" width="80" height="80" filterUnits="userSpaceOnUse" color-interpolation-filters="sRGB">
<feFlood flood-opacity="0" result="BackgroundImageFix"/>
<feColorMatrix in="SourceAlpha" type="matrix" values="0 0 0 0 0 0 0 0 0 0 0 0 0 0 0 0 0 0 127 0" result="hardAlpha"/>
<feOffset dy="9"/>
<feGaussianBlur stdDeviation="5"/>
<feColorMatrix type="matrix" values="0 0 0 0 0.966667 0 0 0 0 0.83526 0 0 0 0 0.733056 0 0 0 0.51 0"/>
<feBlend mode="multiply" in2="BackgroundImageFix" result="effect1_dropShadow_605_127"/>
<feBlend mode="normal" in="SourceGraphic" in2="effect1_dropShadow_605_127" result="shape"/>
</filter>
<linearGradient id="paint0_linear_605_127" x1="30" y1="0" x2="30" y2="60" gradientUnits="userSpaceOnUse">
<stop stop-color="#FFF8F2"/>
<stop offset="1" stop-color="white" stop-opacity="0"/>
</linearGradient>
<linearGradient id="paint1_linear_605_127" x1="30.0486" y1="57.884" x2="30.0486" y2="14.7547" gradientUnits="userSpaceOnUse">
<stop stop-color="#EDD3D0" stop-opacity="0.71"/>
<stop offset="1" stop-color="white" stop-opacity="0"/>
</linearGradient>
</defs>
</svg>
