<svg width="200" height="60" viewBox="0 0 200 60" fill="none" xmlns="http://www.w3.org/2000/svg">
<g filter="url(#filter0_i_605_1011)">
<path d="M33.0807 1.40343C11.382 2.58072 0 14.8722 0 27.2757C0 42.3142 1.57597 53.9049 15.9202 58.6981C27.0103 62.4122 55.7134 56.8201 90.3409 56.9742C136.861 57.1704 168.191 59.469 177.661 59.9735C204.73 61.375 210.727 6.71524 175.764 2.67883C144.376 -0.881067 67.8104 -0.446592 33.0807 1.40343Z" fill="url(#paint0_linear_605_1011)"/>
</g>
<path d="M50.3824 26.24C50.3824 22.48 49.0384 20.6 46.3504 20.6C43.6624 20.6 42.3184 22.48 42.3184 26.24C42.3184 30 43.6624 31.88 46.3504 31.88C49.0384 31.88 50.3824 30 50.3824 26.24ZM52.3504 32.864C50.8784 34.448 48.8784 35.24 46.3504 35.24C43.8224 35.24 41.8224 34.448 40.3504 32.864C38.8784 31.264 38.1424 29.056 38.1424 26.24C38.1424 23.424 38.8784 21.224 40.3504 19.64C41.8224 18.04 43.8224 17.24 46.3504 17.24C48.8784 17.24 50.8784 18.04 52.3504 19.64C53.8224 21.224 54.5584 23.424 54.5584 26.24C54.5584 29.056 53.8224 31.264 52.3504 32.864ZM57.5367 25.448C57.1687 25.448 56.8487 25.312 56.5767 25.04C56.3047 24.768 56.1687 24.448 56.1687 24.08V23.888C56.1687 23.52 56.3047 23.2 56.5767 22.928C56.8487 22.656 57.1687 22.52 57.5367 22.52H66.2247C66.5927 22.52 66.9127 22.656 67.1847 22.928C67.4567 23.2 67.5927 23.52 67.5927 23.888V24.08C67.5927 24.448 67.4567 24.768 67.1847 25.04C66.9127 25.312 66.5927 25.448 66.2247 25.448H64.0887C63.9607 25.448 63.8967 25.52 63.8967 25.664V33.632C63.8967 34 63.7607 34.32 63.4887 34.592C63.2167 34.864 62.8967 35 62.5287 35H61.2327C60.8647 35 60.5447 34.864 60.2727 34.592C60.0007 34.32 59.8647 34 59.8647 33.632V25.664C59.8647 25.52 59.8007 25.448 59.6727 25.448H57.5367ZM71.4051 35C71.0371 35 70.7171 34.864 70.4451 34.592C70.1731 34.32 70.0371 34 70.0371 33.632V23.888C70.0371 23.52 70.1731 23.2 70.4451 22.928C70.7171 22.656 71.0371 22.52 71.4051 22.52H80.0451C80.4131 22.52 80.7331 22.656 81.0051 22.928C81.2771 23.2 81.4131 23.52 81.4131 23.888V33.632C81.4131 34 81.2771 34.32 81.0051 34.592C80.7331 34.864 80.4131 35 80.0451 35H78.8451C78.4771 35 78.1571 34.864 77.8851 34.592C77.6131 34.32 77.4771 34 77.4771 33.632V25.544C77.4771 25.416 77.4131 25.352 77.2851 25.352H74.1651C74.0371 25.352 73.9731 25.416 73.9731 25.544V33.632C73.9731 34 73.8371 34.32 73.5651 34.592C73.2931 34.864 72.9731 35 72.6051 35H71.4051ZM88.3838 27.272V30.248C88.3838 30.776 88.6238 31.264 89.1038 31.712C89.5998 32.144 90.1598 32.36 90.7838 32.36C91.5198 32.36 92.1038 32.064 92.5358 31.472C92.9678 30.864 93.1838 29.96 93.1838 28.76C93.1838 26.36 92.3838 25.16 90.7838 25.16C90.1598 25.16 89.5998 25.384 89.1038 25.832C88.6238 26.264 88.3838 26.744 88.3838 27.272ZM85.9598 40.28C85.5918 40.28 85.2718 40.144 84.9998 39.872C84.7278 39.6 84.5918 39.28 84.5918 38.912V23.888C84.5918 23.52 84.7278 23.2 84.9998 22.928C85.2718 22.656 85.5918 22.52 85.9598 22.52H86.9198C87.3038 22.52 87.6318 22.656 87.9038 22.928C88.1758 23.184 88.3198 23.504 88.3358 23.888V24.08C88.3358 24.096 88.3438 24.104 88.3598 24.104L88.4078 24.056C89.4318 22.872 90.6638 22.28 92.1038 22.28C93.5918 22.28 94.7758 22.84 95.6558 23.96C96.5518 25.08 96.9998 26.68 96.9998 28.76C96.9998 30.776 96.5358 32.36 95.6078 33.512C94.6958 34.664 93.5278 35.24 92.1038 35.24C90.7758 35.24 89.5918 34.752 88.5518 33.776C88.5358 33.76 88.5198 33.752 88.5038 33.752C88.4878 33.752 88.4798 33.76 88.4798 33.776V38.912C88.4798 39.28 88.3438 39.6 88.0718 39.872C87.7998 40.144 87.4798 40.28 87.1118 40.28H85.9598ZM105.331 29.288C103.379 29.288 102.403 29.888 102.403 31.088C102.403 31.52 102.531 31.864 102.787 32.12C103.043 32.36 103.387 32.48 103.819 32.48C104.587 32.48 105.211 32.24 105.691 31.76C106.171 31.264 106.411 30.608 106.411 29.792V29.504C106.411 29.36 106.339 29.288 106.195 29.288H105.331ZM102.643 35.24C101.539 35.24 100.627 34.888 99.9072 34.184C99.2032 33.464 98.8512 32.536 98.8512 31.4C98.8512 28.488 101.011 27.032 105.331 27.032H106.195C106.339 27.032 106.411 26.968 106.411 26.84V26.72C106.411 26.112 106.251 25.672 105.931 25.4C105.627 25.128 105.107 24.992 104.371 24.992C103.395 24.992 102.227 25.144 100.867 25.448C100.531 25.512 100.227 25.44 99.9552 25.232C99.6992 25.024 99.5712 24.752 99.5712 24.416V24.368C99.5712 23.968 99.6912 23.608 99.9312 23.288C100.187 22.952 100.507 22.752 100.891 22.688C102.299 22.416 103.515 22.28 104.539 22.28C106.635 22.28 108.115 22.656 108.979 23.408C109.859 24.16 110.299 25.408 110.299 27.152V33.632C110.299 34 110.163 34.32 109.891 34.592C109.619 34.864 109.299 35 108.931 35H108.043C107.659 35 107.331 34.872 107.059 34.616C106.787 34.344 106.643 34.016 106.627 33.632V33.368C106.627 33.352 106.619 33.344 106.603 33.344C106.571 33.344 106.555 33.352 106.555 33.368C105.547 34.616 104.243 35.24 102.643 35.24ZM117.214 29.888V32.456C117.214 32.616 117.286 32.696 117.43 32.696C117.542 32.712 117.71 32.72 117.934 32.72C119.454 32.72 120.214 32.184 120.214 31.112C120.214 30.152 119.462 29.672 117.958 29.672H117.43C117.286 29.672 117.214 29.744 117.214 29.888ZM117.214 25.064V27.152C117.214 27.28 117.286 27.344 117.43 27.344H117.862C118.47 27.344 118.95 27.224 119.302 26.984C119.654 26.744 119.83 26.416 119.83 26C119.83 25.2 119.19 24.8 117.91 24.8C117.686 24.8 117.526 24.808 117.43 24.824C117.286 24.824 117.214 24.904 117.214 25.064ZM114.718 35.048C114.334 35.016 114.006 34.856 113.734 34.568C113.478 34.28 113.35 33.944 113.35 33.56V23.96C113.35 23.576 113.478 23.24 113.734 22.952C114.006 22.664 114.334 22.504 114.718 22.472C115.726 22.392 116.678 22.352 117.574 22.352C121.478 22.352 123.43 23.416 123.43 25.544C123.43 26.264 123.166 26.88 122.638 27.392C122.11 27.888 121.39 28.208 120.478 28.352V28.376C120.478 28.392 120.486 28.4 120.502 28.4C121.558 28.528 122.39 28.872 122.998 29.432C123.606 29.976 123.91 30.632 123.91 31.4C123.91 32.648 123.422 33.592 122.446 34.232C121.486 34.856 119.926 35.168 117.766 35.168C116.822 35.168 115.806 35.128 114.718 35.048ZM127.725 35C127.357 35 127.037 34.864 126.765 34.592C126.493 34.32 126.357 34 126.357 33.632V23.888C126.357 23.52 126.493 23.2 126.765 22.928C127.037 22.656 127.357 22.52 127.725 22.52H128.853C129.221 22.52 129.541 22.656 129.813 22.928C130.085 23.2 130.221 23.52 130.221 23.888V29.696H130.245H130.269L133.221 23.744C133.621 22.928 134.277 22.52 135.189 22.52H136.365C136.733 22.52 137.053 22.656 137.325 22.928C137.597 23.2 137.733 23.52 137.733 23.888V33.632C137.733 34 137.597 34.32 137.325 34.592C137.053 34.864 136.733 35 136.365 35H135.237C134.869 35 134.549 34.864 134.277 34.592C134.005 34.32 133.869 34 133.869 33.632V27.824H133.845H133.821L130.869 33.776C130.469 34.592 129.813 35 128.901 35H127.725ZM141.56 25.448C141.192 25.448 140.872 25.312 140.6 25.04C140.328 24.768 140.192 24.448 140.192 24.08V23.888C140.192 23.52 140.328 23.2 140.6 22.928C140.872 22.656 141.192 22.52 141.56 22.52H150.248C150.616 22.52 150.936 22.656 151.208 22.928C151.48 23.2 151.616 23.52 151.616 23.888V24.08C151.616 24.448 151.48 24.768 151.208 25.04C150.936 25.312 150.616 25.448 150.248 25.448H148.112C147.984 25.448 147.92 25.52 147.92 25.664V33.632C147.92 34 147.784 34.32 147.512 34.592C147.24 34.864 146.92 35 146.552 35H145.256C144.888 35 144.568 34.864 144.296 34.592C144.024 34.32 143.888 34 143.888 33.632V25.664C143.888 25.52 143.824 25.448 143.696 25.448H141.56ZM157.901 28.736V32.168C157.901 32.328 157.957 32.416 158.069 32.432C158.309 32.496 158.581 32.528 158.885 32.528C159.685 32.528 160.269 32.352 160.637 32C161.005 31.648 161.189 31.104 161.189 30.368C161.189 29.744 160.989 29.264 160.589 28.928C160.205 28.576 159.629 28.4 158.861 28.4C158.669 28.4 158.413 28.432 158.093 28.496C157.965 28.528 157.901 28.608 157.901 28.736ZM155.381 35.072C154.997 35.024 154.677 34.856 154.421 34.568C154.181 34.264 154.061 33.912 154.061 33.512V23.888C154.061 23.52 154.189 23.2 154.445 22.928C154.717 22.656 155.037 22.52 155.405 22.52H156.533C156.901 22.52 157.221 22.656 157.493 22.928C157.765 23.2 157.901 23.52 157.901 23.888V25.616C157.901 25.664 157.917 25.712 157.949 25.76C157.981 25.792 158.021 25.8 158.069 25.784C158.453 25.72 158.917 25.688 159.461 25.688C161.173 25.688 162.501 26.112 163.445 26.96C164.389 27.792 164.861 28.928 164.861 30.368C164.861 32.016 164.349 33.24 163.325 34.04C162.301 34.84 160.693 35.24 158.501 35.24C157.365 35.24 156.325 35.184 155.381 35.072Z" fill="white"/>
<defs>
<filter id="filter0_i_605_1011" x="0" y="0" width="200" height="60" filterUnits="userSpaceOnUse" color-interpolation-filters="sRGB">
<feFlood flood-opacity="0" result="BackgroundImageFix"/>
<feBlend mode="normal" in="SourceGraphic" in2="BackgroundImageFix" result="shape"/>
<feColorMatrix in="SourceAlpha" type="matrix" values="0 0 0 0 0 0 0 0 0 0 0 0 0 0 0 0 0 0 127 0" result="hardAlpha"/>
<feOffset dx="4" dy="-5"/>
<feComposite in2="hardAlpha" operator="arithmetic" k2="-1" k3="1"/>
<feColorMatrix type="matrix" values="0 0 0 0 1 0 0 0 0 0.801587 0 0 0 0 0.75 0 0 0 0.68 0"/>
<feBlend mode="normal" in2="shape" result="effect1_innerShadow_605_1011"/>
</filter>
<linearGradient id="paint0_linear_605_1011" x1="5.56263e-06" y1="-23.1253" x2="151.157" y2="60.4126" gradientUnits="userSpaceOnUse">
<stop stop-color="#FFB1A4"/>
<stop offset="1" stop-color="#FF5F4E"/>
</linearGradient>
</defs>
</svg>
