<svg width="1920" height="488" viewBox="0 0 1920 488" fill="none" xmlns="http://www.w3.org/2000/svg">
<path d="M540.56 202.66C542.46 202.66 545.83 200.22 547.38 199.32C549.701 197.995 551.924 196.505 554.03 194.86C557.03 192.46 558.61 189.86 560.35 186.77C562.52 182.85 566.29 180.01 569.75 176.97L582.49 165.77C586.49 162.21 590.55 158.63 594.62 155.1C595.749 153.926 597.275 153.213 598.9 153.1C609.34 151.72 619.99 151.96 630.51 152.23C632.02 147.57 628.24 142.14 622.81 141.18C617.38 140.22 611.47 143.93 610.81 148.73C613.19 142.82 606.57 136.35 599.43 135.87C592.29 135.39 585.62 139.23 580.84 143.87C582.71 139.87 584.62 135.8 584.44 131.51C584.26 127.22 581.44 122.72 576.66 121.64C571.88 120.56 566.23 124.64 567.74 128.74C568.938 124.997 569.26 121.028 568.681 117.141C568.102 113.254 566.637 109.551 564.4 106.32C562.92 104.13 560.63 100.14 558.2 98.64C557.403 98.2481 556.535 98.0212 555.649 97.9731C554.762 97.925 553.875 98.0566 553.04 98.36C546.35 100.24 543.04 109.36 548.58 113.72C546.36 108.83 540.58 98.72 533.51 98.42C524.51 98.06 521.37 109.27 522.36 115.12C523.23 120.27 523.73 125.41 525.27 130.47C525.47 127.11 521.84 123.97 517.99 124.18C514.14 124.39 510.99 127.9 511.66 131.18C513.53 126.05 509.41 119.91 503.39 118.83C497.37 117.75 490.82 121.99 490.24 127.34C493.94 119.98 484.52 111.28 475.39 112.25C466.26 113.22 459.62 121.02 458.29 128.98C459.596 127.047 460.178 124.715 459.933 122.396C459.688 120.076 458.631 117.917 456.95 116.3C455.019 114.596 452.652 113.464 450.113 113.031C447.575 112.599 444.966 112.882 442.58 113.85C447.47 113.45 451.09 108.48 449.44 104.44C447.79 100.4 440.51 94.84 436.44 97.25C442.84 95.2 445.19 86.97 440.65 82.52C436.11 78.07 426.5 79.18 423.44 84.52C422.89 79.6 421.13 74.35 416.51 71.52C411.89 68.69 403.94 70.08 402.7 74.89C400.98 71.08 394.25 71.03 390.87 73.89C387.49 76.75 382.63 79.28 381.87 83.32C379.3 81.41 378.46 78.32 377.21 75.59C375.96 72.86 373.62 69.98 370.21 69.89C368.925 69.9206 367.673 70.3044 366.592 70.9994C365.511 71.6944 364.642 72.6737 364.08 73.83C363.02 75.99 363.19 76.83 363.16 79.21C363.77 71.67 357.48 64.16 349.09 62.39C340.7 60.62 331.18 64.82 327.81 71.78C328.769 71.1645 329.576 70.3389 330.17 69.3657C330.763 68.3925 331.128 67.2972 331.235 66.1624C331.343 65.0277 331.192 63.8833 330.792 62.8157C330.393 61.7481 329.756 60.7853 328.93 60C325.39 56.8 318.6 57.1 315.44 60.6C321.2 59.75 323.21 52.34 319.44 48.48C315.67 44.62 308.49 44.41 303.37 46.86C298.25 49.31 294.83 53.79 292.22 58.35C297.96 48.82 303.85 38.72 303.35 27.95C302.85 17.18 293.35 5.94998 281.03 6.43998C273.95 6.71998 267.63 10.77 263.52 15.82C261.111 18.8953 259.136 22.287 257.65 25.9C256.88 27.67 256.29 29.51 255.5 31.28C255.13 32.11 254.7 32.88 254.38 33.71C253.33 36.43 251.96 42.83 253.13 45.58C248.46 34.58 238.89 25.21 226.9 19.93C222.58 18.03 217.46 16.64 212.99 18.24C207.88 20.08 205.42 25.12 204.04 29.79C199.602 45.1452 201.399 61.6311 209.04 75.67C204.45 69.67 199.53 63.48 192.14 60.32C187.723 58.4768 182.817 58.16 178.2 59.42C176.122 59.9775 174.2 61.0037 172.58 62.42C171.8 63.12 171.13 63.92 170.39 64.63C168.61 66.34 167.63 68.2 166.19 70.15C171.94 62.41 165.09 50.24 154.58 49.5C155.82 40.74 142.51 33.5 134.07 38.33C135.62 33.33 126.43 30.42 121.94 33.72C117.45 37.02 116.94 42.82 116.83 47.95C112.918 33.3522 106.008 19.7294 96.54 7.94998C93.61 4.28998 89.87 0.479986 84.79 0.0199861C77.9 -0.600014 72.59 5.11998 69.29 10.45C61.5074 22.9094 56.8487 37.0639 55.71 51.71C52.59 48.11 46.48 46.78 41.79 48.71C37.1 50.64 29.46 54.12 30.6 58.53C30.76 55.47 28.1 52.48 24.67 51.87C21.24 51.26 13.49 50.54 12.25 53.41C10.39 49.55 8.37 45.65 5.09 42.6C1.81 39.55 -2.99 37.45 -7.72 38.12C-12.45 38.79 -16.58 42.84 -15.72 46.96C-17.8 41.96 -24.22 37.43 -30.22 36.33C-33.48 29.48 -42.71 25.71 -51.13 26.57C-59.55 27.43 -66.98 32.19 -71.96 38.19C-76.94 44.19 -79.77 51.33 -82.05 58.48C-88.79 80.02 -104.05 97.8 -108.73 119.76C-111.73 133.95 -112.99 149.43 -105 162.06C-95 177.89 -73.45 184.85 -53.39 189.26C5.66 202.21 67.07 203.79 127.92 205.26C242.49 208.13 357.08 210.99 471.69 211.36C495.11 211.48 519.35 211.29 540.56 202.66Z" fill="url(#paint0_linear_605_90)"/>
<path d="M1446.22 204.236C1444.74 204.236 1442.12 202.343 1440.91 201.645C1439.11 200.618 1437.38 199.461 1435.74 198.185C1433.41 196.323 1432.18 194.306 1430.83 191.909C1429.14 188.868 1426.21 186.665 1423.52 184.307L1413.61 175.618C1410.5 172.857 1407.34 170.079 1404.17 167.341C1403.3 166.43 1402.11 165.877 1400.85 165.789C1392.73 164.719 1384.44 164.905 1376.26 165.115C1375.09 161.499 1378.03 157.287 1382.25 156.542C1386.47 155.798 1391.07 158.676 1391.58 162.399C1389.73 157.815 1394.88 152.795 1400.43 152.423C1405.99 152.051 1411.17 155.03 1414.89 158.629C1413.44 155.526 1411.95 152.369 1412.09 149.041C1412.23 145.713 1414.42 142.222 1418.14 141.384C1421.86 140.546 1426.25 143.711 1425.08 146.892C1424.15 143.988 1423.9 140.91 1424.35 137.894C1424.8 134.878 1425.94 132.006 1427.68 129.499C1428.83 127.8 1430.61 124.705 1432.5 123.541C1433.12 123.237 1433.79 123.061 1434.48 123.024C1435.17 122.987 1435.86 123.089 1436.51 123.324C1441.72 124.783 1444.29 131.858 1439.98 135.24C1441.71 131.446 1446.2 123.604 1451.7 123.371C1458.7 123.092 1461.14 131.788 1460.37 136.326C1459.7 140.321 1459.31 144.309 1458.11 148.234C1457.96 145.627 1460.78 143.192 1463.77 143.354C1466.77 143.517 1469.22 146.24 1468.7 148.785C1467.24 144.805 1470.45 140.042 1475.13 139.204C1479.81 138.366 1484.9 141.656 1485.36 145.806C1482.48 140.096 1489.8 133.347 1496.9 134.1C1504.01 134.852 1509.17 140.903 1510.2 147.078C1509.19 145.579 1508.74 143.77 1508.93 141.97C1509.12 140.17 1509.94 138.496 1511.25 137.241C1512.75 135.92 1514.59 135.042 1516.56 134.706C1518.54 134.37 1520.57 134.59 1522.42 135.341C1518.62 135.031 1515.8 131.175 1517.09 128.041C1518.37 124.907 1524.03 120.594 1527.2 122.463C1522.22 120.873 1520.39 114.488 1523.92 111.036C1527.45 107.584 1534.93 108.445 1537.31 112.588C1537.74 108.771 1539.11 104.698 1542.7 102.503C1546.29 100.307 1552.48 101.386 1553.44 105.117C1554.78 102.162 1560.01 102.123 1562.64 104.341C1565.27 106.56 1569.05 108.523 1569.64 111.657C1571.64 110.175 1572.29 107.778 1573.26 105.66C1574.24 103.542 1576.06 101.308 1578.71 101.238C1579.71 101.262 1580.68 101.56 1581.52 102.099C1582.36 102.638 1583.04 103.398 1583.48 104.295C1584.3 105.97 1584.17 106.622 1584.19 108.468C1583.72 102.619 1588.61 96.7932 1595.13 95.4201C1601.66 94.047 1609.06 97.3052 1611.69 102.705C1610.94 102.227 1610.31 101.587 1609.85 100.832C1609.39 100.077 1609.1 99.2269 1609.02 98.3467C1608.94 97.4664 1609.05 96.5786 1609.37 95.7504C1609.68 94.9222 1610.17 94.1753 1610.81 93.5661C1613.57 91.0836 1618.85 91.3164 1621.31 94.0315C1616.83 93.3721 1615.26 87.6237 1618.19 84.6293C1621.13 81.6349 1626.71 81.472 1630.69 83.3726C1634.68 85.2732 1637.34 88.7486 1639.37 92.2861C1634.9 84.8931 1630.32 77.0579 1630.71 68.7029C1631.1 60.348 1638.49 51.6362 1648.07 52.0163C1653.57 52.2335 1658.49 55.3753 1661.69 59.2929C1663.56 61.6786 1665.1 64.3098 1666.25 67.1126C1666.85 68.4857 1667.31 69.9131 1667.92 71.2862C1668.21 71.9301 1668.55 72.5274 1668.8 73.1713C1669.61 75.2814 1670.68 80.2462 1669.77 82.3796C1673.4 73.8462 1680.84 66.5773 1690.17 62.4813C1693.53 61.0074 1697.51 59.9291 1700.99 61.1703C1704.96 62.5977 1706.87 66.5075 1707.95 70.1303C1711.4 82.0423 1710 94.8315 1704.06 105.722C1707.63 101.068 1711.45 96.2657 1717.2 93.8143C1720.64 92.3844 1724.45 92.1387 1728.04 93.1161C1729.66 93.5486 1731.16 94.3447 1732.42 95.4434C1733.02 95.9864 1733.54 96.6071 1734.12 97.1578C1735.5 98.4844 1736.26 99.9273 1737.38 101.44C1732.91 95.4357 1738.24 85.9946 1746.41 85.4206C1745.45 78.6249 1755.8 73.0084 1762.37 76.7553C1761.16 72.8765 1768.31 70.6191 1771.8 73.1791C1775.29 75.7391 1775.69 80.2385 1775.77 84.2181C1778.82 72.8937 1784.19 62.3257 1791.56 53.1877C1793.83 50.3484 1796.74 47.3928 1800.69 47.0359C1806.05 46.5549 1810.18 50.9923 1812.75 55.1271C1818.8 64.7926 1822.43 75.7731 1823.31 87.135C1825.74 84.3423 1830.49 83.3105 1834.14 84.8077C1837.78 86.3049 1843.73 89.0046 1842.84 92.4257C1842.72 90.0519 1844.78 87.7323 1847.45 87.2591C1850.12 86.7859 1856.15 86.2274 1857.11 88.4538C1858.56 85.4594 1860.13 82.4339 1862.68 80.0678C1865.23 77.7018 1868.96 76.0727 1872.64 76.5924C1876.32 77.1122 1879.53 80.254 1878.87 83.4501C1880.48 79.5713 1885.48 76.0571 1890.14 75.2038C1892.68 69.8898 1899.86 66.9652 1906.41 67.6324C1912.95 68.2995 1918.73 71.9921 1922.61 76.6467C1926.48 81.3013 1928.68 86.8402 1930.45 92.3869C1935.7 109.097 1947.56 122.89 1951.2 139.926C1953.54 150.934 1954.52 162.942 1948.3 172.74C1940.53 185.021 1923.76 190.42 1908.16 193.841C1862.24 203.887 1814.48 205.113 1767.15 206.253C1678.04 208.48 1588.92 210.698 1499.78 210.985C1481.57 211.078 1462.72 210.931 1446.22 204.236Z" fill="url(#paint1_linear_605_90)"/>
<path d="M496.219 204.236C494.741 204.236 492.12 202.343 490.915 201.645C489.109 200.618 487.381 199.461 485.742 198.185C483.409 196.323 482.18 194.306 480.827 191.909C479.139 188.868 476.207 186.665 473.516 184.307L463.608 175.618C460.497 172.857 457.339 170.079 454.174 167.341C453.295 166.43 452.109 165.877 450.845 165.789C442.725 164.719 434.442 164.905 426.26 165.115C425.086 161.499 428.026 157.287 432.249 156.542C436.472 155.798 441.069 158.676 441.582 162.399C439.731 157.815 444.88 152.795 450.433 152.423C455.986 152.051 461.173 155.03 464.891 158.629C463.437 155.526 461.951 152.369 462.091 149.041C462.231 145.713 464.424 142.222 468.142 141.384C471.86 140.546 476.254 143.711 475.08 146.892C474.148 143.988 473.897 140.91 474.348 137.894C474.798 134.878 475.937 132.006 477.677 129.499C478.828 127.8 480.609 124.705 482.499 123.541C483.119 123.237 483.794 123.061 484.484 123.024C485.173 122.987 485.863 123.089 486.513 123.324C491.716 124.783 494.29 131.858 489.981 135.24C491.708 131.446 496.203 123.604 501.702 123.371C508.702 123.092 511.144 131.788 510.374 136.326C509.697 140.321 509.308 144.309 508.111 148.234C507.955 145.627 510.778 143.192 513.773 143.354C516.767 143.517 519.217 146.24 518.696 148.785C517.241 144.805 520.446 140.042 525.128 139.204C529.81 138.366 534.904 141.656 535.355 145.806C532.477 140.096 539.804 133.347 546.905 134.1C554.006 134.852 559.17 140.903 560.204 147.078C559.188 145.579 558.736 143.77 558.926 141.97C559.117 140.17 559.939 138.496 561.246 137.241C562.748 135.92 564.589 135.042 566.564 134.706C568.538 134.37 570.567 134.59 572.423 135.341C568.619 135.031 565.804 131.175 567.087 128.041C568.371 124.907 574.033 120.594 577.198 122.463C572.22 120.873 570.393 114.488 573.924 111.036C577.455 107.584 584.929 108.445 587.309 112.588C587.737 108.771 589.105 104.698 592.699 102.503C596.292 100.307 602.475 101.386 603.439 105.117C604.777 102.162 610.011 102.123 612.64 104.341C615.269 106.56 619.049 108.523 619.64 111.657C621.639 110.175 622.292 107.778 623.264 105.66C624.236 103.542 626.056 101.308 628.708 101.238C629.708 101.262 630.681 101.56 631.522 102.099C632.363 102.638 633.039 103.398 633.476 104.295C634.3 105.97 634.168 106.622 634.191 108.468C633.717 102.619 638.609 96.7932 645.134 95.4201C651.66 94.047 659.064 97.3052 661.685 102.705C660.939 102.227 660.311 101.587 659.85 100.832C659.388 100.077 659.105 99.2269 659.021 98.3467C658.937 97.4664 659.055 96.5786 659.365 95.7504C659.676 94.9222 660.171 94.1753 660.814 93.5661C663.567 91.0836 668.848 91.3164 671.306 94.0315C666.826 93.3721 665.263 87.6237 668.195 84.6293C671.127 81.6349 676.711 81.472 680.693 83.3726C684.675 85.2732 687.335 88.7486 689.365 92.2861C684.901 84.8931 680.32 77.0579 680.709 68.7029C681.098 60.348 688.486 51.6362 698.068 52.0163C703.575 52.2335 708.49 55.3753 711.686 59.2929C713.56 61.6786 715.096 64.3098 716.252 67.1126C716.851 68.4857 717.31 69.9131 717.924 71.2862C718.212 71.9301 718.546 72.5274 718.795 73.1713C719.612 75.2814 720.677 80.2462 719.767 82.3796C723.399 73.8462 730.842 66.5773 740.168 62.4813C743.527 61.0074 747.51 59.9291 750.986 61.1703C754.96 62.5977 756.874 66.5075 757.947 70.1303C761.399 82.0423 760.001 94.8315 754.058 105.722C757.628 101.068 761.455 96.2657 767.202 93.8143C770.637 92.3844 774.453 92.1387 778.044 93.1161C779.66 93.5486 781.155 94.3447 782.415 95.4434C783.022 95.9864 783.543 96.6071 784.118 97.1578C785.503 98.4844 786.265 99.9273 787.385 101.44C782.913 95.4357 788.24 85.9946 796.414 85.4206C795.45 78.6249 805.802 73.0084 812.366 76.7553C811.161 72.8765 818.308 70.6191 821.8 73.1791C825.292 75.7391 825.689 80.2385 825.774 84.2181C828.817 72.8937 834.191 62.3257 841.555 53.1877C843.834 50.3484 846.743 47.3928 850.694 47.0359C856.052 46.5549 860.182 50.9923 862.749 55.1271C868.802 64.7926 872.425 75.7731 873.31 87.135C875.737 84.3423 880.489 83.3105 884.137 84.8077C887.784 86.3049 893.726 89.0046 892.84 92.4257C892.715 90.0519 894.784 87.7323 897.452 87.2591C900.12 86.7859 906.147 86.2274 907.111 88.4538C908.558 85.4594 910.129 82.4339 912.68 80.0678C915.231 77.7018 918.964 76.0727 922.643 76.5924C926.322 77.1122 929.534 80.254 928.865 83.4501C930.483 79.5713 935.476 76.0571 940.142 75.2038C942.678 69.8898 949.857 66.9652 956.405 67.6324C962.954 68.2995 968.733 71.9921 972.606 76.6467C976.479 81.3013 978.68 86.8402 980.453 92.3869C985.695 109.097 997.564 122.89 1001.2 139.926C1003.54 150.934 1004.52 162.942 998.303 172.74C990.525 185.021 973.765 190.42 958.163 193.841C912.237 203.887 864.475 205.113 817.149 206.253C728.043 208.48 638.92 210.698 549.782 210.985C531.568 211.078 512.715 210.931 496.219 204.236Z" fill="url(#paint2_linear_605_90)"/>
<path d="M1111.19 261.19C1111.32 261.19 1111.45 261.19 1111.57 261.25C1111.45 261.212 1111.32 261.192 1111.19 261.19Z" fill="url(#paint3_linear_605_90)"/>
<path d="M381.25 137.12C368.057 139.32 354.88 141.54 341.72 143.78C317.347 147.927 293.013 152.16 268.72 156.48C256.84 158.6 244.85 161.36 232.82 162.89C229.27 163.34 226.03 162.82 222.5 162.84C217.08 162.84 211.5 164.12 206.23 164.96C160.056 172.197 114.535 183.112 70.1 197.6C57.1 201.86 42.38 208.43 41.85 218.85C41.25 230.55 58.75 237.66 73.95 240.74C80.6 242.08 86.54 244.21 93.43 245.04C99.4736 245.762 105.575 245.869 111.64 245.36C102.56 241.31 95.4 234.95 91.64 227.6C99.86 232.647 108.06 237.71 116.24 242.79C116.349 238.57 118.025 234.543 120.94 231.49L127.39 247.12C130.07 246.43 132.797 245.942 135.55 245.66C137.38 245.57 139.11 246.03 140.93 246.09C146.93 246.32 153.38 245.5 159.34 244.91C157.845 245.282 156.383 245.777 154.97 246.39L146.1 249.39L130.68 254.66C123.04 257.26 115.41 259.96 107.68 262.39C103.83 263.6 100.07 265.03 96.41 266.54C89.1932 269.481 82.2127 272.971 75.53 276.98C71.03 279.69 66.34 283.45 67.44 287.65C68.54 291.85 74.65 293.94 80.06 295.24C99.0924 299.776 118.575 302.155 138.14 302.33C136.532 300.64 135.31 298.622 134.559 296.413C133.808 294.205 133.545 291.86 133.79 289.54C139.65 294.36 145.503 299.187 151.35 304.02C151.232 302.232 151.503 300.439 152.145 298.766C152.788 297.093 153.786 295.58 155.07 294.33C157.55 298.957 160.023 303.593 162.49 308.24C162.81 306.29 166.16 305.36 168.68 305.9C171.2 306.44 173.13 307.9 175.24 309.04C180.324 311.681 186.049 312.838 191.76 312.38C194.241 312.041 196.746 311.9 199.25 311.96C202.65 312.24 206.11 312.1 209.52 312.1C248.44 312.1 290.67 314.36 328.39 310.26C308.942 312.386 289.779 316.593 271.23 322.81C267.34 324.12 262.55 325.11 258.78 326.64C255.47 327.98 252.89 330.74 250.34 332.76C247.007 335.387 243.673 338.027 240.34 340.68C249.03 345.36 258.44 350.93 269.25 352.17C274.52 352.77 279.43 354.76 284.46 356.04C295.937 358.951 307.65 360.842 319.46 361.69C312.436 355.801 307.011 348.234 303.69 339.69C310.21 347.099 317.686 353.609 325.92 359.05C326.76 353.717 327.603 348.383 328.45 343.05C334.63 348.79 330.8 358.05 336.45 364.13C340.08 368.04 346.53 369.45 352.54 369.65C357.479 369.9 362.39 370.535 367.23 371.55C374.04 372.8 381.41 372.68 388.38 372.88C396.32 373.1 404.263 373.207 412.21 373.2C430 373.2 447.79 372.74 465.56 372.29C477.34 371.99 489.11 371.69 500.89 371.52C506.07 371.45 511.41 371.76 516.58 371.25C519.277 370.936 521.921 370.263 524.44 369.25C531.82 366.45 539.36 366.47 547.23 365.05C542.07 361.32 536.08 358.14 530.8 354.46C525.36 350.68 520.137 346.723 515.13 342.59C527.09 347.405 538.534 353.412 549.29 360.52C548.49 353.81 550.82 346.91 555.78 341.3C557.516 343.827 558.697 346.693 559.243 349.71C559.789 352.726 559.69 355.825 558.95 358.8C561.32 352.35 567.76 346.8 575.95 344.24C573.89 351.7 571.847 359.157 569.82 366.61C570.04 365.79 590.97 366.12 593.09 366.13C601.01 366.13 608.923 366.28 616.83 366.58C624.737 366.88 632.627 367.357 640.5 368.01C645.44 368.41 648.4 369.46 652.92 368.36C656.15 367.56 659.6 367.13 662.92 366.55L683.36 362.96C681.671 361.017 680.627 358.597 680.375 356.035C680.122 353.473 680.673 350.895 681.95 348.66C685.001 355.362 689.431 361.345 694.95 366.22C697.421 362.006 701.119 358.646 705.55 356.59C705.231 358.163 705.427 359.797 706.11 361.25C706.635 362.06 707.396 362.691 708.289 363.057C709.183 363.424 710.167 363.508 711.11 363.3C713.83 362.59 714.18 359.58 716.62 358.41C719.33 357.12 723.09 359.02 723.85 361.41C724.61 363.8 723.36 366.21 722.14 368.46C727.77 368.2 733.44 368.06 739.06 367.68C740.91 367.56 742.41 367.02 744.19 366.75C746.941 366.469 749.705 366.329 752.47 366.33C799.72 364.21 847.02 362.11 894.38 362.38C902.887 362.42 911.39 362.55 919.89 362.77C926.57 362.94 933.33 363.47 940.01 363.42C941.269 363.422 942.526 363.328 943.77 363.14C945.77 362.83 947.56 362.28 949.57 362.14C956.62 361.56 964.13 362.14 971.22 362.25C968.495 359.655 966.608 356.305 965.8 352.63C968.3 353.69 969.12 356.05 970.31 358.02C971.5 359.99 974.19 362.02 976.85 361.19C980.27 360.14 979.48 355.82 982.54 354.25C985.03 352.98 988.64 354.49 989.74 356.6C990.84 358.71 990.21 361.1 989.56 363.32C992.021 361.409 994.956 360.206 998.05 359.84C1001.3 359.53 1004.9 360.54 1006.51 362.71C1008.12 364.88 1007.03 368.1 1003.98 369C1011.81 369.78 1019.64 370.66 1027.48 371.36C1032.54 371.82 1036.97 370.64 1041.94 370.62C1049.53 370.62 1057.39 371.84 1064.94 372.51L1088.65 374.63C1112.51 376.75 1136.37 378.79 1160.29 380.41L1163.83 380.65C1183.09 381.92 1202.37 382.89 1221.69 383.41C1231.54 383.67 1241.4 383.803 1251.26 383.81C1260.78 383.81 1270.43 383.91 1279.93 383.38C1281.14 383.31 1282.23 383.05 1283.4 382.89C1284.85 382.782 1286.31 382.819 1287.75 383C1291.17 383.207 1294.61 383.063 1298 382.57C1302.36 381.953 1306.62 380.714 1310.63 378.89C1299.35 364.12 1293.63 346.89 1294.39 329.89C1300.6 342.363 1307.99 354.207 1316.47 365.26C1316.37 357.81 1319.8 350.36 1326.03 344.61C1326.68 353.246 1325.84 361.93 1323.54 370.28C1330.69 362.28 1338.72 353.72 1350.88 350.65C1347.94 357.657 1345.01 364.657 1342.08 371.65C1341.53 372.97 1340.99 374.45 1341.78 375.65C1342.69 377.07 1344.94 377.65 1346.96 377.95C1354.52 379.243 1362.23 379.458 1369.86 378.59C1374.76 377.98 1378.62 375.59 1383.6 375.07C1391.23 374.33 1398.91 373.82 1406.6 373.07C1421.24 371.64 1435.83 369.84 1450.25 367.42C1464.56 365.073 1478.74 361.962 1492.72 358.1L1493.55 357.86C1497.1 356.86 1500.7 355.76 1503.55 353.86C1506.4 351.96 1508.47 349.15 1507.99 346.3C1507.51 343.45 1504.85 341.3 1502.21 339.3C1485.06 326.59 1463.48 317.3 1440.21 312.52C1442.2 312.808 1444.2 312.995 1446.21 313.08L1453.39 313.73C1458.57 314.203 1463.75 314.667 1468.94 315.12C1478.94 315.993 1488.92 316.827 1498.88 317.62C1518.34 319.18 1537.77 320.97 1557.2 322.7C1567.12 323.57 1577.04 324.44 1586.97 325.24C1591.52 325.6 1596.08 326.03 1600.64 326.24C1601.48 326.295 1602.31 326.295 1603.15 326.24C1605.7 326.06 1607.97 325.37 1610.6 325.34L1622.6 325.2L1628.6 325.13C1619.47 323.63 1611.32 318.95 1606.97 312.71C1614.92 316.57 1622.85 320.433 1630.77 324.3C1630.92 322.47 1631.13 320.52 1632.62 319.08C1634.11 317.64 1637.39 317.08 1638.94 318.52C1640.49 319.96 1639.45 321.92 1638.41 323.52C1643.64 320.537 1649.09 317.953 1654.71 315.79C1656.86 314.95 1659.96 314.33 1661.34 315.79C1662.18 316.71 1661.83 317.96 1661.34 319.01C1659.57 322.831 1656.92 326.179 1653.61 328.78C1654.11 328.36 1657.37 328.45 1658.16 328.38L1663.16 327.94L1673 327.1C1675.91 326.85 1679.36 326.15 1682.27 326.44C1685.14 326.621 1688.02 326.588 1690.88 326.34C1697.88 325.98 1704.88 325.18 1711.88 325.22C1717.06 325.22 1722.24 325.22 1727.41 324.95C1737.72 324.477 1748 323.422 1758.19 321.79C1778.14 318.727 1797.65 313.313 1816.33 305.66C1818.87 304.6 1821.33 303.49 1823.85 302.35C1828.48 300.22 1833.4 297.49 1834.25 293.47C1834.93 290.23 1832.73 287.04 1830.32 284.27C1822.22 274.95 1810.94 267.15 1797.82 261.83C1807.86 262.485 1817.93 262.635 1827.98 262.28C1831 262.331 1834.02 262.045 1836.98 261.43C1840.33 260.56 1844.31 261.04 1847.82 261.08C1848.92 261.08 1850.2 261.08 1850.82 260.4C1851.73 259.53 1850.92 258.28 1850.15 257.33C1845.78 252.059 1843.53 245.342 1843.86 238.5C1849.57 244.157 1854.38 250.664 1858.1 257.79C1860.25 252.94 1865.9 249.06 1872.59 247.85C1871.1 251.183 1869.61 254.517 1868.13 257.85C1868.31 257.44 1873.13 256.85 1873.83 256.74L1879.76 255.58C1883.52 254.85 1887.34 254.22 1891.02 253.32C1898.51 251.493 1905.89 249.443 1913.17 247.17C1915.09 246.57 1917.01 245.96 1918.91 245.34L1919.91 245.02V203.43L1917.84 202.65C1892.06 193.13 1865.77 184.383 1838.96 176.41C1831.38 174.15 1822.88 172.52 1815.78 169.5C1814.29 168.745 1812.75 168.104 1811.17 167.58C1799.98 164.58 1786.67 163.76 1774.98 162.06C1750.56 158.487 1726.08 155.13 1701.55 151.99C1652.48 145.703 1603.23 140.26 1553.8 135.66C1534.57 133.88 1514.68 130.4 1495.33 132.66C1486.48 133.71 1478.61 132.74 1469.86 131.38C1445.38 127.587 1420.86 123.873 1396.31 120.24C1358.01 114.58 1319.63 109.123 1281.16 103.87C1300.65 104.183 1320.14 104.573 1339.61 105.04C1326.28 104.5 1312.92 103.98 1299.54 103.48C1282.41 102.853 1265.28 102.277 1248.15 101.75C1239.62 101.48 1231.09 101.17 1222.56 100.99C1219.38 100.93 1216.56 101.37 1213.38 100.84C1212.38 100.67 1200.94 99.1 1200.96 99.75C1200.96 98.21 1200.85 96.67 1200.8 95.14C1197.38 95.1054 1194 95.7866 1190.86 97.14C1190.47 93.9066 1190.07 90.6766 1189.68 87.45C1185.87 89.9759 1183 93.6979 1181.54 98.03C1176.9 95.2028 1173.07 91.2241 1170.42 86.48C1170.34 91.2207 1171.62 95.8853 1174.11 99.92C1169.33 98.92 1165.19 99.62 1160.41 99.81C1155.2 100.02 1149.41 99.21 1144.21 99.11C1094.95 98.1566 1045.69 97.6066 996.42 97.46C991.78 97.46 987.42 97.27 982.92 96.83C977.92 96.35 972.21 97.43 967.26 97.83C966.83 96.09 966.41 94.34 965.98 92.6C962.378 93.3163 959.038 94.9998 956.32 97.47C954.534 94.9914 951.931 93.2212 948.97 92.47L953.97 97.58L949.32 97.91C946.196 98.1379 943.057 98.0542 939.95 97.66C931.48 96.66 921.95 97.66 913.34 97.66C902.287 97.7333 891.233 97.8233 880.18 97.93C834.127 98.39 788.083 99.2033 742.05 100.37C688.31 101.703 634.59 103.533 580.89 105.86C563.323 108.427 545.77 111.043 528.23 113.71C479.083 121.19 430.09 128.993 381.25 137.12ZM535.25 190.27C536.76 184.99 542.17 180.21 549.4 177.79C550.04 177.58 550.08 189.88 550.03 190.87C564.33 189.2 577.96 185.6 592.45 184.47C613.99 182.78 635.62 181.68 657.22 180.62C700.58 178.48 744 177.16 787.4 176.34C801.72 176.073 816.053 175.85 830.4 175.67C827.71 175.21 827.83 175.99 825.14 175.53C825.41 173.28 831.38 172.2 836.22 171.71C855.507 169.75 874.84 168.023 894.22 166.53C903.933 165.783 913.653 165.093 923.38 164.46C927.61 164.19 931.79 163.7 935.97 164.04C943.276 164.553 950.618 163.966 957.75 162.3C952.89 161.3 950.27 157.03 952.65 154.01C956.501 158.812 961.258 162.811 966.65 165.78C968.983 161.52 971.29 157.257 973.57 152.99C975.45 156.683 977.323 160.377 979.19 164.07C979.743 161.842 980.831 159.782 982.36 158.07C983.428 157.051 984.698 156.267 986.088 155.771C987.479 155.275 988.958 155.077 990.43 155.19C993.61 155.46 996.26 157.86 994.95 159.82C1005.83 159.82 1016.72 160.31 1027.52 160.1C1089.87 158.88 1156.8 158.43 1218.09 165.69C1228.09 166.87 1237.92 168.36 1247.42 170.28C1251.42 171.09 1256.42 171.85 1259.82 173.28C1264.36 175.13 1262.98 177.5 1261.13 179.71C1256.13 185.62 1245.49 190.34 1231.71 191.71C1237.29 191.16 1244.22 191.57 1249.98 191.56C1257.31 191.56 1264.65 191.577 1271.98 191.61C1307.45 191.9 1343.13 191.44 1379.2 193.61C1428.09 196.56 1476.97 199.87 1525.61 204.72C1534.74 205.63 1545.31 205.16 1552.61 209.17C1554.98 210.46 1560.04 211.79 1561.61 209.17C1562.44 207.78 1561.06 206.26 1559.92 204.94C1555.84 200.22 1554.37 194.54 1555.92 189.27C1559.3 194.537 1562.67 199.803 1566.02 205.07C1567.42 201.19 1571.37 197.8 1576.64 195.97C1576.4 200.282 1574.95 204.44 1572.46 207.97C1574.69 205.75 1579.83 205.04 1583.03 206.75C1586.23 208.46 1586.03 212.36 1582.52 213.55C1585.09 212.69 1590.65 213.34 1593.46 213.55C1597.28 213.83 1600.85 214.64 1604.61 215.12C1606.91 215.42 1609.14 215.26 1611.45 215.38C1615.39 215.719 1619.3 216.266 1623.18 217.02C1650.1 221.23 1677.25 226.66 1698.93 235.84C1704.29 238.11 1709.61 240.94 1710.02 244.11C1710.29 246.16 1708.41 248.03 1705.86 249.53C1700.1 252.733 1693.61 254.364 1687.02 254.26C1684.81 254.26 1664.73 256.77 1664.37 255.26C1663.75 252.58 1663.12 249.91 1662.5 247.26C1658.43 248.38 1655.39 250.98 1654.68 253.93C1652.38 250.277 1650.07 246.61 1647.76 242.93C1644.6 246.21 1650.16 251.08 1647.43 254.53C1644.5 258.23 1637.25 256.33 1632.43 256.53C1616.99 257.12 1601.1 256.34 1585.61 255.82C1572.09 255.36 1558.59 254.73 1545.1 253.93C1582.59 256.621 1619.92 261.22 1656.95 267.71C1666.27 269.36 1676.88 271.78 1679.86 276.24C1682.84 280.7 1677.27 283.66 1671.95 285.24C1654.43 290.55 1632.26 290.51 1613.34 291.05C1585.16 291.86 1556.9 291.63 1528.72 291.23C1514.92 291.043 1501.13 290.8 1487.34 290.5C1481.02 290.37 1474.49 290.57 1468.34 289.61C1466.06 289.23 1440.17 287.76 1440.14 287.83L1448.14 273.89C1448.67 272.96 1449.14 271.75 1448.01 271.07C1447.12 270.676 1446.13 270.561 1445.17 270.74C1437.17 271.53 1430.06 275.36 1427.09 280.47C1428.05 276.804 1427.85 272.931 1426.53 269.38C1420.9 272.08 1418 277.17 1419.4 281.83C1413.48 276.957 1407.54 272.1 1401.58 267.26C1404.06 274.47 1410.68 281.03 1419.67 285.2C1394.31 289.36 1368.46 288.49 1342.51 288.13C1267.37 287.05 1191.36 284.66 1117.97 271.96C1111.97 270.96 1105.38 269.55 1102.83 266.79C1100.83 264.6 1103.83 261.63 1108.15 261.09C1106.5 261.09 1104.88 261.09 1104.69 261.09L1093.83 260.99C1091.83 260.99 1090.11 260.86 1088.22 260.79C1085.85 260.71 1083.64 260.71 1081.22 260.79C1055.22 261.65 1029.16 262.18 1003.11 262.79C959.11 263.88 915.51 263.79 871.83 264.41C862.38 264.54 852.95 265.02 843.63 264.19C838.91 263.76 833.63 264.83 828.93 265.31L813.12 266.94C816.282 264.045 818.9 260.608 820.85 256.79C821.6 255.28 821.7 253.08 819.44 252.69C818.375 252.597 817.305 252.791 816.34 253.25C809.708 255.777 803.587 259.48 798.27 264.18C796.447 257.982 796.771 251.35 799.19 245.36C793.31 249.71 790.4 255.82 791.38 261.64C785.38 253.973 779.353 246.307 773.3 238.64C775.555 249.16 779.92 259.114 786.13 267.9C778.13 268.14 770.13 267.9 762.13 268.27C734.84 269.55 707.47 270.43 680.13 270.57C661.13 270.67 642.13 270.41 623.13 269.66C613.63 269.287 604.14 268.787 594.66 268.16C591.342 268.11 588.072 267.363 585.06 265.97C584.22 265.6 574.23 264.04 574.63 265.55C573.477 261.25 572.323 256.953 571.17 252.66C567.01 254.1 563.93 256.92 563.1 260.03C557.487 257.23 551.863 254.44 546.23 251.66C544.99 256.25 547.29 261.16 552.14 264.36C546.871 264.495 541.6 264.161 536.39 263.36C531.6 262.61 527.72 261 522.92 260.22C511.92 258.44 499.07 254.44 503.11 248.93C504.9 246.49 509.65 244.71 514.24 243.21C535.766 236.269 557.939 231.525 580.42 229.05C559.86 231.4 539.33 233.89 518.69 235.83C508.29 236.83 497.69 237.83 487.26 238.23C483.06 238.38 478.91 237.41 474.58 237.42C469.769 237.428 464.969 237.877 460.24 238.76C462.549 234.373 463.33 229.341 462.46 224.46C454.97 226.39 449.12 231.09 447.6 236.37C446.727 232.03 445.863 227.697 445.01 223.37C443.814 224.696 442.959 226.292 442.518 228.022C442.077 229.752 442.064 231.564 442.48 233.3C434.007 229.413 425.83 225.233 417.95 220.76C420.63 228.01 426.74 234.59 435.16 239.33C426.41 240.71 419.46 240.05 410.84 239.03C404.05 238.22 397.06 238.9 390.2 238.35C383.09 237.79 376.03 237.16 369.01 236.12C359.798 234.749 350.675 232.833 341.69 230.38C336.89 229.07 331.31 226.66 331.61 222.81C331.91 218.96 337.5 217.09 342.24 215.95C399.233 202.373 457.475 194.706 516.04 193.07C514.936 191.247 513.689 189.515 512.31 187.89C510.99 186.53 510.59 184.72 510 183.1C508.638 179.309 507.562 175.422 506.78 171.47C506.78 171.23 506.69 171 506.65 170.76C512.789 177.344 519.592 183.275 526.95 188.46C526.647 185.947 526.854 183.399 527.559 180.967C528.263 178.536 529.451 176.272 531.05 174.31L535.25 190.27Z" fill="url(#paint4_linear_605_90)"/>
<path d="M526.95 188.46C519.606 183.273 512.816 177.341 506.69 170.76C506.69 171 506.78 171.23 506.82 171.47C507.602 175.422 508.678 179.309 510.04 183.1C510.63 184.72 511.04 186.53 512.35 187.89C513.729 189.515 514.976 191.247 516.08 193.07C457.515 194.706 399.273 202.373 342.28 215.95C337.54 217.09 331.94 219.08 331.65 222.81C331.36 226.54 336.93 229.07 341.73 230.38C350.715 232.833 359.838 234.749 369.05 236.12C376.05 237.12 383.13 237.79 390.24 238.35C397.1 238.9 404.09 238.22 410.88 239.03C419.5 240.03 426.45 240.71 435.2 239.33C426.78 234.59 420.67 228.01 417.99 220.76C425.843 225.227 433.987 229.443 442.42 233.41C442.004 231.674 442.017 229.862 442.458 228.132C442.899 226.402 443.754 224.806 444.95 223.48C445.81 227.82 446.673 232.153 447.54 236.48C449.06 231.2 454.91 226.48 462.4 224.57C463.27 229.451 462.489 234.483 460.18 238.87C464.909 237.987 469.709 237.538 474.52 237.53C478.85 237.53 483 238.53 487.2 238.34C497.67 237.97 508.2 236.91 518.63 235.94C539.27 234 559.8 231.51 580.36 229.16C557.879 231.635 535.706 236.379 514.18 243.32C509.59 244.82 504.84 246.6 503.05 249.04C499.05 254.55 511.82 258.55 522.86 260.33C527.66 261.11 531.54 262.72 536.33 263.47C541.54 264.271 546.811 264.605 552.08 264.47C547.23 261.27 544.93 256.36 546.17 251.77C551.81 254.55 557.433 257.34 563.04 260.14C563.87 257.03 566.95 254.21 571.11 252.77C572.27 257.063 573.423 261.36 574.57 265.66C574.17 264.15 584.16 265.71 585 266.08C588.012 267.473 591.282 268.219 594.6 268.27C604.073 268.897 613.563 269.397 623.07 269.77C642.07 270.52 661.07 270.77 680.07 270.68C707.37 270.54 734.74 269.68 762.07 268.38C770.07 268 778.07 268.25 786.07 268.01C779.86 259.224 775.495 249.27 773.24 238.75C779.3 246.41 785.327 254.077 791.32 261.75C790.32 255.93 793.25 249.82 799.13 245.47C796.711 251.46 796.387 258.092 798.21 264.29C803.527 259.59 809.648 255.887 816.28 253.36C817.245 252.901 818.315 252.707 819.38 252.8C821.64 253.19 821.54 255.39 820.79 256.9C818.84 260.718 816.222 264.155 813.06 267.05L828.87 265.42C833.55 264.94 838.87 263.87 843.57 264.3C852.89 265.13 862.32 264.65 871.77 264.52C915.45 263.94 959.07 263.99 1003.05 262.9C1029.05 262.26 1055.15 261.73 1081.16 260.9C1083.58 260.82 1085.79 260.82 1088.16 260.9C1090.05 260.97 1091.8 261.09 1093.77 261.1L1104.63 261.2C1104.82 261.2 1106.44 261.2 1108.09 261.2C1109.13 261.066 1110.19 261.086 1111.23 261.26C1111.36 261.262 1111.49 261.282 1111.61 261.32C1111.49 261.32 1111.36 261.32 1111.23 261.26C1110.59 261.2 1109.34 261.19 1108.09 261.2C1103.78 261.74 1100.74 264.71 1102.77 266.9C1105.32 269.66 1111.89 271.03 1117.91 272.07C1191.3 284.77 1267.31 287.16 1342.45 288.24C1368.45 288.6 1394.25 289.47 1419.61 285.31C1410.61 281.14 1404 274.58 1401.52 267.37C1407.48 272.21 1413.42 277.067 1419.34 281.94C1417.94 277.28 1420.84 272.19 1426.47 269.49C1427.8 273.041 1427.99 276.914 1427.03 280.58C1430.03 275.47 1437.11 271.64 1445.11 270.85C1446.07 270.671 1447.06 270.786 1447.95 271.18C1449.05 271.86 1448.61 273.07 1448.08 274L1440.08 287.94C1440.08 287.87 1466 289.34 1468.28 289.72C1474.45 290.72 1480.98 290.48 1487.28 290.61C1501.06 290.903 1514.85 291.147 1528.66 291.34C1556.84 291.74 1585.1 291.97 1613.28 291.16C1632.2 290.62 1654.37 290.66 1671.89 285.35C1677.21 283.73 1682.79 280.78 1679.8 276.35C1676.81 271.92 1666.21 269.47 1656.89 267.82C1619.87 261.303 1582.54 256.677 1545.05 253.96C1538.44 253.573 1531.84 253.147 1525.23 252.68C1531.84 253.04 1538.45 253.467 1545.05 253.96C1558.54 254.753 1572.05 255.383 1585.56 255.85C1601.05 256.37 1616.94 257.15 1632.38 256.56C1637.21 256.37 1644.46 258.27 1647.38 254.56C1650.11 251.11 1644.55 246.24 1647.71 242.96C1650.03 246.613 1652.34 250.28 1654.63 253.96C1655.34 250.96 1658.38 248.41 1662.45 247.29C1663.07 249.96 1663.7 252.63 1664.32 255.29C1664.68 256.82 1684.76 254.29 1686.97 254.29C1693.56 254.394 1700.05 252.763 1705.81 249.56C1708.36 248.06 1710.24 246.19 1709.97 244.14C1709.56 240.97 1704.24 238.14 1698.88 235.87C1677.2 226.69 1650.05 221.26 1623.13 217.05C1619.25 216.296 1615.34 215.749 1611.4 215.41C1609.09 215.29 1606.86 215.41 1604.56 215.15C1600.8 214.67 1597.23 213.86 1593.41 213.58C1590.6 213.37 1585.04 212.72 1582.47 213.58C1586.02 212.39 1586.18 208.48 1582.98 206.78C1579.78 205.08 1574.64 205.78 1572.41 208C1574.9 204.47 1576.35 200.312 1576.59 196C1571.32 197.83 1567.37 201.22 1565.97 205.1C1562.64 199.833 1559.27 194.567 1555.87 189.3C1554.33 194.57 1555.8 200.25 1559.87 204.97C1561.01 206.29 1562.39 207.81 1561.56 209.2C1559.99 211.82 1554.93 210.49 1552.56 209.2C1545.23 205.2 1534.66 205.66 1525.56 204.75C1476.92 199.9 1428.04 196.59 1379.15 193.64C1343.08 191.46 1307.4 191.92 1271.93 191.64C1264.6 191.58 1257.26 191.563 1249.93 191.59C1244.17 191.59 1237.24 191.19 1231.66 191.74C1245.44 190.39 1256.11 185.67 1261.08 179.74C1262.93 177.53 1264.31 175.16 1259.77 173.31C1256.36 171.92 1251.39 171.16 1247.37 170.31C1237.87 168.39 1228.02 166.9 1218.04 165.72C1156.75 158.46 1089.82 158.91 1027.47 160.13C1016.67 160.34 1005.78 159.86 994.9 159.85C996.21 157.85 993.56 155.49 990.38 155.22C988.908 155.107 987.429 155.305 986.039 155.801C984.648 156.297 983.378 157.081 982.31 158.1C980.781 159.812 979.693 161.872 979.14 164.1C977.28 160.407 975.407 156.713 973.52 153.02C971.24 157.293 968.933 161.557 966.6 165.81C961.208 162.841 956.451 158.842 952.6 154.04C950.22 157.04 952.84 161.3 957.7 162.33C950.576 163.983 943.245 164.56 935.95 164.04C931.77 163.7 927.59 164.19 923.36 164.46C913.633 165.087 903.913 165.777 894.2 166.53C874.807 168.023 855.473 169.75 836.2 171.71C831.36 172.2 825.39 173.28 825.12 175.53C827.81 175.99 827.69 175.21 830.38 175.67C816.06 175.85 801.727 176.073 787.38 176.34C743.98 177.16 700.56 178.48 657.2 180.62C635.6 181.68 613.97 182.78 592.43 184.47C577.94 185.6 564.31 189.2 550.01 190.87C550.01 189.87 550.01 177.58 549.38 177.79C542.15 180.21 536.74 184.99 535.23 190.27L531 174.27C529.404 176.241 528.223 178.513 527.527 180.952C526.831 183.39 526.635 185.944 526.95 188.46Z" fill="url(#paint5_linear_605_90)"/>
<path d="M526.95 188.46C519.606 183.273 512.816 177.341 506.69 170.76C506.69 171 506.78 171.23 506.82 171.47C507.602 175.422 508.678 179.309 510.04 183.1C510.63 184.72 511.04 186.53 512.35 187.89C513.729 189.515 514.976 191.247 516.08 193.07C457.515 194.706 399.273 202.373 342.28 215.95C337.54 217.09 331.94 219.08 331.65 222.81C331.36 226.54 336.93 229.07 341.73 230.38C350.715 232.833 359.838 234.749 369.05 236.12C376.05 237.12 383.13 237.79 390.24 238.35C397.1 238.9 404.09 238.22 410.88 239.03C419.5 240.03 426.45 240.71 435.2 239.33C426.78 234.59 420.67 228.01 417.99 220.76C425.843 225.227 433.987 229.443 442.42 233.41C442.004 231.674 442.017 229.862 442.458 228.132C442.899 226.402 443.754 224.806 444.95 223.48C445.81 227.82 446.673 232.153 447.54 236.48C449.06 231.2 454.91 226.48 462.4 224.57C463.27 229.451 462.489 234.483 460.18 238.87C464.909 237.987 469.709 237.538 474.52 237.53C478.85 237.53 483 238.53 487.2 238.34C497.67 237.97 508.2 236.91 518.63 235.94C539.27 234 559.8 231.51 580.36 229.16C557.879 231.635 535.706 236.379 514.18 243.32C509.59 244.82 504.84 246.6 503.05 249.04C499.05 254.55 511.82 258.55 522.86 260.33C527.66 261.11 531.54 262.72 536.33 263.47C541.54 264.271 546.811 264.605 552.08 264.47C547.23 261.27 544.93 256.36 546.17 251.77C551.81 254.55 557.433 257.34 563.04 260.14C563.87 257.03 566.95 254.21 571.11 252.77C572.27 257.063 573.423 261.36 574.57 265.66C574.17 264.15 584.16 265.71 585 266.08C588.012 267.473 591.282 268.219 594.6 268.27C604.073 268.897 613.563 269.397 623.07 269.77C642.07 270.52 661.07 270.77 680.07 270.68C707.37 270.54 734.74 269.68 762.07 268.38C770.07 268 778.07 268.25 786.07 268.01C779.86 259.224 775.495 249.27 773.24 238.75C779.3 246.41 785.327 254.077 791.32 261.75C790.32 255.93 793.25 249.82 799.13 245.47C796.711 251.46 796.387 258.092 798.21 264.29C803.527 259.59 809.648 255.887 816.28 253.36C817.245 252.901 818.315 252.707 819.38 252.8C821.64 253.19 821.54 255.39 820.79 256.9C818.84 260.718 816.222 264.155 813.06 267.05L828.87 265.42C833.55 264.94 838.87 263.87 843.57 264.3C852.89 265.13 862.32 264.65 871.77 264.52C915.45 263.94 959.07 263.99 1003.05 262.9C1029.05 262.26 1055.15 261.73 1081.16 260.9C1083.58 260.82 1085.79 260.82 1088.16 260.9C1090.05 260.97 1091.8 261.09 1093.77 261.1L1104.63 261.2C1104.82 261.2 1106.44 261.2 1108.09 261.2C1109.13 261.066 1110.19 261.086 1111.23 261.26C1111.36 261.262 1111.49 261.282 1111.61 261.32C1111.49 261.32 1111.36 261.32 1111.23 261.26C1110.59 261.2 1109.34 261.19 1108.09 261.2C1103.78 261.74 1100.74 264.71 1102.77 266.9C1105.32 269.66 1111.89 271.03 1117.91 272.07C1191.3 284.77 1267.31 287.16 1342.45 288.24C1368.45 288.6 1394.25 289.47 1419.61 285.31C1410.61 281.14 1404 274.58 1401.52 267.37C1407.48 272.21 1413.42 277.067 1419.34 281.94C1417.94 277.28 1420.84 272.19 1426.47 269.49C1427.8 273.041 1427.99 276.914 1427.03 280.58C1430.03 275.47 1437.11 271.64 1445.11 270.85C1446.07 270.671 1447.06 270.786 1447.95 271.18C1449.05 271.86 1448.61 273.07 1448.08 274L1440.08 287.94C1440.08 287.87 1466 289.34 1468.28 289.72C1474.45 290.72 1480.98 290.48 1487.28 290.61C1501.06 290.903 1514.85 291.147 1528.66 291.34C1556.84 291.74 1585.1 291.97 1613.28 291.16C1632.2 290.62 1654.37 290.66 1671.89 285.35C1677.21 283.73 1682.79 280.78 1679.8 276.35C1676.81 271.92 1666.21 269.47 1656.89 267.82C1619.87 261.303 1582.54 256.677 1545.05 253.96C1538.44 253.573 1531.84 253.147 1525.23 252.68C1531.84 253.04 1538.45 253.467 1545.05 253.96C1558.54 254.753 1572.05 255.383 1585.56 255.85C1601.05 256.37 1616.94 257.15 1632.38 256.56C1637.21 256.37 1644.46 258.27 1647.38 254.56C1650.11 251.11 1644.55 246.24 1647.71 242.96C1650.03 246.613 1652.34 250.28 1654.63 253.96C1655.34 250.96 1658.38 248.41 1662.45 247.29C1663.07 249.96 1663.7 252.63 1664.32 255.29C1664.68 256.82 1684.76 254.29 1686.97 254.29C1693.56 254.394 1700.05 252.763 1705.81 249.56C1708.36 248.06 1710.24 246.19 1709.97 244.14C1709.56 240.97 1704.24 238.14 1698.88 235.87C1677.2 226.69 1650.05 221.26 1623.13 217.05C1619.25 216.296 1615.34 215.749 1611.4 215.41C1609.09 215.29 1606.86 215.41 1604.56 215.15C1600.8 214.67 1597.23 213.86 1593.41 213.58C1590.6 213.37 1585.04 212.72 1582.47 213.58C1586.02 212.39 1586.18 208.48 1582.98 206.78C1579.78 205.08 1574.64 205.78 1572.41 208C1574.9 204.47 1576.35 200.312 1576.59 196C1571.32 197.83 1567.37 201.22 1565.97 205.1C1562.64 199.833 1559.27 194.567 1555.87 189.3C1554.33 194.57 1555.8 200.25 1559.87 204.97C1561.01 206.29 1562.39 207.81 1561.56 209.2C1559.99 211.82 1554.93 210.49 1552.56 209.2C1545.23 205.2 1534.66 205.66 1525.56 204.75C1476.92 199.9 1428.04 196.59 1379.15 193.64C1343.08 191.46 1307.4 191.92 1271.93 191.64C1264.6 191.58 1257.26 191.563 1249.93 191.59C1244.17 191.59 1237.24 191.19 1231.66 191.74C1245.44 190.39 1256.11 185.67 1261.08 179.74C1262.93 177.53 1264.31 175.16 1259.77 173.31C1256.36 171.92 1251.39 171.16 1247.37 170.31C1237.87 168.39 1228.02 166.9 1218.04 165.72C1156.75 158.46 1089.82 158.91 1027.47 160.13C1016.67 160.34 1005.78 159.86 994.9 159.85C996.21 157.85 993.56 155.49 990.38 155.22C988.908 155.107 987.429 155.305 986.039 155.801C984.648 156.297 983.378 157.081 982.31 158.1C980.781 159.812 979.693 161.872 979.14 164.1C977.28 160.407 975.407 156.713 973.52 153.02C971.24 157.293 968.933 161.557 966.6 165.81C961.208 162.841 956.451 158.842 952.6 154.04C950.22 157.04 952.84 161.3 957.7 162.33C950.576 163.983 943.245 164.56 935.95 164.04C931.77 163.7 927.59 164.19 923.36 164.46C913.633 165.087 903.913 165.777 894.2 166.53C874.807 168.023 855.473 169.75 836.2 171.71C831.36 172.2 825.39 173.28 825.12 175.53C827.81 175.99 827.69 175.21 830.38 175.67C816.06 175.85 801.727 176.073 787.38 176.34C743.98 177.16 700.56 178.48 657.2 180.62C635.6 181.68 613.97 182.78 592.43 184.47C577.94 185.6 564.31 189.2 550.01 190.87C550.01 189.87 550.01 177.58 549.38 177.79C542.15 180.21 536.74 184.99 535.23 190.27L531 174.27C529.404 176.241 528.223 178.513 527.527 180.952C526.831 183.39 526.635 185.944 526.95 188.46Z" fill="url(#paint6_linear_605_90)"/>
<path d="M1111.19 261.19C1110.15 261.016 1109.09 260.996 1108.05 261.13C1109.3 261.12 1110.55 261.13 1111.19 261.19Z" fill="url(#paint7_linear_605_90)"/>
<path d="M1111.19 261.19C1110.15 261.016 1109.09 260.996 1108.05 261.13C1109.3 261.12 1110.55 261.13 1111.19 261.19Z" fill="url(#paint8_linear_605_90)"/>
<path d="M1545.07 253.85C1538.47 253.357 1531.86 252.93 1525.25 252.57C1531.85 253.043 1538.46 253.47 1545.07 253.85Z" fill="url(#paint9_linear_605_90)"/>
<path d="M1545.07 253.85C1538.47 253.357 1531.86 252.93 1525.25 252.57C1531.85 253.043 1538.46 253.47 1545.07 253.85Z" fill="url(#paint10_linear_605_90)"/>
<path d="M1913.26 247.21C1905.98 249.47 1898.6 251.52 1891.11 253.36C1887.43 254.26 1883.61 254.89 1879.85 255.62L1873.92 256.78C1873.21 256.91 1868.4 257.48 1868.22 257.89C1869.71 254.557 1871.2 251.223 1872.68 247.89C1865.99 249.1 1860.34 252.98 1858.19 257.83C1854.47 250.693 1849.67 244.176 1843.95 238.51C1843.62 245.352 1845.87 252.069 1850.24 257.34C1851.01 258.29 1851.82 259.54 1850.92 260.41C1850.24 261.06 1848.92 261.1 1847.86 261.09C1844.35 261.09 1840.37 260.57 1837.02 261.44C1834.06 262.056 1831.04 262.341 1828.02 262.29C1817.97 262.645 1807.9 262.495 1797.86 261.84C1810.98 267.16 1822.26 274.96 1830.36 284.28C1832.77 287.05 1834.97 290.28 1834.29 293.48C1833.44 297.48 1828.52 300.23 1823.89 302.36C1821.42 303.5 1818.89 304.61 1816.37 305.67C1797.73 313.378 1778.25 318.853 1758.32 321.98C1748.13 323.612 1737.85 324.667 1727.54 325.14C1722.37 325.37 1717.19 325.43 1712.01 325.41C1705.01 325.41 1698.01 326.17 1691.01 326.53C1688.15 326.778 1685.27 326.811 1682.4 326.63C1679.49 326.34 1676.04 327.04 1673.13 327.29L1663.29 328.13L1658.29 328.57C1657.5 328.64 1654.29 328.57 1653.74 328.97C1657.05 326.37 1659.7 323.021 1661.47 319.2C1661.94 318.15 1662.29 316.9 1661.47 315.98C1660.09 314.48 1656.99 315.1 1654.84 315.98C1649.22 318.143 1643.77 320.727 1638.54 323.71C1639.54 322.13 1640.54 320.1 1639.07 318.71C1637.6 317.32 1634.25 317.83 1632.75 319.27C1631.25 320.71 1631.05 322.66 1630.9 324.49C1622.98 320.617 1615.05 316.753 1607.1 312.9C1611.45 319.14 1619.6 323.82 1628.73 325.32L1622.73 325.39L1610.73 325.53C1608.1 325.53 1605.83 326.25 1603.28 326.43C1602.44 326.485 1601.61 326.485 1600.77 326.43C1596.21 326.17 1591.65 325.74 1587.1 325.43C1577.17 324.63 1567.25 323.76 1557.33 322.89C1537.9 321.16 1518.47 319.37 1499.01 317.81C1489.01 317.01 1479.03 316.177 1469.07 315.31C1463.89 314.857 1458.71 314.393 1453.52 313.92L1446.34 313.27C1444.33 313.185 1442.33 312.998 1440.34 312.71C1463.61 317.45 1485.19 326.78 1502.34 339.49C1504.98 341.49 1507.66 343.7 1508.12 346.49C1508.58 349.28 1506.55 352.17 1503.68 354.05C1500.81 355.93 1497.21 357.05 1493.68 358.05L1492.85 358.29C1478.87 362.152 1464.69 365.263 1450.38 367.61C1435.96 370.03 1421.38 371.83 1406.73 373.26C1399.09 374.01 1391.41 374.52 1383.73 375.26C1378.73 375.74 1374.89 378.17 1369.99 378.78C1362.36 379.648 1354.65 379.433 1347.09 378.14C1345.09 377.81 1342.82 377.26 1341.91 375.84C1341.12 374.59 1341.66 373.11 1342.21 371.84C1345.13 364.827 1348.06 357.827 1351.01 350.84C1338.85 353.91 1330.82 362.44 1323.67 370.47C1325.97 362.12 1326.81 353.436 1326.16 344.8C1319.93 350.55 1316.5 358 1316.6 365.45C1308.12 354.397 1300.73 342.553 1294.52 330.08C1293.73 347.14 1299.52 364.34 1310.76 379.08C1306.75 380.904 1302.49 382.143 1298.13 382.76C1294.74 383.253 1291.3 383.398 1287.88 383.19C1286.44 383.009 1284.98 382.972 1283.53 383.08C1282.36 383.24 1281.27 383.5 1280.06 383.57C1270.56 384.1 1260.91 384 1251.39 384C1241.53 384 1231.67 383.867 1221.82 383.6C1202.5 383.08 1183.22 382.11 1163.96 380.84L1160.42 380.6C1136.5 378.98 1112.64 376.94 1088.78 374.82L1064.95 372.48C1057.41 371.81 1049.55 370.56 1041.95 370.59C1036.95 370.59 1032.55 371.79 1027.49 371.33C1019.65 370.63 1011.82 369.75 1003.99 368.97C1006.99 368.07 1008.13 364.84 1006.52 362.68C1004.91 360.52 1001.31 359.5 998.06 359.81C994.966 360.176 992.031 361.379 989.57 363.29C990.22 361.07 990.85 358.69 989.75 356.57C988.65 354.45 985.04 352.95 982.55 354.22C979.49 355.79 980.28 360.11 976.86 361.16C974.2 361.96 971.51 359.97 970.32 357.99C969.13 356.01 968.32 353.66 965.81 352.6C966.618 356.275 968.505 359.625 971.23 362.22C964.14 362.14 956.63 361.53 949.58 362.11C947.58 362.28 945.74 362.83 943.78 363.11C942.536 363.298 941.279 363.392 940.02 363.39C933.34 363.44 926.58 362.91 919.9 362.74C911.4 362.52 902.897 362.39 894.39 362.35C847.03 362.08 799.73 364.18 752.48 366.3C749.715 366.299 746.951 366.439 744.2 366.72C742.42 366.99 740.92 367.53 739.07 367.65C733.45 368.03 727.78 368.17 722.15 368.43C723.37 366.18 724.62 363.75 723.86 361.38C723.1 359.01 719.34 357.12 716.63 358.38C714.19 359.55 713.84 362.56 711.12 363.27C710.177 363.478 709.193 363.394 708.299 363.027C707.406 362.661 706.645 362.03 706.12 361.22C705.437 359.767 705.241 358.133 705.56 356.56C701.129 358.616 697.431 361.976 694.96 366.19C689.441 361.325 685.008 355.352 681.95 348.66C680.669 350.884 680.109 353.451 680.347 356.006C680.585 358.562 681.61 360.981 683.28 362.93L662.84 366.52C659.53 367.1 656.08 367.52 652.84 368.33C648.32 369.43 645.36 368.38 640.42 367.98C632.547 367.313 624.657 366.837 616.75 366.55C608.843 366.263 600.93 366.113 593.01 366.1C590.89 366.1 569.96 365.76 569.74 366.58C571.74 359.127 573.783 351.67 575.87 344.21C567.69 346.79 561.25 352.32 558.87 358.77C559.613 355.781 559.71 352.667 559.155 349.638C558.599 346.608 557.405 343.732 555.65 341.2C550.65 346.81 548.36 353.71 549.16 360.42C538.404 353.312 526.96 347.305 515 342.49C520 346.617 525.223 350.573 530.67 354.36C535.95 358.04 541.94 361.22 547.1 364.95C539.23 366.37 531.69 366.35 524.31 369.15C521.791 370.163 519.147 370.836 516.45 371.15C511.28 371.66 505.94 371.35 500.76 371.42C488.98 371.59 477.21 371.89 465.43 372.19C447.66 372.64 429.87 373.1 412.08 373.1C404.127 373.1 396.183 372.993 388.25 372.78C381.25 372.58 373.91 372.7 367.1 371.45C362.26 370.435 357.349 369.8 352.41 369.55C346.41 369.35 339.95 367.94 336.32 364.03C330.68 357.98 334.51 348.69 328.32 342.95C327.467 348.283 326.623 353.617 325.79 358.95C317.585 353.526 310.133 347.039 303.63 339.66C306.951 348.204 312.376 355.771 319.4 361.66C307.59 360.812 295.877 358.921 284.4 356.01C279.4 354.73 274.46 352.74 269.19 352.14C258.38 350.9 248.97 345.33 240.29 340.65C243.623 337.983 246.957 335.343 250.29 332.73C252.84 330.73 255.42 327.95 258.73 326.61C262.5 325.08 267.29 324.09 271.18 322.78C289.729 316.563 308.892 312.356 328.34 310.23C290.62 314.33 248.34 312.03 209.47 312.07C206.06 312.07 202.6 312.21 199.2 311.93C196.696 311.87 194.191 312.011 191.71 312.35C185.999 312.808 180.274 311.651 175.19 309.01C173.08 307.85 171.19 306.4 168.63 305.87C166.07 305.34 162.76 306.26 162.44 308.21C159.973 303.543 157.5 298.907 155.02 294.3C153.736 295.55 152.738 297.063 152.095 298.736C151.453 300.409 151.182 302.202 151.3 303.99C145.46 299.163 139.607 294.337 133.74 289.51C133.495 291.83 133.758 294.175 134.509 296.383C135.26 298.592 136.482 300.611 138.09 302.3C118.525 302.125 99.0424 299.746 80.01 295.21C74.6 293.91 68.48 291.79 67.39 287.62C66.3 283.45 70.98 279.62 75.48 276.95C82.1627 272.941 89.1432 269.451 96.36 266.51C100.02 265 103.78 263.57 107.63 262.36C115.33 259.93 122.96 257.23 130.63 254.63L146.05 249.39L154.92 246.39C156.333 245.777 157.795 245.282 159.29 244.91C153.29 245.5 146.9 246.32 140.88 246.09C139.06 246.03 137.33 245.57 135.5 245.66C132.764 245.944 130.053 246.432 127.39 247.12L120.95 231.49C118.035 234.543 116.359 238.57 116.25 242.79C108.07 237.71 99.87 232.647 91.65 227.6C95.38 234.95 102.54 241.31 111.65 245.36C105.585 245.869 99.4836 245.762 93.44 245.04C86.55 244.21 80.61 242.04 73.96 240.74C58.75 237.66 41.25 230.55 41.85 218.85C42.38 208.43 57.1 201.85 70.1 197.6C114.528 183.113 160.043 172.198 206.21 164.96C211.49 164.12 217.06 162.87 222.48 162.84C226.01 162.84 229.25 163.34 232.8 162.89C244.8 161.36 256.8 158.6 268.7 156.48C293.013 152.173 317.347 147.94 341.7 143.78C354.867 141.533 368.043 139.313 381.23 137.12C430.057 129 479.037 121.21 528.17 113.75C545.71 111.083 563.263 108.467 580.83 105.9L583.5 105.5C388.377 95.8969 192.785 106.837 -0.0500031 138.14L-0.0500031 468.14C1.28333 474.7 2.64666 481.263 4.04 487.83C642.05 451.28 1281.61 447.66 1919.95 484.99V245.06L1918.95 245.38C1917.1 246 1915.18 246.66 1913.26 247.21Z" fill="url(#paint11_linear_605_90)"/>
<path d="M1339.61 105.11C1320.14 104.643 1300.65 104.253 1281.16 103.94C1319.62 109.193 1358 114.65 1396.31 120.31C1420.86 123.937 1445.38 127.65 1469.86 131.45C1478.61 132.81 1486.48 133.78 1495.33 132.73C1514.68 130.43 1534.57 133.91 1553.8 135.73C1603.24 140.303 1652.5 145.737 1701.59 152.03C1726.12 155.17 1750.59 158.527 1775.02 162.1C1786.71 163.8 1800.02 164.6 1811.21 167.62C1812.79 168.144 1814.33 168.786 1815.82 169.54C1822.92 172.54 1831.42 174.19 1839 176.45C1865.78 184.41 1892.07 193.157 1917.88 202.69L1919.95 203.47V144.52C1727.45 122.5 1534.06 109.79 1339.61 105.11Z" fill="url(#paint12_linear_605_90)"/>
<defs>
<linearGradient id="paint0_linear_605_90" x1="258.73" y1="10.27" x2="260.4" y2="198.65" gradientUnits="userSpaceOnUse">
<stop offset="0.12" stop-color="#9CC700"/>
<stop offset="1" stop-color="#1F7209"/>
</linearGradient>
<linearGradient id="paint1_linear_605_90" x1="1665.41" y1="54.9875" x2="1664.12" y2="201.125" gradientUnits="userSpaceOnUse">
<stop offset="0.12" stop-color="#9CC700"/>
<stop offset="1" stop-color="#1F7209"/>
</linearGradient>
<linearGradient id="paint2_linear_605_90" x1="715.412" y1="54.9875" x2="714.12" y2="201.125" gradientUnits="userSpaceOnUse">
<stop offset="0.12" stop-color="#9CC700"/>
<stop offset="1" stop-color="#1F7209"/>
</linearGradient>
<linearGradient id="paint3_linear_605_90" x1="1111.38" y1="141.905" x2="1111.38" y2="479.521" gradientUnits="userSpaceOnUse">
<stop stop-color="#A3A32F"/>
<stop offset="1" stop-color="#496B22"/>
</linearGradient>
<linearGradient id="paint4_linear_605_90" x1="980.89" y1="83.56" x2="980.89" y2="421.19" gradientUnits="userSpaceOnUse">
<stop offset="0.01" stop-color="#C5D225"/>
<stop offset="0.84" stop-color="#6EAB1E"/>
</linearGradient>
<linearGradient id="paint5_linear_605_90" x1="1.40745e+06" y1="37769.7" x2="1.40745e+06" y2="84593.5" gradientUnits="userSpaceOnUse">
<stop stop-color="#A3A32F"/>
<stop offset="1" stop-color="#496B22"/>
</linearGradient>
<linearGradient id="paint6_linear_605_90" x1="1020.82" y1="138.83" x2="1020.82" y2="292.2" gradientUnits="userSpaceOnUse">
<stop offset="0.2" stop-color="#D5E32B"/>
<stop offset="0.82" stop-color="#B0D226"/>
</linearGradient>
<linearGradient id="paint7_linear_605_90" x1="4592.43" y1="301.069" x2="4592.43" y2="350.892" gradientUnits="userSpaceOnUse">
<stop stop-color="#A3A32F"/>
<stop offset="1" stop-color="#496B22"/>
</linearGradient>
<linearGradient id="paint8_linear_605_90" x1="1111.97" y1="99.8616" x2="1105.17" y2="566.167" gradientUnits="userSpaceOnUse">
<stop stop-color="#C2C238"/>
<stop offset="1" stop-color="#496B22"/>
</linearGradient>
<linearGradient id="paint9_linear_605_90" x1="31953" y1="599.757" x2="31953" y2="1031.92" gradientUnits="userSpaceOnUse">
<stop stop-color="#A3A32F"/>
<stop offset="1" stop-color="#496B22"/>
</linearGradient>
<linearGradient id="paint10_linear_605_90" x1="31995.6" y1="553.895" x2="31995.1" y2="1150.9" gradientUnits="userSpaceOnUse">
<stop stop-color="#C2C238"/>
<stop offset="1" stop-color="#496B22"/>
</linearGradient>
<linearGradient id="paint11_linear_605_90" x1="962.06" y1="63.38" x2="958.73" y2="455.14" gradientUnits="userSpaceOnUse">
<stop offset="0.15" stop-color="#A6C521"/>
<stop offset="1" stop-color="#3A8317"/>
</linearGradient>
<linearGradient id="paint12_linear_605_90" x1="1.02419e+06" y1="19826.8" x2="1.02414e+06" y2="58821.4" gradientUnits="userSpaceOnUse">
<stop offset="0.15" stop-color="#A6C521"/>
<stop offset="1" stop-color="#3A8317"/>
</linearGradient>
</defs>
</svg>
