<svg width="338" height="355" viewBox="0 0 338 355" fill="none" xmlns="http://www.w3.org/2000/svg">
<path d="M263.076 142.225C263.076 142.225 261.511 136.613 254.82 138.718C248.128 140.822 250.462 146.596 250.462 146.596C245.403 145.477 242.017 148.418 243.285 151.17C238.887 146.907 219.77 147.838 223.507 169.626C221.982 168.87 220.984 171.164 220.984 171.164C216.1 166.928 202.258 171.164 208.586 179.919C208.586 179.919 196.808 182.914 203.432 189.66C203.432 189.66 197.779 194.53 201.341 200.453C202.179 202.052 203.61 203.259 205.327 203.816C207.044 204.374 208.911 204.237 210.529 203.434C210.529 203.434 204.404 218.086 221.025 216.696C221.308 221.755 230.198 221.89 230.198 221.89C230.198 221.89 229.942 233.614 238.415 234.221C240.641 241.547 256.398 245.958 261.214 237.823C263.184 240.521 267.029 236.892 267.029 236.892C267.164 240.656 274.017 242.504 280.142 237.567C284.621 247.348 312.454 249.21 306.248 227.637C312.049 228.986 314.868 225.371 313.371 222.834C317.418 226.045 323.057 221.148 317.054 215.495C330.545 220.069 339.989 206.052 337.641 200.048C335.294 194.045 324.542 192.534 324.542 192.534C324.542 192.534 336.886 183.319 323.044 176.101C328.063 169.707 325.648 153.774 303.064 159.224C302.814 158.619 302.447 158.069 301.984 157.605C301.521 157.142 300.971 156.775 300.366 156.526C305.991 153.828 297.802 141.497 284.864 149.645C282.598 135.939 268.041 133.645 263.076 142.225Z" fill="#539832"/>
<g style="mix-blend-mode:multiply" opacity="0.4">
<path d="M337.601 200.008C335.226 194.018 324.501 192.493 324.501 192.493C324.501 192.493 336.845 183.279 323.004 176.061C328.022 169.666 325.607 153.733 303.023 159.184C302.774 158.578 302.407 158.028 301.944 157.565C301.481 157.102 300.931 156.735 300.325 156.485C305.951 153.787 297.762 141.456 284.824 149.605C282.652 135.871 268.095 133.578 263.09 142.158C263.09 142.158 261.525 136.546 254.833 138.65C248.142 140.755 250.476 146.529 250.476 146.529C245.416 145.409 242.03 148.35 243.298 151.102C238.9 146.839 219.783 147.77 223.52 169.558C221.996 168.803 220.998 171.096 220.998 171.096C216.114 166.86 202.272 171.096 208.599 179.852C208.599 179.852 196.822 182.847 203.446 189.592C203.446 189.592 197.793 194.463 201.355 200.385C202.193 201.984 203.623 203.192 205.341 203.749C207.058 204.306 208.925 204.169 210.542 203.367C210.542 203.367 204.417 218.018 221.038 216.629C221.321 221.688 230.212 221.823 230.212 221.823C230.212 221.823 229.956 233.546 238.428 234.153C240.654 241.479 256.412 245.891 261.228 237.756C263.198 240.454 267.043 236.825 267.043 236.825C267.177 240.589 274.031 242.437 280.156 237.499C284.635 247.28 312.467 249.142 306.261 227.57C312.062 228.919 314.882 225.303 313.384 222.767C317.432 225.978 323.071 221.081 317.067 215.428C330.532 220.028 339.975 205.998 337.601 200.008ZM307.03 204.325C308.851 205.944 308.055 208.979 305.829 211.07C301.984 214.618 297.276 214.389 294.47 210.423C294.057 210.425 293.65 210.328 293.283 210.139C293.458 212.662 293.053 215.833 290.719 217.087C290.089 217.491 289.357 217.706 288.608 217.706C287.86 217.706 287.127 217.491 286.497 217.087C285.593 222.16 279.535 226.76 273.883 223.833C270.159 221.917 268.594 216.629 271.481 214.227C268.392 213.499 267.866 210.598 268.85 207.698C266.368 206.767 266.152 203.556 267.677 200.952C260.931 203.394 249.612 202.557 250.691 195.987C248.061 197.903 243.946 199.643 241.976 198.24C241.207 201.06 239.278 204.001 236.377 204.662C233.167 205.391 231.548 203.704 231.548 201.667C227.945 204.918 221.874 208.251 218.272 205.62C212.768 201.573 217.895 196.257 223.305 195.002C218.084 190.955 237.241 180.23 236.796 188.999C239.494 186.665 244.216 186.301 244.701 189.377C247.238 187.286 250.543 186.854 252.971 189.309C253.896 187.669 255.196 186.271 256.765 185.23C258.334 184.189 260.126 183.534 261.997 183.319C262.583 183.274 263.172 183.333 263.737 183.495C264.042 182.352 264.643 181.31 265.478 180.473C266.666 179.26 268.277 178.554 269.974 178.501C271.671 178.448 273.322 179.053 274.584 180.189C274.49 177.491 275.448 174.995 278.47 174.496C277.701 173.027 277.361 171.372 277.487 169.719C277.614 168.066 278.202 166.482 279.185 165.147C281.316 162.368 286.389 161.706 289.559 163.339C295.765 166.59 293.512 174.307 290.989 179.663C292.797 178.314 295.037 177.289 297.195 177.936C298.35 178.263 299.341 179.008 299.974 180.027C302.179 179.016 304.632 178.673 307.03 179.042C313.843 180.392 312.332 186.044 309.094 189.957C313.708 188.216 320.049 187.393 320.359 192.655C320.818 198.834 313.695 203.326 307.03 204.325Z" fill="#569132"/>
</g>
<g style="mix-blend-mode:multiply" opacity="0.4">
<path d="M337.601 200.008C335.537 194.773 327.105 192.952 324.96 192.56C324.858 192.63 324.749 192.688 324.636 192.736C326.848 193.829 329.074 195.178 329.533 197.417C329.868 198.777 329.902 200.194 329.635 201.568C329.367 202.943 328.803 204.242 327.982 205.377C324.447 209.91 317.823 212.905 311.968 210.058C312.476 210.901 312.794 211.845 312.899 212.824C313.004 213.803 312.893 214.793 312.575 215.725C312.364 216.449 311.898 217.072 311.263 217.479C310.628 217.886 309.867 218.049 309.121 217.937C309.361 218.974 309.24 220.061 308.779 221.02C308.318 221.979 307.544 222.752 306.585 223.212C305.963 223.598 305.266 223.847 304.54 223.942C303.814 224.038 303.076 223.977 302.376 223.765C302.605 227.111 301.634 230.511 298.693 232.224C295.994 233.884 292.163 232.858 290.153 230.875C289.703 230.408 289.334 229.871 289.06 229.283C288.178 229.88 287.209 230.335 286.186 230.632C283.124 231.563 279.333 230.093 279.171 227.934C274.8 230.821 267.987 232.818 264.965 227.732C264.338 226.669 263.95 225.483 263.827 224.255C263.703 223.028 263.848 221.788 264.25 220.622C262.974 220.593 261.741 220.158 260.729 219.381C258.206 223.212 253.457 226.679 248.938 225.222C247.781 224.934 246.728 224.328 245.898 223.472C245.068 222.616 244.495 221.544 244.243 220.379C242.984 220.536 241.708 220.291 240.597 219.681C239.485 219.07 238.594 218.125 238.05 216.979C237.645 215.91 237.645 214.73 238.05 213.661C234.947 216.062 230.819 217.087 227.042 214.376C226.19 213.778 225.462 213.022 224.896 212.15C223.665 212.914 222.286 213.41 220.849 213.607C216.721 214.173 216.303 210.908 217.773 208.574C213.132 208.237 210.798 205.66 211.756 202.018C210.34 202.927 208.812 203.648 207.21 204.163C208.342 204.166 209.46 203.922 210.488 203.448C210.488 203.448 204.363 218.099 220.984 216.71C221.267 221.769 230.158 221.904 230.158 221.904C230.158 221.904 229.902 233.627 238.374 234.234C240.6 241.56 256.358 245.972 261.174 237.837C263.144 240.535 266.989 236.906 266.989 236.906C267.124 240.67 273.977 242.518 280.102 237.58C284.581 247.361 312.413 249.223 306.207 227.651C312.008 229 314.828 225.384 313.33 222.848C317.378 226.059 323.017 221.162 317.013 215.509C330.532 220.028 339.975 205.998 337.601 200.008Z" fill="#457728"/>
</g>
<g style="mix-blend-mode:multiply" opacity="0.4">
<path d="M203.716 196.851C204.795 195.839 207.763 194.948 209.044 195.771C209.931 194.794 211.05 194.056 212.297 193.624C213.544 193.193 214.88 193.082 216.181 193.303C213.024 185.397 232.978 176.439 239.386 185.356C239.735 185.244 240.091 185.154 240.452 185.086C241.661 184.797 242.919 184.781 244.135 185.04C245.351 185.3 246.494 185.827 247.481 186.584C249.976 184.574 254.428 183.629 258.273 183.71C259.199 181.048 260.82 178.682 262.968 176.857C264.16 175.759 265.599 174.964 267.163 174.539C268.727 174.114 270.37 174.072 271.953 174.415C269.66 169.869 271.265 164.351 275.731 160.6C277.395 159.208 279.395 158.278 281.532 157.902C284.014 153.949 289.856 151.089 294.119 153.855C297.694 156.202 297.478 160.438 295.698 164.189C297.347 163.661 299.087 163.478 300.811 163.649C305.114 164.216 306.45 166.806 306.207 169.923C309.378 166.186 313.83 163.177 319.388 163.433C321.008 163.49 322.598 163.885 324.056 164.594C321.735 159.737 315.462 156.216 302.929 159.197C302.679 158.592 302.312 158.042 301.849 157.578C301.386 157.115 300.836 156.748 300.231 156.499C305.856 153.801 297.667 141.47 284.729 149.618C282.557 135.885 268 133.591 262.995 142.171C262.995 142.171 261.43 136.559 254.739 138.664C248.047 140.768 250.381 146.543 250.381 146.543C245.322 145.423 241.936 148.364 243.204 151.116C238.806 146.853 219.689 147.784 223.426 169.572C221.901 168.816 220.903 171.11 220.903 171.11C216.019 166.874 202.178 171.11 208.505 179.865C208.505 179.865 196.727 182.86 203.351 189.606C203.351 189.606 197.699 194.476 201.26 200.399C201.503 200.763 201.719 201.114 201.962 201.424C201.859 200.577 201.965 199.717 202.271 198.92C202.576 198.122 203.072 197.412 203.716 196.851Z" fill="#457728"/>
</g>
<path d="M134.911 203.677C134.911 203.677 158.237 197.795 143.572 182.523C145.637 177.356 135.99 172.189 131.093 174.361C139.701 168.25 138.136 151.979 122.418 152.249C122.418 152.249 130.405 129.314 99.1599 132.188C103.598 120.046 84.3197 114.65 76.1037 124.835C70.7072 115.675 56.4472 121.314 55.6647 129.126C49.931 116.795 20.9117 121.732 25.9844 142.779C16.5406 139.379 14.1257 146.408 15.0026 150.441C5.88266 145.666 -7.47349 160.398 6.24692 171.164C-4.03327 175.144 -0.188314 188.972 7.46112 189.296C-0.390681 197.647 8.81023 198.294 11.4275 199.023C5.76125 209.02 11.5759 216.764 19.8189 212.514C17.2421 222.7 32.4061 216.561 32.4061 216.561C30.0721 229.499 51.8467 239.226 58.4034 228.258C60.4001 238.565 70.5453 232.791 70.5453 232.791C71.2874 240.467 92.5088 239.307 92.5897 229.27C100.603 238.713 117.737 226.437 115.106 220.285C124.537 223.185 136.503 215.455 134.911 203.677Z" fill="#509D32"/>
<g style="mix-blend-mode:multiply" opacity="0.4">
<path d="M143.559 182.55C145.623 177.383 135.977 172.216 131.08 174.388C139.687 168.277 138.122 152.006 122.405 152.276C122.405 152.276 130.392 129.341 99.1464 132.215C103.585 120.073 84.3062 114.677 76.0902 124.862C70.6937 115.702 56.4337 121.341 55.6512 129.153C49.9175 116.822 20.8982 121.759 25.9709 142.805C16.5271 139.406 14.1122 146.435 14.9891 150.468C5.88266 145.666 -7.47349 160.398 6.24692 171.164C-4.03327 175.144 -0.188314 188.972 7.46112 189.296C-0.39068 197.647 8.81022 198.294 11.4275 199.023C5.76124 209.02 11.5759 216.764 19.8189 212.514C17.2421 222.7 32.4061 216.561 32.4061 216.561C30.0721 229.499 51.8467 239.226 58.4034 228.258C60.4001 238.565 70.5453 232.791 70.5453 232.791C71.2873 240.467 92.5088 239.307 92.5897 229.27C100.603 238.713 117.737 226.437 115.106 220.285C124.55 223.212 136.517 215.482 134.911 203.731C134.911 203.677 158.224 197.822 143.559 182.55ZM4.97876 183.441C5.07612 182.631 5.44743 181.879 6.03107 181.309C6.07752 181.19 6.15149 181.084 6.24692 180.999C6.74221 180.517 7.34807 180.165 8.01136 179.972C8.67466 179.779 9.37514 179.752 10.0514 179.892C10.616 180.029 11.1391 180.301 11.576 180.684C12.013 181.067 12.3508 181.55 12.5607 182.091C13.3972 184.506 10.6045 186.921 7.97378 186.921C7.53676 186.925 7.10423 186.833 6.70629 186.652C6.30834 186.472 5.95454 186.206 5.66949 185.875C5.38444 185.544 5.17498 185.154 5.0557 184.734C4.93641 184.314 4.91016 183.872 4.97876 183.441ZM22.9354 204.743C22.4876 205.914 21.7627 206.958 20.8229 207.788C19.8831 208.617 18.7563 209.207 17.5389 209.505C14.7328 210.139 11.3735 208.008 12.4798 205.202C12.963 204.165 13.7019 203.268 14.627 202.596C15.5522 201.923 16.6331 201.497 17.7683 201.357C17.9158 201.211 18.1142 201.129 18.3214 201.127C20.9792 200.979 23.9067 201.937 22.9354 204.743ZM31.6776 205.903C30.8411 206.618 29.6404 206.888 28.804 207.576C28.1834 208.075 27.6303 207.441 27.9001 206.929C27.9001 206.929 27.9001 206.834 27.9001 206.686C27.8592 206.535 27.8003 206.39 27.7247 206.254C27.5417 205.9 27.4534 205.505 27.4684 205.107C27.7112 203.758 29.2492 203.367 30.5983 203.259C31.2594 203.259 31.3268 203.758 31.0705 204.149C31.3876 204.197 31.6835 204.338 31.9204 204.554C31.9977 204.656 32.0536 204.772 32.0846 204.896C32.1157 205.02 32.1213 205.149 32.1011 205.275C32.081 205.401 32.0354 205.522 31.9672 205.63C31.8991 205.738 31.8097 205.831 31.7046 205.903H31.6776ZM36.8042 179.258C36.7709 180.223 36.4935 181.163 35.998 181.991C35.5026 182.819 34.8052 183.508 33.9711 183.994C31.9609 185.167 29.3301 185.586 27.5898 184.318C26.5645 189.444 20.507 195.367 14.49 193.761C7.81189 191.913 11.8727 186.112 16.9858 185.667C16.9221 184.987 17.0935 184.306 17.4715 183.737C17.0488 183.634 16.6519 183.445 16.3055 183.182C15.9591 182.918 15.6706 182.586 15.4579 182.207C15.2453 181.827 15.1132 181.408 15.0696 180.975C15.0261 180.542 15.0722 180.104 15.205 179.69C12.8171 179.879 10.2808 179.204 9.80856 176.992C9.20147 174.172 12.0076 172.756 14.7868 172.243C13.4377 171.096 13.4377 169.302 13.7075 167.373C9.05306 166.739 5.95012 162.233 8.49993 157.929C10.6315 154.34 14.6653 155.069 18.0246 156.688C17.9007 155.561 18.0776 154.422 18.5374 153.387C18.9972 152.351 19.7233 151.456 20.6419 150.792C20.5528 149.965 20.6728 149.129 20.991 148.361C21.3093 147.592 21.8155 146.916 22.4632 146.394C24.1765 144.995 26.3734 144.331 28.5746 144.546C28.3876 143.764 28.351 142.954 28.4667 142.158C28.8849 139.46 29.9912 137.234 32.6759 137.166C32.3696 136.193 32.4263 135.141 32.8356 134.206C33.2448 133.271 33.9789 132.516 34.9019 132.08C33.5528 127.115 44.6425 123.216 45.452 129.18C46.2999 128.73 47.2397 128.482 48.1988 128.454C49.1579 128.426 50.1106 128.619 50.9833 129.018C54.9362 130.974 54.8148 135.966 53.1554 139.622C53.9716 139.199 54.8808 138.987 55.7998 139.006C56.7189 139.025 57.6186 139.274 58.4169 139.73C58.0121 136.842 58.0121 133.766 60.481 132.175C62.9499 130.583 66.4036 130.556 68.09 133.038C69.1081 134.866 69.3881 137.014 68.8724 139.041C70.3373 138.616 71.8821 138.543 73.3806 138.829C74.879 139.115 76.2883 139.752 77.4932 140.687C79.5439 142.401 78.8423 145.059 77.156 146.866C80.839 147.392 83.4833 150.334 79.6788 153.679C76.5158 156.11 72.6586 157.467 68.6701 157.551C68.7603 157.946 68.7603 158.357 68.6701 158.752C68.1438 160.205 67.2638 161.503 66.1096 162.53C64.9554 163.557 63.5634 164.28 62.0595 164.634L61.5198 164.796C61.6234 166.359 61.2007 167.912 60.3191 169.208C58.97 171.461 55.5703 173.66 53.007 172.972C53.2633 175.872 51.5094 179.285 48.0287 179.218C46.1735 179.125 44.3643 178.608 42.7403 177.707C42.263 178.481 41.5589 179.089 40.7237 179.449C39.8884 179.809 38.9627 179.902 38.0723 179.717C37.6407 179.618 37.2235 179.464 36.8312 179.258H36.8042ZM93.2643 208.939C90.7568 210.495 87.9295 211.464 84.9943 211.772C84.2651 213.695 83.1177 215.432 81.635 216.858C77.9519 220.528 70.5993 223.118 68.6161 218.207C67.1051 221.324 64.0966 223.887 59.9953 221.809C58.2017 220.951 56.7378 219.529 55.8266 217.762C52.7371 220.797 48.6898 222.821 44.4401 222.146C35.7519 220.797 37.8835 210.814 44.4401 209.289C41.7419 206.24 45.2091 199.171 51.0777 198.402C53.4926 194.126 60.5215 190.2 62.9229 196.122C64.272 191.805 66.7274 188.028 72.3666 187.043C77.2369 186.193 81.0819 187.987 82.1072 191.98C84.9133 188.77 89.6891 188.824 93.0754 192.102C96.4617 195.38 95.0586 198.996 92.0366 201.438C92.7423 201.329 93.4632 201.484 94.0625 201.872C94.6618 202.26 95.0979 202.854 95.2879 203.542C95.5906 204.534 95.5592 205.598 95.1984 206.571C94.8377 207.543 94.1677 208.37 93.2913 208.925L93.2643 208.939Z" fill="#569132"/>
</g>
<g style="mix-blend-mode:multiply" opacity="0.4">
<path d="M65.5671 123.702C66.4572 125.437 67.9794 126.764 69.8196 127.409C71.6598 128.055 73.6774 127.969 75.4561 127.169C76.4274 126.778 76.387 127.965 75.7259 128.33C70.9366 130.798 78.4241 134.063 80.7985 134.751C84.1848 135.709 88.1512 136.303 91.389 134.643C92.3739 134.252 92.3604 135.453 91.6723 135.804C83.5777 138.974 85.8577 147.649 92.0501 151.413C92.6437 151.764 91.8882 152.465 91.4969 152.587C88.2861 153.463 84.0364 155.069 83.4023 158.401C83.2052 159.461 83.3065 160.554 83.6948 161.559C84.0831 162.565 84.7432 163.442 85.6014 164.094C91.2811 168.506 95.5443 162.624 96.9069 157.956C97.0823 157.322 98.256 157.052 98.256 157.862C98.6742 163.879 107.174 161.626 110.978 159.899C117.143 157.106 120.88 152.006 123.322 146.408C122.434 145.164 121.333 144.086 120.071 143.224C119.45 142.792 120.462 141.74 121.15 142.158C121.862 142.641 122.518 143.203 123.107 143.831C122.23 137.638 117.373 130.542 99.1464 132.175C103.585 120.033 84.3062 114.636 76.0902 124.822C73.3919 120.302 68.6026 119.425 64.3259 120.559C64.5842 121.661 65.0024 122.72 65.5671 123.702Z" fill="#569132"/>
</g>
<g style="mix-blend-mode:multiply" opacity="0.3">
<path d="M143.559 182.55C145.623 177.383 135.977 172.216 131.08 174.388C138.5 169.113 138.351 156.324 128.098 153.045C129.987 159.872 128.665 166.955 120.273 166.28C121.623 169.99 120.759 175.953 115.579 176.385C109.993 176.857 107.565 171.852 106.54 167.4C105.941 168.514 105.082 169.466 104.034 170.174C102.987 170.883 101.783 171.326 100.527 171.467C99.2701 171.607 97.9982 171.441 96.8202 170.982C95.6421 170.522 94.5932 169.784 93.7635 168.83C92.4144 172.364 88.8123 174.226 84.5896 174.55C85.5815 176.834 85.7015 179.402 84.9268 181.768C89.2844 181.12 94.9912 181.296 98.7822 183.117C102.573 184.938 101.48 187.717 99.1599 189.984C102.56 189.984 106.89 190.888 108.145 193.869C109.197 196.352 108.145 198.321 106.216 199.913C109.642 200.008 112.664 201.721 112.03 205.31C111.585 207.832 109.332 208.831 106.998 208.601C110.654 214.969 102.951 222.875 96.718 217.371C96.1623 219.366 95.1693 221.212 93.8112 222.775C92.4531 224.339 90.7639 225.58 88.8662 226.41C84.8189 228.083 82.0397 226.733 80.9065 223.563C80.0187 225.197 78.7183 226.57 77.1348 227.546C75.5513 228.521 73.7398 229.064 71.881 229.121C68.3463 229.121 67.3884 227.071 68.1979 224.723C64.7442 226.248 61.6682 225.883 57.9717 224.305C56.5146 227.907 51.3611 231.523 49.3644 227.233C47.5092 229.235 45.1378 230.687 42.5109 231.428C48.393 233.897 55.206 233.479 58.4034 228.137C60.4001 238.444 70.5454 232.67 70.5454 232.67C71.2874 240.346 92.5088 239.186 92.5897 229.148C100.603 238.592 117.737 226.315 115.106 220.163C124.55 223.091 136.517 215.36 134.911 203.61C134.911 203.677 158.224 197.822 143.559 182.55Z" fill="#178137"/>
</g>
<g style="mix-blend-mode:multiply" opacity="0.3">
<path d="M143.559 182.55C145.623 177.383 135.977 172.216 131.08 174.388C138.5 169.113 138.352 156.324 128.098 153.045C129.987 159.872 128.665 166.955 120.274 166.28C121.623 169.99 120.759 175.953 115.579 176.385C109.993 176.857 107.565 171.852 106.54 167.4C105.998 168.414 105.227 169.287 104.287 169.95C105.901 171.895 106.872 174.293 107.065 176.813C107.259 179.334 106.665 181.852 105.366 184.021C111.113 181.498 122.419 179.973 120.206 186.193C125.926 183.198 133.697 185.518 133.023 192.534C132.577 197.296 126.992 198.321 122.149 197.701C125.589 200.763 127.1 205.256 124.847 209.627C122.594 213.998 118.56 214.591 115.403 211.961C115.427 213.649 115.018 215.315 114.215 216.801C113.412 218.286 112.242 219.541 110.816 220.447C108.968 221.526 107.659 221.337 106.931 220.339C105.245 225.735 101.116 230.848 94.789 230.983C103.302 236.771 117.724 225.91 115.309 220.19C124.753 223.118 136.719 215.387 135.114 203.637C134.911 203.677 158.224 197.822 143.559 182.55Z" fill="#178137"/>
</g>
<path d="M242.907 200.143C242.907 200.143 240.209 211.812 226.92 220.986C213.631 230.16 204.35 238.97 203.001 236.933C201.651 234.895 202.366 223.698 201.395 213.998C200.046 200.777 202.596 189.498 208.788 175.643C214.981 161.787 216.1 154.556 226.327 143.399C223.48 139.891 224.195 138.003 224.195 138.003C224.195 138.003 216.546 148.876 214.468 148.796C212.39 148.715 216.546 136.208 216.546 136.208L210.461 133.524C210.461 133.524 209.112 152.33 205.672 164.202C202.232 176.074 188.956 204.379 185.435 204.676C181.914 204.972 184.747 179.515 185.435 169.046C186.123 158.577 188.552 152.087 190.616 148.998C192.68 145.908 196.835 137.598 196.835 137.598C196.835 137.598 191.762 138.637 188.471 136.802C181.226 150.293 179.027 167.737 178.582 178.773C177.894 196.81 177.044 201.195 174.413 200.507C171.782 199.819 169.246 191.967 168.045 187.65C166.844 183.333 162.015 175.157 160.693 170.273C159.37 165.39 159.964 162.341 166.183 151.885C172.403 141.429 171.971 138.232 171.971 138.232C169.388 139.442 166.527 139.936 163.688 139.662C163.688 139.662 161.165 150.725 158.129 154.057C155.094 157.389 156.362 168.519 152.638 164.283C148.915 160.047 143.006 153.248 139.404 146.529C135.802 139.81 134.776 138.92 134.776 138.92L128.031 136.627C128.031 136.627 128.881 138.245 128.22 138.839C134.061 146.799 140.658 157.254 149.36 169.329C157.262 180.645 162.446 193.632 164.511 207.279C166.426 219.327 168.275 226.585 164.78 225.964C161.286 225.344 147.242 217.411 141.144 211.556C130.729 201.573 127.37 196.365 125.022 191.144C120.957 181.971 117.794 172.423 115.578 162.637C111.531 161.126 111.221 160.654 111.221 160.654C111.221 160.654 113.447 171.568 112.125 171.744C110.803 171.919 95.1125 158.536 95.1125 158.536L91.3755 159.548C91.3755 159.548 106.755 171.029 113.514 181.538C120.273 192.048 120.961 195.326 120.961 195.326C116.551 194.009 112.226 192.423 108.01 190.577C99.2812 186.948 95.7061 185.68 89.6081 180.338C83.5102 174.995 78.6264 171.299 78.6264 171.299L76.4678 171.487C76.4678 171.487 78.2756 177.491 78.0868 178.381C78.0868 178.381 86.6536 185.424 92.8595 188.135C100.819 191.52 108.368 195.797 115.363 200.884C130.675 211.866 142.034 220.973 150.817 226.733C159.6 232.494 164.511 241.574 166.925 248.063C169.34 254.552 167.937 265.21 168.949 271.497C169.961 277.784 167.789 279.106 164.241 275.949C160.693 272.792 154.311 266.68 148.969 263.078C143.626 259.476 127.221 243.57 127.221 243.57C127.221 243.57 125.616 246.161 124.334 246.457C133.373 254.552 143.572 265.277 141.873 265.345C140.173 265.412 110.843 264.117 110.843 264.117C110.843 264.117 113.15 265.804 110.263 268.933C124.199 269.473 125.386 270.458 133.198 270.431C141.009 270.404 160.693 275.072 165.306 287.052C169.92 299.032 173.86 330.223 170.406 351.067C170.406 351.067 169.691 355.114 187.945 354.521C206.198 353.927 215.142 352.848 213.362 348.126C211.581 343.404 208.114 334.392 207.007 327.35C205.901 320.307 201.827 297.184 203.041 279.227C204.255 261.271 213.227 245.27 227.676 240.238C242.125 235.206 251.676 235.624 270.051 225.398C269.005 224.564 268.188 223.477 267.677 222.241C256.735 227.084 238.819 234.005 228.256 233.816C231.71 227.921 235.244 221.58 241.747 218.976C248.25 216.372 260.014 212.365 260.014 212.365C258.61 211.793 257.237 211.149 255.899 210.436C251.46 211.988 243.986 213.661 242.921 212.487C241.855 211.313 248.668 199.873 248.668 199.873C248.668 199.873 244.04 200.143 242.907 200.143Z" fill="#654209"/>
<g style="mix-blend-mode:multiply" opacity="0.3">
<g style="mix-blend-mode:multiply" opacity="0.3">
<path d="M267.677 222.227C256.735 227.071 238.819 233.992 228.256 233.803C231.71 227.907 235.244 221.566 241.747 218.963C248.25 216.359 260.014 212.352 260.014 212.352C258.61 211.78 257.237 211.136 255.899 210.423C251.46 211.974 243.986 213.647 242.921 212.473C241.855 211.3 248.668 199.859 248.668 199.859C248.668 199.859 244.094 200.156 242.961 200.156C242.961 200.156 240.263 211.826 226.974 221C213.685 230.174 204.404 238.983 203.054 236.946C201.705 234.909 202.42 223.711 201.449 214.011C200.1 200.79 202.65 189.512 208.842 175.656C215.035 161.801 216.154 154.57 226.381 143.413C223.534 139.905 224.249 138.016 224.249 138.016C224.249 138.016 216.6 148.89 214.522 148.809C212.444 148.728 216.6 136.222 216.6 136.222L210.461 133.524C210.461 133.524 209.112 152.33 205.672 164.202C202.232 176.074 188.956 204.379 185.435 204.676C181.914 204.972 184.747 179.515 185.435 169.046C186.123 158.577 188.552 152.087 190.616 148.998C192.68 145.908 196.835 137.598 196.835 137.598C196.835 137.598 191.762 138.637 188.471 136.802C181.226 150.293 179.027 167.737 178.582 178.773C177.894 196.81 177.044 201.195 174.413 200.507C171.782 199.819 169.246 191.967 168.045 187.65C166.844 183.333 162.015 175.157 160.693 170.273C159.37 165.39 159.964 162.341 166.183 151.885C172.403 141.429 171.971 138.232 171.971 138.232C169.388 139.442 166.527 139.936 163.688 139.662C163.688 139.662 161.165 150.725 158.129 154.057C155.094 157.389 156.362 168.519 152.638 164.283C148.915 160.047 143.006 153.248 139.404 146.529C135.802 139.81 134.776 138.92 134.776 138.92L128.031 136.627C128.031 136.627 128.881 138.245 128.22 138.839C134.061 146.799 140.658 157.254 149.36 169.329C157.262 180.645 162.446 193.632 164.511 207.279C166.426 219.327 168.275 226.585 164.78 225.964C161.286 225.344 147.242 217.411 141.144 211.556C130.729 201.573 127.37 196.365 125.022 191.144C120.957 181.971 117.794 172.423 115.578 162.637C111.531 161.126 111.221 160.654 111.221 160.654C111.221 160.654 113.447 171.568 112.125 171.744C110.803 171.919 95.1125 158.536 95.1125 158.536L91.3755 159.548C91.3755 159.548 106.755 171.029 113.514 181.538C120.273 192.048 120.961 195.326 120.961 195.326C116.551 194.009 112.226 192.423 108.01 190.577C99.2812 186.948 95.7061 185.68 89.6081 180.338C83.5102 174.995 78.6264 171.299 78.6264 171.299L76.4678 171.487C76.4678 171.487 78.2756 177.491 78.0868 178.381C78.0868 178.381 86.6536 185.424 92.8595 188.135C100.819 191.52 108.368 195.797 115.363 200.884C130.675 211.866 142.034 220.973 150.817 226.733C159.6 232.494 164.511 241.574 166.925 248.063C169.34 254.552 167.937 265.21 168.949 271.497C169.961 277.784 167.789 279.106 164.241 275.949C160.693 272.792 154.311 266.68 148.969 263.078C143.626 259.476 127.221 243.57 127.221 243.57C127.221 243.57 125.616 246.161 124.334 246.457C133.373 254.552 143.572 265.277 141.873 265.345C140.173 265.412 110.843 264.117 110.843 264.117C110.843 264.117 113.15 265.804 110.263 268.933C124.199 269.473 125.386 270.458 133.198 270.431C136.27 270.512 139.324 270.932 142.304 271.686C142.305 271.488 142.376 271.296 142.504 271.146C142.633 270.995 142.81 270.895 143.006 270.863C153.515 269.959 159.762 277.5 164.591 284.785C164.649 284.874 164.68 284.977 164.68 285.082C164.68 285.188 164.649 285.291 164.591 285.379C164.901 285.919 165.175 286.478 165.414 287.052C170.028 299.032 173.968 330.223 170.514 351.067C170.514 351.067 169.799 355.114 188.052 354.521C206.306 353.927 215.25 352.848 213.47 348.126C211.689 343.404 208.222 334.392 207.115 327.35C206.009 320.307 201.827 297.184 203.041 279.227C204.255 261.271 213.227 245.27 227.676 240.238C242.125 235.206 251.676 235.624 270.051 225.398C269.003 224.56 268.186 223.469 267.677 222.227ZM170.541 208.817C170.541 208.305 171.445 207.711 171.89 208.264C174.926 212.311 175.937 216.939 176.76 221.647C177.179 217.006 177.975 212.392 180.457 208.318C180.74 207.832 181.725 207.657 181.725 208.386C181.725 211.907 180.835 215.32 180.619 218.814C180.603 222.343 181.141 225.853 182.211 229.216C183.621 235.15 184.301 241.235 184.234 247.334C184.28 259.446 182.557 271.499 179.121 283.113C178.959 283.571 177.921 284.057 177.772 283.355C175.573 273.547 177.111 263.658 176.706 253.769C176.326 243.128 175.276 232.521 173.563 222.012C173.343 220.83 173.05 219.663 172.686 218.517C171.566 215.306 170.433 212.19 170.595 208.817H170.541ZM154.824 226.612C146.635 221.458 138.041 216.48 131.457 209.667C128.758 206.712 126.487 203.393 124.712 199.805C121.064 194.132 118.073 188.062 115.794 181.714C115.565 181.134 116.739 180.365 117.143 181.012C122.283 190.065 126.155 199.751 133.697 207.549C140.281 214.295 148.213 219.839 155.917 225.546C156.497 226.072 155.485 227.098 154.824 226.612ZM169.988 251.854C168.558 244.717 164.591 238.673 160.544 232.521C159.303 230.943 158.048 229.391 156.848 227.786C156.416 227.26 157.414 226.437 157.981 226.841C164.632 231.32 173.523 237.634 174.696 245.58C175.465 250.694 174.062 255.766 174.143 260.866C174.337 266.209 174.26 271.558 173.914 276.893C173.914 277.433 172.713 278.094 172.565 277.298C170.757 268.879 171.701 260.34 169.988 251.854ZM177.961 339.681C177.961 340.396 176.612 340.827 176.612 339.937C176.491 331.599 174.197 323.41 173.981 315.073C173.846 309.528 173.671 303.983 173.536 298.425C173.446 298.383 173.369 298.316 173.314 298.233C173.259 298.149 173.229 298.052 173.226 297.953C172.983 292.313 172.308 286.688 173.023 281.048C173.104 280.536 174.251 279.821 174.372 280.63C176.207 290.344 179.958 299.976 180.43 309.838C180.902 319.7 178.447 329.711 177.975 339.681H177.961ZM186.73 293.123C186.069 300.192 185.381 307.248 184.14 314.25C184.059 314.763 182.939 315.491 182.791 314.655C181.312 306.567 181.463 298.265 183.236 290.236C183.634 284.118 184.906 278.09 187.014 272.333C187.216 271.821 188.525 271.416 188.363 272.252C187.068 279.106 187.432 286.202 186.744 293.123H186.73ZM189.536 222.335C190.458 215.819 191.929 209.392 193.935 203.124C194.123 202.557 195.284 202.207 195.284 203.057C195.189 210.382 196.754 217.573 196.12 224.912C195.511 231.726 194.214 238.461 192.248 245.014C192.113 245.499 191.034 246.012 190.899 245.27C189.518 237.849 189.286 230.259 190.211 222.767C189.874 222.902 189.482 222.821 189.55 222.335H189.536ZM225.004 226.612C213.861 238.552 200.41 248.805 191.614 262.404C191.25 262.97 190.171 262.97 190.373 262.147C192.909 252.353 199.952 245.23 207.803 238.633C207.85 238.47 207.944 238.324 208.073 238.214C213.294 233.884 218.245 229.27 224.262 225.776C224.991 225.371 225.531 226.086 225.004 226.612Z" fill="#654209"/>
</g>
<g style="mix-blend-mode:multiply" opacity="0.3">
<path d="M144.018 272.09C148.627 273.272 153.027 275.156 157.064 277.676C155.403 275.881 153.383 274.456 151.135 273.494C148.888 272.532 146.463 272.053 144.018 272.09Z" fill="#654209"/>
</g>
</g>
<g style="mix-blend-mode:multiply" opacity="0.3">
<g style="mix-blend-mode:multiply" opacity="0.3">
<path d="M83.0249 176.992C86.7674 180.917 91.0136 184.328 95.6525 187.137C104.287 192.614 113.811 195.677 123.228 199.576C122.055 198.011 120.84 196.459 119.599 194.881C117.764 194.301 113.892 192.992 107.97 190.523C99.2411 186.894 95.666 185.626 89.568 180.284C83.4701 174.941 78.6268 171.299 78.6268 171.299L77.1967 171.406C79.3506 173.035 81.3066 174.909 83.0249 176.992Z" fill="#654209"/>
</g>
<g style="mix-blend-mode:multiply" opacity="0.3">
<path d="M112.084 171.69C110.735 171.852 95.0721 158.482 95.0721 158.482L93.2238 158.968C99.8075 165.322 108.064 170.084 114.27 176.762C120.166 183.117 122.972 191.535 127.545 198.631C132.942 206.982 139.916 212.932 148.524 218.639C156.362 223.833 164.403 228.744 171.661 234.558C169.516 228.744 169.435 222.484 167.06 216.669C166.521 215.32 165.954 213.971 165.401 212.716C166.845 221.418 167.654 226.437 164.753 225.91C161.246 225.236 147.215 217.357 141.117 211.502C130.702 201.519 127.343 196.311 124.995 191.09C120.93 181.917 117.767 172.369 115.552 162.583C111.504 161.072 111.194 160.6 111.194 160.6C111.194 160.6 113.406 171.514 112.084 171.69Z" fill="#654209"/>
</g>
<g style="mix-blend-mode:multiply" opacity="0.3">
<path d="M146.311 267.773C149.144 267.436 152.126 269.77 154.136 271.227C160.93 276.036 166.887 281.929 171.769 288.671C172.417 285.824 171.594 282.708 170.96 279.915C170.287 277.009 169.778 274.068 169.435 271.105C169.192 268.96 168.882 266.802 168.518 264.697C168.504 266.953 168.648 269.207 168.949 271.443C169.961 277.73 167.789 279.052 164.241 275.895C160.693 272.738 154.312 266.626 148.969 263.024C143.627 259.422 127.221 243.57 127.221 243.57C127.221 243.57 125.616 246.16 124.334 246.457C133.373 254.552 143.573 265.277 141.873 265.345C140.173 265.412 110.843 264.117 110.843 264.117C110.843 264.117 113.15 265.803 110.263 268.933C124.199 269.473 125.387 270.458 133.198 270.431C135.112 270.468 137.02 270.653 138.905 270.984C141.414 269.999 143.411 268.151 146.311 267.773Z" fill="#654209"/>
</g>
<g style="mix-blend-mode:multiply" opacity="0.3">
<path d="M243.366 200.142H242.907C242.446 201.788 241.822 203.383 241.046 204.905C241.869 203.326 242.665 201.734 243.366 200.142Z" fill="#654209"/>
</g>
<g style="mix-blend-mode:multiply" opacity="0.3">
<path d="M180.579 182.348C180.579 187.353 180.579 192.372 180.862 197.377C181.065 202.072 181.496 206.956 183.857 211.232C185.669 208.702 186.958 205.835 187.648 202.8C186.744 203.987 185.962 204.662 185.436 204.716C181.928 205.04 184.748 179.555 185.436 169.086C186.124 158.617 188.552 152.128 190.616 149.038C192.68 145.949 196.836 137.638 196.836 137.638C196.836 137.638 191.763 138.677 188.471 136.842C184.942 143.761 182.416 151.148 180.97 158.779C181.226 166.617 180.66 174.469 180.579 182.348Z" fill="#654209"/>
</g>
<g style="mix-blend-mode:multiply" opacity="0.3">
<path d="M164.592 148.998C161.084 155.042 156.268 161.706 157.59 168.83C158.912 175.953 162.987 182.321 166.009 189.066C169.048 195.974 172.079 202.89 175.101 209.816C175.814 206.648 176.086 203.398 175.911 200.156C175.728 200.362 175.488 200.51 175.223 200.582C174.957 200.653 174.675 200.646 174.413 200.561C171.715 199.9 169.246 192.021 168.046 187.704C166.845 183.387 162.015 175.211 160.693 170.327C159.371 165.443 159.965 162.395 166.184 151.939C172.403 141.483 171.972 138.286 171.972 138.286C170.883 138.775 169.749 139.155 168.585 139.419C167.741 142.794 166.395 146.023 164.592 148.998Z" fill="#654209"/>
</g>
<g style="mix-blend-mode:multiply" opacity="0.3">
<path d="M209.112 175.117C208.006 176.314 206.966 177.571 205.996 178.881C201.469 185.062 198.898 192.459 198.616 200.116C198.36 207.711 199.682 215.306 199.615 222.929C199.806 226.764 199.626 230.609 199.075 234.41C198.427 237.675 197.496 240.872 196.862 244.15C201.252 241.407 205.281 238.126 208.856 234.383C205.699 236.676 203.648 237.796 203.068 236.933C201.719 234.895 202.434 223.698 201.463 213.998C200.114 200.777 202.664 189.498 208.856 175.643C208.883 175.508 208.95 175.346 209.112 175.117Z" fill="#654209"/>
</g>
<g style="mix-blend-mode:multiply" opacity="0.3">
<path d="M267.677 222.227C256.736 227.071 238.82 233.992 228.256 233.803C231.71 227.907 235.245 221.566 241.747 218.963C248.25 216.359 260.014 212.352 260.014 212.352C258.61 211.78 257.237 211.136 255.899 210.423C251.461 211.974 243.987 213.647 242.921 212.473C241.855 211.3 248.668 199.859 248.668 199.859L244.864 200.062C242.53 205.539 239.346 210.733 236.985 216.143C234.017 222.888 227.743 227.867 222.361 233.182C217.261 238.214 212.175 243.206 206.954 248.13C201.935 252.852 196.835 257.925 194.259 264.09C191.129 271.47 191.439 279.699 190.872 287.484C190.184 296.442 189.523 305.548 190.872 314.466C191.938 321.967 193.476 329.306 193.773 336.901C193.975 341.232 194.825 346.844 192.006 350.676C191.817 350.959 191.264 351.337 190.899 351.027C183.223 344.281 186.704 333.745 183.317 325.394C182.616 332.584 182.737 340.665 177.8 346.507C177.57 346.79 176.909 346.966 176.707 346.575C172.471 338.858 175.034 329.036 173.685 320.793C172.788 314.649 171.306 308.604 169.26 302.742C171.729 317.285 172.862 336.605 170.474 350.986C170.474 350.986 169.759 355.033 188.012 354.44C206.266 353.846 215.21 352.767 213.429 348.045C211.649 343.323 208.181 334.311 207.075 327.269C205.969 320.226 201.827 297.184 203.041 279.227C204.256 261.271 213.227 245.27 227.676 240.238C242.125 235.206 251.677 235.624 270.051 225.398C269.003 224.56 268.186 223.469 267.677 222.227Z" fill="#654209"/>
</g>
</g>
<path d="M302.551 109.456C313.884 97.9747 306.599 74.2034 283.219 72.4631C285.148 68.78 279.94 67.6468 279.94 67.6468C279.94 67.6468 284.446 49.5957 263.832 46.6142C263.424 44.5282 262.657 42.5289 261.565 40.7051C261.565 40.7051 262.199 23.4635 248.074 16.9338C244.174 15.0441 239.787 14.3994 235.509 15.0872C231.23 15.775 227.266 17.762 224.155 20.7788C219.986 12.5223 211.338 16.7315 211.338 16.7315C209.989 8.2456 200.006 4.44112 195.149 12.4278C195.149 12.4278 190.049 0.164452 178.96 8.0972C172.673 1.50007 161.705 4.85934 159.222 8.59637C160.261 -4.1392 130.365 -3.88287 131.808 17.2441C124.118 14.2626 118.816 18.7012 117.575 23.3421C112.921 16.1514 107.929 28.1449 107.929 28.1449C96.2189 17.8917 76.7648 39.1267 94.4381 52.4288C84.9943 54.1422 89.6892 61.8726 89.6892 61.8726C81.5946 59.4577 82.2422 66.5 82.2422 66.5C70.5049 63.3701 58.8621 77.4278 77.156 91.7013C67.7123 93.9274 69.2233 103.425 73.2841 104.626C64.2721 104.828 69.7899 115.54 74.984 116.673C59.2939 123.931 74.3634 139.999 88.8798 138.38C87.2204 162.3 107.066 163.312 107.066 163.312C99.6726 180.58 126.493 183.549 138.095 174.617C141.859 184.466 154.46 174.375 154.46 174.375C154.46 186.517 182.103 185.923 192.923 177.761C196.97 193.95 223.44 186.827 225.301 176.047C225.301 176.047 242.84 187.866 257.774 179.15C271.158 171.056 268.23 164.162 266.665 159.723C273.518 160.236 281.505 148.93 280.372 143.534C288.197 155.109 328.252 130.286 302.551 109.456Z" fill="#B8CD0E"/>
<g style="mix-blend-mode:multiply" opacity="0.3">
<path d="M302.551 109.456C313.884 97.9747 306.599 74.2034 283.219 72.4631C285.148 68.78 279.94 67.6468 279.94 67.6468C279.94 67.6468 284.446 49.5957 263.832 46.6142C263.424 44.5282 262.657 42.5289 261.565 40.7051C261.565 40.7051 262.199 23.4635 248.074 16.9338C244.174 15.0441 239.787 14.3994 235.509 15.0872C231.23 15.775 227.266 17.762 224.155 20.7788C219.986 12.5223 211.338 16.7315 211.338 16.7315C209.989 8.2456 200.006 4.44112 195.149 12.4278C195.149 12.4278 190.049 0.164452 178.96 8.0972C172.673 1.50007 161.705 4.85934 159.222 8.59637C160.261 -4.1392 130.365 -3.88287 131.808 17.2441C124.118 14.2626 118.816 18.7012 117.575 23.3421C112.921 16.1514 107.929 28.1449 107.929 28.1449C96.2189 17.8917 76.7648 39.1267 94.4381 52.4288C84.9943 54.1422 89.6892 61.8726 89.6892 61.8726C81.5946 59.4577 82.2422 66.5 82.2422 66.5C70.5049 63.3701 58.8621 77.4278 77.156 91.7013C67.7123 93.9274 69.2233 103.425 73.2841 104.626C64.2721 104.828 69.7899 115.54 74.984 116.673C59.2939 123.931 74.3634 139.999 88.8798 138.38C87.2204 162.3 107.066 163.312 107.066 163.312C99.6726 180.58 126.493 183.549 138.095 174.617C141.859 184.466 154.46 174.375 154.46 174.375C154.46 186.517 182.103 185.923 192.923 177.761C196.97 193.95 223.44 186.827 225.301 176.047C225.301 176.047 242.84 187.866 257.774 179.15C271.158 171.056 268.23 164.162 266.665 159.723C273.518 160.236 281.505 148.93 280.372 143.534C288.197 155.109 328.252 130.286 302.551 109.456ZM138.284 100.943C138.432 103.897 137.151 106.609 133.36 107.041C135.822 112.037 136.276 117.788 134.628 123.109C132.469 128.991 123.39 130.947 121.501 125.227C120.751 126.536 119.633 127.596 118.285 128.275C116.938 128.955 115.421 129.223 113.922 129.048C112.424 128.873 111.009 128.261 109.855 127.289C108.701 126.317 107.858 125.028 107.43 123.581C104.732 125.901 100.118 128.505 96.9879 125.537C96.9069 125.429 96.799 125.348 96.7181 125.24C94.8586 127.048 92.5842 128.373 90.094 129.099C86.9371 129.868 83.5643 128.424 82.8088 125.362C81.8779 121.678 84.792 118.616 88.6639 117.982C88.2802 116.193 88.6093 114.325 89.5813 112.774C84.5896 113.948 79.0448 113.031 78.2758 107.553C78.1525 106.811 78.189 106.051 78.3827 105.325C78.5765 104.598 78.923 103.921 79.3993 103.338C79.8756 102.756 80.4706 102.282 81.1446 101.948C81.8187 101.614 82.5562 101.428 83.308 101.401C81.1629 97.489 85.8173 94.3726 90.1749 93.3068C89.2586 92.602 88.5641 91.6487 88.1742 90.5604C87.7843 89.4721 87.7155 88.2947 87.9759 87.1683C81.4462 87.3302 73.4325 81.4077 76.7108 75.1883C80.6637 67.7412 87.2878 72.3821 92.32 76.0787C92.2909 75.069 92.6246 74.0823 93.2608 73.2976C93.8969 72.5129 94.7933 71.9823 95.7872 71.802C92.8461 68.9014 91.4026 64.5033 93.9929 61.0092C96.3538 57.7578 99.821 57.6229 102.789 59.6601C102.913 58.9788 103.235 58.3493 103.715 57.8502C104.195 57.3511 104.811 57.0045 105.487 56.8539C101.359 54.1557 103.383 50.3512 107.079 47.6395C103.032 48.2466 97.9997 48.9077 95.4769 46.2904C93.3318 44.0239 94.519 42.5399 97.0014 42.1756C96.8021 41.9135 96.6616 41.6116 96.5895 41.2903C96.5173 40.9691 96.5151 40.636 96.5832 40.3139C97.0958 38.7759 96.9609 39.0997 95.6118 37.818C94.8677 37.0555 94.3706 36.0864 94.1853 35.0372C94 33.9879 94.1351 32.9072 94.573 31.9359C95.7872 28.7115 99.848 27.1601 101.737 30.3035C101.853 30.29 101.971 30.29 102.088 30.3035C105.798 30.4654 107.147 34.7286 107.309 37.6291C111.019 35.3626 115.835 36.28 117.036 40.0171C118.924 37.13 121.798 35.0119 125.562 35.4031C123.579 31.5717 122.351 26.2427 127.734 24.4214C129.185 23.901 130.777 23.9355 132.204 24.5183C133.631 25.1011 134.792 26.191 135.464 27.5783C137.38 24.7047 142.116 25.3523 143.397 29.1163C145.718 27.0791 148.699 24.7722 151.492 25.069C152.211 23.6031 153.205 22.2887 154.419 21.197C158.575 17.5275 162.676 18.7821 165.455 22.5461C167.141 18.0401 173.212 13.2778 176.828 16.7585C176.96 15.5564 177.492 14.4336 178.338 13.57C179.185 12.7064 180.297 12.1521 181.496 11.9961C182.352 11.8546 183.228 11.8948 184.067 12.1141C184.906 12.3334 185.689 12.727 186.366 13.2691C187.043 13.8112 187.599 14.4897 187.996 15.2606C188.393 16.0315 188.624 16.8774 188.673 17.7433C188.859 20.6515 188.137 23.5457 186.609 26.0268C192.113 25.2848 198.198 27.5513 197.874 32.7724C198.853 32.0506 199.965 31.5299 201.146 31.2404C202.326 30.951 203.553 30.8985 204.755 31.086C204.512 27.241 206.266 22.2628 211.702 23.5445C217.139 24.8261 217.463 29.4536 215.912 33.3525C219.19 31.6661 223.035 33.0961 223.709 36.7657C225.936 33.9461 229.511 30.6812 233.329 31.6391C237.147 32.597 239.454 35.8078 238.86 39.3425C237.862 45.1841 230.118 50.3107 223.494 49.3934C227.406 55.2889 221.241 61.994 213.578 61.4139C213.785 63.1998 213.329 64.9997 212.297 66.4719C211.265 67.9441 209.728 68.9862 207.979 69.4006C207.098 69.7069 206.153 69.7796 205.235 69.6118C204.318 69.4439 203.46 69.0411 202.744 68.4427C200.64 74.2979 190.117 76.2136 186.703 70.1831C184.801 71.2894 180.349 69.7379 178.825 67.4849C178.059 66.3196 177.536 65.0119 177.287 63.6399C175.237 64.5909 172.922 64.81 170.73 64.2605C172.309 66.4596 173.428 69.2927 170.541 71.006C168.526 72.114 166.177 72.4543 163.931 71.9639C168.113 75.8898 170.946 81.4751 169.327 86.6692C167.978 91.1212 162.055 96.5311 158.305 91.9442C156.956 95.9915 153.111 102.062 148.213 98.6897L147.957 98.4738C146.853 99.9074 145.3 100.93 143.547 101.377C141.793 101.825 139.94 101.672 138.284 100.943ZM259.528 139.46C254.779 141.578 243.906 142.779 240.978 138.111C240.446 138.512 239.848 138.818 239.211 139.015C238.779 139.149 238.347 139.271 237.929 139.365C238.065 139.608 238.182 139.861 238.28 140.121C239.885 144.424 237.295 149.362 233.747 152.263C229.416 155.919 221.146 158.698 218.731 153.949C217.085 159.143 212.633 163.258 205.726 161.612C203.879 161.228 202.135 160.454 200.611 159.342C199.087 158.23 197.818 156.805 196.889 155.163C193.989 156.688 190.616 157.066 188.93 153.99C184.262 157.673 179.486 154.583 178.137 149.74C176.234 152.762 173.55 155.865 169.516 156.202C168.068 156.22 166.64 155.868 165.368 155.178C164.095 154.489 163.02 153.485 162.244 152.263C160.207 149.308 159.303 144.897 161.124 142.104C159.116 142.325 157.099 141.76 155.499 140.526C155.007 140.01 154.687 139.355 154.581 138.65C154.271 137.301 154.581 137.895 153.084 137.773C151.172 137.77 149.337 137.02 147.971 135.682C147.364 134.974 146.928 134.136 146.696 133.233C146.464 132.329 146.444 131.384 146.635 130.472C146.827 129.559 147.226 128.702 147.801 127.968C148.377 127.234 149.113 126.643 149.954 126.238C152.989 124.66 156.483 125.024 159.816 125.888C154.622 119.398 166.831 107.85 176.005 115.216C177.057 113.395 179.054 111.695 180.713 112.653C181.928 107.337 190.333 101.374 193.071 106.798C193.501 106.536 193.953 106.31 194.42 106.123C198.67 104.437 202.596 107.122 204.835 110.171C206.859 105.435 210.596 101.82 216.654 102.413C217.463 95.3574 228.04 91.391 233.558 97.2731C237.012 100.956 235.217 106.636 231.993 110.373C234.201 109.709 236.582 109.946 238.614 111.033C240.647 112.121 242.167 113.969 242.84 116.174C243.475 114.632 244.492 113.278 245.794 112.237C247.097 111.196 248.643 110.504 250.287 110.225C252.089 110.015 253.915 110.179 255.651 110.706C257.387 111.233 258.996 112.112 260.378 113.287C262.793 115.378 264.817 118.683 263.603 121.678C262.662 123.785 260.982 125.474 258.881 126.427C261.957 126.522 264.749 127.642 265.518 130.771C266.368 134.414 262.968 137.962 259.528 139.46Z" fill="#00973C"/>
</g>
<g style="mix-blend-mode:multiply" opacity="0.3">
<path d="M302.551 109.456C313.884 97.9747 306.598 74.2035 283.218 72.4631C285.148 68.78 279.94 67.6468 279.94 67.6468C279.94 67.6468 284.446 49.5958 263.832 46.6142C263.424 44.5283 262.657 42.5289 261.565 40.7051C261.565 40.7051 262.199 23.4636 248.074 16.9339C243.713 14.809 238.754 14.2515 234.03 15.3554C234.173 15.5401 234.304 15.7339 234.421 15.9355C234.702 16.4165 234.856 16.9605 234.87 17.5171C234.885 18.0737 234.758 18.6249 234.502 19.1194C236.437 18.4603 238.519 18.364 240.506 18.8417C242.493 19.3193 244.303 20.3513 245.727 21.8176C249.41 25.5817 248.857 30.6003 246.091 34.4588C254.186 32.5565 253.093 42.5534 249.221 47.1134C246.24 50.4348 242.673 53.1788 238.698 55.208C240.337 55.2995 241.886 55.9854 243.056 57.1373C243.611 57.7376 243.971 58.4921 244.089 59.3012C244.207 60.1104 244.077 60.9363 243.717 61.6703C247.049 60.4561 250.88 60.4696 250.718 63.1543C251.807 62.1849 253.1 61.473 254.501 61.0713C255.903 60.6696 257.376 60.5884 258.813 60.8338C262.86 61.8996 263.548 66.2302 261.916 69.2387C259.775 72.7155 257.034 75.785 253.821 78.3047C254.671 78.5993 255.413 79.1429 255.949 79.8648C256.486 80.5866 256.793 81.4534 256.83 82.3521C258.018 80.9865 259.535 79.9465 261.237 79.3304C262.939 78.7142 264.77 78.5423 266.557 78.8309C271.265 79.6943 272.115 84.8614 271.414 88.3556C270.654 91.4553 269.242 94.3575 267.272 96.8684C268.151 96.3566 269.128 96.0366 270.14 95.9297C271.151 95.8227 272.174 95.9312 273.141 96.2479C274.18 96.5803 275.072 97.2613 275.667 98.1757C276.262 99.0902 276.523 100.182 276.405 101.267C281.073 97.6239 289.424 93.698 290.692 100.673C291.219 103.6 289.937 106.798 287.859 109.671C290.298 109.974 292.58 111.03 294.389 112.693C295.525 114.034 296.135 115.743 296.105 117.5C296.076 119.257 295.408 120.944 294.227 122.245C291.529 125.483 287.482 125.996 283.812 124.741C286.51 130.245 281.492 137.207 275.502 134.185C274.804 136.651 273.594 138.943 271.951 140.91C270.307 142.876 268.267 144.474 265.963 145.598C262.194 147.482 258.035 148.457 253.821 148.445C254.685 151.305 254.685 154.232 252.216 156.539C248.762 159.764 244.459 158.32 241.679 155.582C242.921 161.113 243.514 167.17 237.511 170.516C231.507 173.862 227.5 170.327 224.829 166.01C224.347 169.88 222.512 173.454 219.649 176.101C218.061 177.355 216.151 178.13 214.139 178.338C212.128 178.546 210.099 178.177 208.289 177.275C205.591 175.926 204.633 173.12 204.673 170.368C203.816 171.431 202.678 172.233 201.388 172.684C200.098 173.134 198.708 173.215 197.375 172.918C196.113 172.649 194.947 172.046 193.998 171.173C193.048 170.3 192.351 169.188 191.978 167.953C190.312 170.094 188.05 171.695 185.476 172.553C180.079 174.375 174.993 170.422 175.088 166.01C171.688 169.41 166.102 172.122 162.217 168.236C161.403 167.48 160.842 166.49 160.612 165.403C159.51 165.616 158.384 165.675 157.266 165.578C152.423 165.093 148.807 160.776 149.724 156.728C148.766 157.363 147.603 157.609 146.47 157.416C145.337 157.223 144.32 156.605 143.626 155.689C142.358 161.585 137.704 167.454 132.092 169.356C128.597 170.543 123.012 169.181 122 165.578C121.685 164.229 121.687 162.826 122.005 161.478C122.324 160.129 122.95 158.873 123.835 157.808C121.757 158.725 119.477 159.157 117.683 157.916C116.85 157.37 116.168 156.623 115.7 155.743C114.37 156.633 112.84 157.18 111.248 157.335C105.919 157.902 106.256 152.708 107.565 149.146C105.285 150.752 102.317 152.209 99.713 151.035C98.5778 150.439 97.6242 149.548 96.9523 148.456C96.2805 147.364 95.9152 146.111 95.895 144.829C95.6344 142.507 96.0663 140.161 97.1362 138.084C95.8253 137.396 94.7923 136.276 94.2121 134.914C93.6319 133.552 93.5401 132.031 93.9523 130.61C92.6542 131.851 91.0215 132.687 89.2549 133.013C87.4884 133.339 85.6651 133.141 84.0094 132.444C82.9697 131.993 82.0469 131.31 81.3111 130.448C79.1097 131.139 76.7438 131.101 74.5656 130.34C72.989 129.646 71.6249 128.546 70.6128 127.152C69.6006 125.758 68.9768 124.121 68.8049 122.407C65.8369 130.124 77.5067 139.689 88.8796 138.421C87.2202 162.341 107.066 163.352 107.066 163.352C99.6725 180.621 126.493 183.589 138.095 174.658C141.859 184.506 154.46 174.415 154.46 174.415C154.46 186.557 182.103 185.963 192.923 177.801C196.97 193.991 223.44 186.867 225.301 176.088C225.301 176.088 242.84 187.906 257.774 179.191C271.157 171.096 268.23 164.202 266.665 159.764C273.518 160.276 281.505 148.971 280.372 143.575C288.197 155.109 328.252 130.286 302.551 109.456Z" fill="#549F31"/>
</g>
<path d="M145.394 258.424C145.394 258.424 154.716 254.134 152.139 245.877C149.562 237.621 137.758 239.321 135.451 240.481C138.81 232.993 131.903 229.769 128.301 231.239C128.395 228.838 126.857 228.676 125.845 229.027C127.491 224.211 119.963 219.03 114.931 224.494C112.489 222.254 105.892 223.698 104.853 225.249C104.732 222.551 100.725 222.754 98.5932 224.143C99.1463 217.236 80.3938 218.274 82.0397 230.889C76.5488 228.487 71.692 232.481 71.7864 234.936C71.7864 234.936 63.0173 234.005 62.3427 243.166C61.6681 252.326 72.9062 253.5 72.9062 253.5C72.9062 253.5 64.5417 258.572 73.149 264.09C69.9382 266.465 72.8657 273.75 82.5928 272.185C81.8643 275.463 87.9892 276.596 90.1208 272.684C91.4699 276.731 99.8209 278.782 104.61 275.463C105.959 278.58 110.938 277.649 113.285 273.993C117.17 278.391 133.953 281.939 133.279 268.434C138.243 269.851 145.704 265.264 145.394 258.424Z" fill="#AFC90C"/>
<g style="mix-blend-mode:multiply" opacity="0.6">
<path d="M152.139 245.877C149.562 237.594 137.758 239.321 135.451 240.481C138.81 232.993 131.903 229.769 128.301 231.239C128.395 228.838 126.857 228.676 125.845 229.027C127.491 224.211 119.963 219.03 114.931 224.494C112.489 222.254 105.892 223.698 104.853 225.249C104.732 222.551 100.725 222.754 98.5932 224.143C99.1463 217.236 80.3938 218.274 82.0397 230.889C76.5488 228.487 71.692 232.481 71.7864 234.936C71.7864 234.936 63.0173 234.005 62.3427 243.166C61.6681 252.326 72.9062 253.5 72.9062 253.5C72.9062 253.5 64.5417 258.572 73.149 264.09C69.9382 266.465 72.8657 273.75 82.5928 272.185C81.8643 275.463 87.9892 276.596 90.1208 272.684C91.4699 276.731 99.8209 278.782 104.61 275.463C105.959 278.58 110.938 277.649 113.285 273.993C117.17 278.391 133.953 281.939 133.279 268.434C138.203 269.945 145.704 265.358 145.421 258.518C145.394 258.424 154.716 254.134 152.139 245.877ZM111.558 241.452C113.568 244.919 109.413 247.914 105.42 248.4C107.43 255.253 104.246 263.847 96.4616 266.181C92.4952 267.355 86.7076 267.53 86.1544 262.768V262.566C82.9301 263.766 79.6383 263.915 78.0598 260.569C76.7107 257.655 78.1542 255.523 80.5691 254.215C79.6442 253.762 78.8681 253.054 78.3326 252.174C77.7972 251.294 77.5246 250.28 77.5471 249.25C73.7696 249.371 70.3024 248.454 68.8454 245.634C65.0814 238.336 74.4037 235.584 80.758 237.405C80.8367 237.43 80.9067 237.477 80.9604 237.54C81.5976 235.967 82.6988 234.626 84.1173 233.695C84.0366 233.194 84.0366 232.684 84.1173 232.184C84.7115 229.719 86.2212 227.573 88.34 226.18C90.1257 224.696 92.4194 223.965 94.7348 224.143C95.5256 224.275 96.2394 224.696 96.7379 225.324C97.2363 225.952 97.484 226.743 97.433 227.543C98.9137 226.977 100.553 226.99 102.025 227.577C103.497 228.164 104.694 229.284 105.379 230.713C110.573 228.878 118.992 228.163 119.558 234.221C119.923 238.228 115.646 241.668 111.558 241.452Z" fill="#AFC90C"/>
</g>
<g style="mix-blend-mode:multiply">
<path d="M152.139 245.877C149.563 237.594 137.758 239.321 135.451 240.481C138.81 232.993 131.903 229.769 128.301 231.239C128.395 228.838 126.857 228.676 125.845 229.027C127.478 224.278 120.193 219.192 115.174 224.278C115.174 224.359 115.174 224.453 115.174 224.521C116.078 224.122 117.077 223.992 118.053 224.145C119.029 224.298 119.94 224.728 120.678 225.384C123.376 227.678 123.376 231.415 121.892 234.531C123.042 234.388 124.21 234.499 125.312 234.856C126.414 235.212 127.425 235.806 128.274 236.595C129.175 237.646 129.822 238.889 130.166 240.229C130.51 241.57 130.541 242.971 130.257 244.326C131.801 243.942 133.406 243.872 134.977 244.12C136.548 244.368 138.053 244.929 139.404 245.769C144.571 249.344 138.729 254.08 134.453 255.469V255.537C134.679 256.434 134.693 257.372 134.494 258.276C134.295 259.18 133.888 260.025 133.306 260.744C132.713 261.547 131.967 262.225 131.11 262.736C130.253 263.248 129.302 263.585 128.314 263.726C128.084 264.712 127.697 265.655 127.167 266.519C124.55 270.903 118.344 272.643 114.904 269.716C114.549 270.248 114.127 270.734 113.649 271.159C112.3 272.279 110.155 273.439 108.253 272.792C107.408 272.499 106.698 271.91 106.256 271.132C100.968 273.75 93.9525 273.601 92.2256 269.568C89.3245 270.745 86.0847 270.779 83.1596 269.662C81.6971 268.963 80.5612 267.725 79.9892 266.208C78.653 266.205 77.3546 265.765 76.2927 264.954C74.5658 263.604 74.0262 261.878 74.9436 260.367C74.338 260.387 73.7346 260.283 73.1706 260.062C72.6066 259.84 72.0939 259.506 71.6642 259.078C71.2344 258.651 70.8967 258.141 70.6719 257.578C70.447 257.015 70.3397 256.412 70.3566 255.807C69.0075 257.817 68.3464 260.812 73.2437 263.901C70.0328 266.276 72.9604 273.561 82.6874 271.996C81.9589 275.274 88.0839 276.407 90.2155 272.495C91.5646 276.542 99.9155 278.593 104.705 275.274C106.054 278.391 111.032 277.46 113.38 273.804C117.265 278.202 134.048 281.75 133.373 268.245C138.298 269.756 145.799 265.169 145.515 258.329C145.394 258.424 154.716 254.134 152.139 245.877Z" fill="#AFC90C"/>
</g>
<g style="mix-blend-mode:screen">
<path d="M80.5018 239.375C79.9509 238.903 79.3013 238.562 78.6008 238.375C77.9003 238.188 77.1668 238.161 76.4544 238.295C75.2246 238.514 74.1089 239.153 73.2975 240.103C72.9471 240.334 72.6332 240.616 72.3667 240.94C71.9422 241.456 71.7047 242.101 71.6924 242.769C71.6802 243.438 71.894 244.091 72.2992 244.623C72.7257 245.231 73.3113 245.71 73.9918 246.007C74.6724 246.305 75.4217 246.409 76.1576 246.309C79.5979 246.12 83.2 242.181 80.5018 239.375Z" fill="#D2D600"/>
</g>
<g style="mix-blend-mode:screen">
<path d="M85.2642 244.15C84.0095 243.233 82.2557 244.488 81.743 245.499C81.5833 245.749 81.51 246.044 81.5344 246.339C81.5588 246.634 81.6795 246.912 81.878 247.132C82.0181 247.253 82.1843 247.341 82.3636 247.388C82.5504 247.541 82.778 247.635 83.0179 247.659C83.2578 247.683 83.4995 247.636 83.7127 247.523C84.7111 247.051 86.7482 245.257 85.2642 244.15Z" fill="#D2D600"/>
</g>
<g style="mix-blend-mode:screen">
<path d="M84.414 250.788H84.3196C83.9605 250.784 83.6054 250.864 83.2824 251.021C82.9593 251.178 82.677 251.407 82.4578 251.692C82.2258 251.874 82.054 252.123 81.965 252.404C81.876 252.686 81.8738 252.988 81.9587 253.27C82.1205 253.783 82.957 253.931 83.4292 253.837C83.9587 253.752 84.4417 253.484 84.7941 253.08C85.1466 252.676 85.3463 252.161 85.3584 251.624C85.3179 251.139 84.9941 250.896 84.414 250.788Z" fill="#D2D600"/>
</g>
<path d="M122.688 261.689C122.122 259.948 120.165 259.449 118.385 260.097C117.089 260.542 115.981 261.412 115.241 262.566L114.971 262.849C114.54 263.36 114.252 263.977 114.136 264.635C114.02 265.294 114.08 265.972 114.31 266.6C114.526 267.156 114.909 267.632 115.407 267.961C115.905 268.289 116.493 268.455 117.089 268.434C117.942 268.389 118.776 268.171 119.542 267.793C120.307 267.415 120.988 266.885 121.541 266.235C122.117 265.646 122.526 264.915 122.727 264.116C122.929 263.318 122.915 262.48 122.688 261.689Z" fill="#D2D600"/>
<path d="M110.627 266.249C110.141 266.249 109.588 267.139 110.209 267.139C110.83 267.139 111.315 266.249 110.627 266.249Z" fill="#D2D600"/>
<path d="M111.976 248.589L111.639 248.791C111.13 248.926 110.664 249.191 110.288 249.56C109.912 249.929 109.638 250.389 109.494 250.896C109.17 251.908 109.373 253.405 110.843 253.594C111.834 253.572 112.779 253.175 113.49 252.485C114.201 251.794 114.624 250.86 114.675 249.871C114.675 248.71 113.015 248.103 111.976 248.589Z" fill="#D2D600"/>
<path d="M100.455 267.382C99.9993 267.365 99.545 267.442 99.1201 267.608C98.6953 267.774 98.309 268.025 97.9853 268.346C97.6615 268.668 97.4071 269.052 97.2379 269.475C97.0687 269.899 96.9882 270.353 97.0014 270.809C97.0064 271.005 97.0728 271.196 97.1914 271.353C97.3099 271.51 97.4746 271.627 97.6625 271.686C98.0992 271.833 98.565 271.873 99.0205 271.803C99.476 271.732 99.9079 271.553 100.28 271.281C100.798 271.065 101.26 270.733 101.629 270.309C101.861 270.07 102.019 269.768 102.083 269.441C102.148 269.114 102.116 268.775 101.992 268.465C101.868 268.155 101.656 267.888 101.384 267.696C101.111 267.504 100.789 267.395 100.455 267.382Z" fill="#D2D600"/>
<path d="M141.913 256.711C141.414 256.05 140.375 256.454 139.795 256.711C139.419 256.919 139.103 257.221 138.878 257.588C138.385 258.065 138.075 258.7 138.001 259.382C137.992 259.539 138.024 259.695 138.092 259.837C138.161 259.978 138.264 260.1 138.392 260.191C138.305 260.161 138.21 260.161 138.122 260.191C137.394 260.191 136.53 261.54 137.461 261.54C138.082 261.54 138.81 260.596 138.419 260.299C138.69 260.508 139.011 260.643 139.35 260.69C139.732 260.72 140.116 260.668 140.477 260.538C140.837 260.408 141.166 260.202 141.441 259.935C141.925 259.565 142.245 259.021 142.333 258.419C142.421 257.816 142.271 257.203 141.913 256.711Z" fill="#D2D600"/>
<g style="mix-blend-mode:multiply">
<path d="M53.2497 201.991C52.2648 200.642 50.3221 200.736 48.8111 201.357C47.8542 201.736 47.0002 202.336 46.3181 203.107C45.6361 203.878 45.1452 204.799 44.8852 205.795C44.7732 206.172 44.7709 206.572 44.8784 206.949C44.9859 207.327 45.1989 207.666 45.4923 207.927C45.7913 208.26 46.1645 208.518 46.5817 208.679C46.999 208.841 47.4485 208.902 47.8937 208.858C48.8067 208.742 49.6869 208.443 50.482 207.979C51.277 207.516 51.9705 206.897 52.5212 206.16C52.7374 205.872 52.9185 205.559 53.0608 205.229C53.1694 205.029 53.251 204.816 53.3036 204.595C53.1687 205.08 53.4655 204.163 53.4925 204.055C53.6036 203.714 53.6394 203.353 53.5975 202.996C53.5556 202.64 53.4369 202.297 53.2497 201.991Z" fill="#AFC90C"/>
</g>
<g style="mix-blend-mode:multiply">
<path d="M46.6528 211.772C46.1267 211.084 44.7641 211.772 44.2649 212.042C43.7657 212.311 42.8483 213.269 42.9158 214.052C42.9158 214.052 42.9158 214.133 42.9158 214.187C42.9424 214.448 43.0645 214.69 43.2587 214.867C43.4529 215.044 43.7055 215.143 43.9681 215.145H44.0895C44.7665 215.139 45.4166 214.879 45.9108 214.416C46.3666 214.044 46.6654 213.514 46.7472 212.932C46.8379 212.748 46.877 212.543 46.8604 212.339C46.8437 212.135 46.772 211.939 46.6528 211.772Z" fill="#AFC90C"/>
</g>
<path d="M36.1702 188.243C34.943 188.19 33.7342 188.556 32.7435 189.282C32.185 189.628 31.7063 190.088 31.3389 190.632C30.9714 191.176 30.7236 191.792 30.6119 192.439C30.3773 192.843 30.2686 193.308 30.2999 193.775C30.3311 194.241 30.5008 194.687 30.7873 195.056C32.1364 196.621 34.7266 195.367 35.9678 194.409C36.6298 193.904 37.1809 193.269 37.5871 192.543C37.9932 191.816 38.2457 191.014 38.3288 190.186C38.3827 189.053 37.3439 188.351 36.1702 188.243Z" fill="#D2D600"/>
<path d="M28.804 197.674C28.7088 197.493 28.5909 197.325 28.4532 197.174C27.9406 196.662 26.9827 197.174 26.551 197.498C26.505 197.551 26.4554 197.601 26.4026 197.647C26.2261 197.779 26.0795 197.947 25.9726 198.14C25.8656 198.333 25.8007 198.547 25.782 198.766L25.7146 198.847C25.6689 198.914 25.6378 198.99 25.6232 199.07C25.6087 199.15 25.611 199.232 25.6301 199.311C25.6491 199.389 25.6845 199.463 25.7339 199.528C25.7833 199.592 25.8457 199.645 25.9169 199.684C26.5915 200.021 27.4144 199.603 27.9945 199.32C28.5747 199.036 29.1548 198.281 28.804 197.674Z" fill="#D2D600"/>
<g opacity="0.4">
<g style="mix-blend-mode:screen" opacity="0.4">
<path d="M15.2998 156.958C13.0063 156.243 10.8072 157.996 9.90332 159.656C9.63039 160.174 9.48775 160.75 9.48775 161.335C9.48775 161.921 9.63039 162.497 9.90332 163.015C9.93991 163.341 10.0493 163.654 10.2234 163.932C10.3975 164.21 10.6319 164.445 10.9091 164.62C11.1864 164.795 11.4994 164.905 11.8251 164.942C12.1507 164.98 12.4807 164.944 12.7904 164.836C13.7132 164.635 14.5753 164.218 15.3067 163.62C16.0381 163.022 16.6181 162.26 16.9996 161.396C17.7281 159.683 17.4583 157.646 15.2998 156.958Z" fill="#96C01F"/>
</g>
<g style="mix-blend-mode:screen" opacity="0.4">
<path d="M21.5867 166.685C19.6575 165.079 17.1077 167.305 16.4196 168.911C16.2533 169.167 16.1788 169.472 16.2082 169.775C16.2376 170.079 16.3692 170.364 16.5815 170.584C16.8284 170.836 17.1331 171.025 17.4693 171.133C17.8055 171.241 18.1629 171.265 18.5107 171.204C18.9691 171.252 19.4322 171.187 19.8598 171.015C21.5867 170.381 23.2191 168.074 21.5867 166.685Z" fill="#96C01F"/>
</g>
<path opacity="0.4" d="M13.0331 175.346C12.865 175.574 12.7372 175.83 12.6554 176.101C12.5205 176.466 12.5474 176.843 12.9791 176.938C13.141 176.938 13.276 176.938 13.4378 177.019C13.9363 177.038 14.4227 176.863 14.795 176.531C15.1673 176.199 15.3965 175.735 15.4345 175.238C15.3941 173.848 13.4918 174.671 13.0331 175.346Z" fill="#96C01F"/>
<path opacity="0.4" d="M43.0241 137.153C41.2702 135.197 38.1133 136.734 36.4135 138.057C35.7533 138.534 35.1863 139.129 34.7406 139.81C34.1797 140.402 33.7973 141.14 33.6374 141.94C33.4775 142.74 33.5466 143.568 33.8367 144.33C33.9041 144.478 34.039 144.573 34.1065 144.694C34.3101 145.171 34.6302 145.588 35.0374 145.908C37.2904 147.635 40.7306 145.504 42.1202 143.817C43.5098 142.131 44.7374 139.095 43.0241 137.153Z" fill="#DDDA00"/>
<path opacity="0.4" d="M49.9988 139.972C49.9292 139.833 49.8382 139.706 49.729 139.595C49.5054 139.421 49.2376 139.314 48.9562 139.286C48.6748 139.257 48.3909 139.308 48.137 139.433C47.6015 139.663 47.1362 140.031 46.7879 140.499C46.1269 141.443 46.1943 143.035 47.8942 142.738C48.6254 142.602 49.277 142.192 49.7155 141.591C49.9178 141.241 50.3361 140.472 49.9988 139.972Z" fill="#96C01F"/>
<path opacity="0.4" d="M61.9652 156.054C61.2232 154.556 59.5099 154.705 58.1203 155.406C57.0726 156.028 56.2576 156.975 55.7998 158.104C55.0578 159.858 54.7745 162.88 57.7021 162.678C57.8186 162.691 57.9363 162.691 58.0528 162.678C58.8874 162.603 59.6905 162.323 60.3899 161.861C61.0892 161.4 61.663 160.772 62.0597 160.034C62.3612 159.41 62.5099 158.724 62.4935 158.032C62.4771 157.34 62.296 156.662 61.9652 156.054Z" fill="#96C01F"/>
</g>
<path opacity="0.4" d="M107.754 203.313C107.485 202.732 107.025 202.26 106.45 201.978C105.876 201.695 105.221 201.619 104.597 201.761C103.79 201.93 103.031 202.276 102.375 202.776C101.719 203.275 101.183 203.915 100.806 204.649C100.537 205.068 100.377 205.549 100.342 206.046C100.307 206.543 100.397 207.042 100.604 207.495C100.669 207.582 100.741 207.663 100.819 207.738C100.9 208.305 101.359 208.601 101.953 208.777C102.686 208.879 103.432 208.81 104.134 208.576C104.836 208.342 105.475 207.949 106 207.428C106.664 206.99 107.185 206.366 107.497 205.635C107.809 204.903 107.898 204.095 107.754 203.313Z" fill="#AFC90C"/>
<path opacity="0.4" d="M99.4972 212.082C98.982 212.093 98.4794 212.243 98.0425 212.516C97.6055 212.789 97.2505 213.175 97.0149 213.634C96.6911 214.322 96.799 215.414 97.8648 215.414C98.3866 215.41 98.8971 215.262 99.3399 214.985C99.7826 214.709 100.141 214.316 100.374 213.849C100.711 213.188 100.576 212.082 99.4972 212.082Z" fill="#AFC90C"/>
<path opacity="0.4" d="M119.99 208.885C118.826 209.104 117.733 209.605 116.807 210.344C115.881 211.082 115.149 212.035 114.675 213.121C114.444 213.579 114.306 214.078 114.269 214.59C114.231 215.102 114.296 215.616 114.459 216.102C114.767 216.682 115.259 217.142 115.857 217.411C116.456 217.679 117.127 217.741 117.764 217.586C118.769 217.389 119.701 216.923 120.462 216.237C121.893 215.348 122.989 214.011 123.579 212.433C124.213 210.423 122.405 208.574 119.99 208.885Z" fill="#AFC90C"/>
<g style="mix-blend-mode:multiply">
<path d="M71.0717 191.319C70.3083 191.663 69.6648 192.227 69.2234 192.938C69.1706 192.984 69.121 193.034 69.075 193.087C68.8468 193.319 68.7189 193.631 68.7189 193.957C68.7189 194.282 68.8468 194.595 69.075 194.827C69.6416 195.502 70.8153 195.151 71.4494 194.827C71.9383 194.553 72.3427 194.151 72.6187 193.663C72.8946 193.175 73.0315 192.621 73.0144 192.061C72.9739 191.117 71.7867 191.036 71.0717 191.319Z" fill="#AFC90C"/>
</g>
<g style="mix-blend-mode:screen" opacity="0.3">
<path d="M87.2068 75.5121C86.8567 75.1058 86.3826 74.8261 85.8577 74.7161L85.6283 74.4193C83.888 72.4901 81.0144 73.6908 79.6518 75.2692C79.0925 76.042 78.7532 76.9519 78.6701 77.9022C78.5869 78.8525 78.763 79.8075 79.1796 80.6657C80.043 83.0131 82.5389 83.7012 85.0212 82.9996C85.8707 82.7011 86.6294 82.1896 87.2246 81.5141C87.8199 80.8385 88.2318 80.0215 88.421 79.1412C88.5021 78.484 88.4352 77.817 88.2251 77.1891C88.015 76.5611 87.6671 75.9881 87.2068 75.5121Z" fill="#569132"/>
</g>
<g style="mix-blend-mode:screen" opacity="0.3">
<path d="M96.9608 85.9677C96.3537 85.2796 95.1395 85.5494 94.3974 85.8058C93.2642 86.1565 91.4429 88.1127 92.7111 89.1381L92.8864 89.246C92.8774 89.4424 92.9078 89.6387 92.976 89.8232C93.0441 90.0077 93.1486 90.1766 93.2832 90.32C93.4178 90.4634 93.5798 90.5784 93.7596 90.6581C93.9394 90.7378 94.1333 90.7806 94.33 90.784C96.2457 90.8514 97.406 88.8682 97.4869 87.3842C97.5113 87.1237 97.4767 86.8611 97.3856 86.6158C97.2945 86.3706 97.1493 86.149 96.9608 85.9677Z" fill="#569132"/>
</g>
<g style="mix-blend-mode:screen" opacity="0.5">
<path d="M93.8038 96.5716C93.5341 96.1625 93.1579 95.8345 92.7158 95.623C92.2737 95.4114 91.7824 95.3243 91.2945 95.3709C90.4739 95.4144 89.6719 95.6317 88.9416 96.0085C88.2113 96.3853 87.5693 96.9129 87.0583 97.5565C86.472 98.277 86.0817 99.1367 85.9251 100.052C85.8461 100.592 85.897 101.142 86.0735 101.658C86.1256 101.797 86.2034 101.925 86.3028 102.036C86.423 102.395 86.6428 102.712 86.9367 102.951C87.2305 103.19 87.5861 103.34 87.9622 103.385C88.7451 103.385 89.5195 103.223 90.2369 102.91C90.9543 102.596 91.5991 102.138 92.1309 101.563C93.3182 100.444 94.8157 98.204 93.8038 96.5716Z" fill="#82BA28"/>
</g>
<path d="M85.2641 104.612C84.9034 104.523 84.5257 104.53 84.1683 104.631C83.811 104.733 83.4865 104.927 83.2269 105.192C82.9288 105.404 82.6944 105.693 82.5493 106.028C82.4042 106.364 82.3539 106.733 82.404 107.095C82.404 107.189 82.404 107.27 82.404 107.351C82.4212 107.573 82.5234 107.779 82.6893 107.928C82.8552 108.076 83.072 108.155 83.2944 108.147C83.6581 108.142 84.0158 108.054 84.3407 107.891C84.6655 107.727 84.949 107.492 85.1696 107.203C85.3923 106.952 85.5498 106.651 85.6283 106.326C85.6283 106.15 85.7767 105.948 85.8442 105.746C85.9165 105.518 85.8961 105.272 85.7875 105.059C85.6788 104.847 85.4907 104.686 85.2641 104.612Z" fill="#569132"/>
<path d="M78.2488 118.157C77.6037 117.779 76.8473 117.637 76.109 117.755C75.3706 117.873 74.6963 118.244 74.2014 118.805C73.3569 119.619 72.7745 120.666 72.5285 121.813C72.0698 123.635 72.2587 126.319 75.0649 126.036C75.6768 125.938 76.2614 125.713 76.7817 125.376C77.302 125.039 77.7465 124.598 78.0869 124.08C79.5979 122.407 80.1105 119.574 78.2488 118.157Z" fill="#569132"/>
<path d="M88.8664 120.343C87.6657 120.559 85.8174 122.474 87.3284 123.338H87.4228C87.7527 123.373 88.0862 123.343 88.4043 123.249C88.7223 123.154 89.0185 122.998 89.2757 122.788C89.5329 122.579 89.746 122.32 89.9027 122.028C90.0594 121.736 90.1565 121.415 90.1885 121.085C90.229 120.545 89.5679 120.235 88.8664 120.343Z" fill="#569132"/>
<path d="M144.139 18.175C144.139 17.9457 144.139 17.7568 143.681 17.8243C143.222 17.8917 141.913 19.0385 142.844 19.3892C143.546 19.6591 144.436 18.6607 144.139 18.175Z" fill="#DDDA00"/>
<g style="mix-blend-mode:screen" opacity="0.5">
<path d="M103.49 33.2446C103.374 32.9149 103.158 32.6291 102.874 32.4263C102.589 32.2235 102.248 32.1135 101.898 32.1113C101.27 32.1449 100.658 32.3216 100.109 32.6279C99.5591 32.9342 99.0869 33.362 98.7281 33.8787C98.2102 34.5772 97.9311 35.424 97.9321 36.2936C97.9678 36.6588 98.1171 37.0037 98.3592 37.2796C98.6012 37.5555 98.9237 37.7486 99.2812 37.8315C100.131 38.3712 101.48 37.7236 102.222 37.1975C102.809 36.7449 103.245 36.1244 103.472 35.4185C103.698 34.7125 103.705 33.9543 103.49 33.2446Z" fill="#82BA28"/>
</g>
<g style="mix-blend-mode:screen" opacity="0.5">
<path d="M102.803 43.4573C102.71 43.3022 102.587 43.1673 102.441 43.0607C102.295 42.9541 102.129 42.8779 101.953 42.8367C101.696 42.3375 100.9 42.3645 100.28 42.6883C99.6592 43.0121 98.2697 44.4826 98.8498 45.3191C99.0174 45.6069 99.2732 45.8331 99.5793 45.9643C99.8854 46.0955 100.226 46.1247 100.55 46.0476C100.943 45.9917 101.32 45.8578 101.661 45.654C102.002 45.4501 102.298 45.1803 102.533 44.8604C102.749 44.4826 103.059 43.9025 102.803 43.4573Z" fill="#82BA28"/>
</g>
<g style="mix-blend-mode:screen" opacity="0.5">
<path d="M114.567 41.1773C114.364 40.4083 113.218 40.5297 112.556 40.7321H112.449C111.902 40.9196 111.43 41.2778 111.102 41.7538C110.774 42.2299 110.608 42.7986 110.627 43.3764C110.627 43.3764 110.627 43.4708 110.627 43.5113C110.627 44.685 111.828 45.0627 112.867 44.685C113.545 44.4289 114.1 43.9225 114.416 43.2699C114.732 42.6174 114.786 41.8685 114.567 41.1773Z" fill="#82BA28"/>
</g>
<g style="mix-blend-mode:screen" opacity="0.5">
<path d="M132.132 38.3712C131.899 37.4619 131.32 36.6796 130.519 36.1908C129.717 35.702 128.757 35.5452 127.842 35.7539C126.2 36.1831 124.724 37.0948 123.606 38.3712C121.258 40.1925 119.815 43.4573 120.408 45.8452C120.88 47.7744 122.85 48.395 124.901 48.0038C126.295 47.6467 127.594 46.9896 128.708 46.0786C129.821 45.1675 130.723 44.0243 131.349 42.7288C132.132 41.4201 132.411 39.8705 132.132 38.3712Z" fill="#82BA28"/>
</g>
<g style="mix-blend-mode:screen" opacity="0.5">
<path d="M131.862 27.5378C130.864 26.6339 129.258 27.4704 128.422 28.1314C127.948 28.4479 127.555 28.8719 127.276 29.369C126.997 29.866 126.84 30.422 126.817 30.9915C126.817 31.9764 127.882 32.3406 128.867 32.2327C129.812 32.0681 130.66 31.5525 131.242 30.7892C131.405 30.5873 131.55 30.3705 131.673 30.1416C131.673 30.0607 131.673 29.9932 131.741 29.8988C132.046 29.5882 132.227 29.1764 132.25 28.7413C132.272 28.3063 132.134 27.8781 131.862 27.5378Z" fill="#82BA28"/>
</g>
<g style="mix-blend-mode:screen" opacity="0.3">
<path d="M145.205 2.9976C142.507 3.3079 140.294 5.54741 138.918 7.46315C138.716 7.75995 138.5 8.11072 138.298 8.44799C137.965 8.7749 137.675 9.14199 137.434 9.54077C137.11 10.0143 136.887 10.5496 136.779 11.1133C136.671 11.677 136.681 12.2569 136.807 12.8167C136.934 13.3765 137.175 13.9041 137.515 14.3665C137.855 14.8289 138.287 15.2161 138.783 15.5038C140.982 16.691 143.991 14.7888 145.529 13.5341C147.562 11.9945 148.94 9.74469 149.387 7.2338C149.484 6.66058 149.443 6.0726 149.268 5.51829C149.093 4.96398 148.788 4.45919 148.38 4.04552C147.972 3.63184 147.471 3.32111 146.919 3.13892C146.367 2.95673 145.779 2.9083 145.205 2.9976Z" fill="#569132"/>
</g>
<g style="mix-blend-mode:screen" opacity="0.5">
<path d="M152.449 26.2966C150.599 27.0634 148.984 28.3059 147.769 29.898C146.553 31.4902 145.78 33.3755 145.529 35.3626C145.493 35.8334 145.601 36.3038 145.839 36.7117C146.298 39.4099 150.642 38.5195 152.584 37.4672C153.872 36.7011 154.979 35.6654 155.829 34.4312C156.679 33.197 157.252 31.7935 157.509 30.317C157.927 27.4838 155.876 24.961 152.449 26.2966Z" fill="#82BA28"/>
</g>
<g style="mix-blend-mode:screen" opacity="0.5">
<path d="M164.416 23.9357C164.129 23.746 163.796 23.6361 163.453 23.6171C163.109 23.5981 162.766 23.6708 162.46 23.8278C161.664 24.1381 160.787 25.042 161.111 25.8514V25.9998C161.195 26.1462 161.317 26.2672 161.464 26.3502C161.612 26.4333 161.778 26.4753 161.947 26.472C162.459 26.4857 162.964 26.3535 163.404 26.0907C163.844 25.8279 164.199 25.4454 164.43 24.988C164.553 24.8398 164.62 24.6523 164.617 24.4594C164.615 24.2664 164.543 24.0807 164.416 23.9357Z" fill="#82BA28"/>
</g>
<g style="mix-blend-mode:screen" opacity="0.5">
<path d="M179.297 21.8446C179.459 21.5322 179.542 21.1848 179.54 20.8328C179.459 19.9019 178.609 19.659 177.718 19.74C176.912 19.8378 176.161 20.2036 175.587 20.7788C174.575 21.6827 174.238 23.3826 175.411 23.8413C175.47 23.8454 175.528 23.8454 175.587 23.8413C175.629 23.8691 175.674 23.8917 175.722 23.9087C176.207 23.9767 176.701 23.9114 177.152 23.7199C177.863 23.4584 178.479 22.9882 178.919 22.3708C179.059 22.1961 179.185 22.0112 179.297 21.8176V21.8446Z" fill="#82BA28"/>
</g>
<g style="mix-blend-mode:screen" opacity="0.5">
<path d="M172.916 117.334C170.717 115.594 167.762 117.159 166.022 118.683C164.9 119.65 164.073 120.912 163.634 122.326C162.541 123.675 162.055 125.699 163.634 126.751C165.212 127.803 167.519 127.102 169.03 126.171C170.758 125.058 172.193 123.544 173.213 121.759C174.035 120.437 174.319 118.414 172.916 117.334Z" fill="#82BA28"/>
</g>
<path d="M158.602 128.357C156.915 128.748 154.918 130.353 154.959 132.08C154.866 132.327 154.807 132.586 154.784 132.849C154.784 133.955 155.795 134.657 156.875 134.846C157.871 134.868 158.837 134.506 159.573 133.834C160.335 133.22 160.864 132.363 161.07 131.406C161.543 129.854 160.814 127.871 158.602 128.357Z" fill="#569132"/>
<g style="mix-blend-mode:multiply" opacity="0.3">
<path d="M244.405 74.0685C243.497 73.7223 242.527 73.5722 241.557 73.628C240.588 73.6838 239.641 73.9443 238.779 74.3923C239.157 72.2472 238.28 70.3449 234.974 70.8036C233.821 71.0408 232.695 71.398 231.615 71.8694L231.723 71.6266C232.209 70.4933 231.548 70.0481 230.671 70.1291C229.861 69.1712 228.148 69.0363 225.949 69.441C224.509 69.7213 223.172 70.3878 222.081 71.3693C220.99 72.3507 220.187 73.6101 219.757 75.0129C218.65 74.7374 217.49 74.7556 216.392 75.0655C215.294 75.3755 214.296 75.9665 213.497 76.7802C211.23 72.7329 200.883 76.0247 200.006 81.9203C199 81.8745 198.003 82.118 197.132 82.6218C196.455 81.6676 195.447 81.0003 194.304 80.7508C193.161 80.5012 191.966 80.6873 190.953 81.2727C190.805 78.7229 189.604 76.308 186.339 77.3468C184.45 77.9978 182.837 79.2701 181.764 80.9558C180.69 82.6416 180.22 84.6413 180.43 86.6287C179.037 87.3918 177.922 88.5775 177.246 90.0149C174.049 90.649 171.728 93.698 171.85 95.87C168.984 95.9726 166.175 96.7001 163.62 98.0016C161.637 99.0539 159.168 101.914 160.477 104.113C162.568 107.634 167.843 105.341 171.27 102.764C171.782 105.3 174.669 106.811 178.015 104.842C180.889 103.152 183.353 100.849 185.233 98.0961C185.78 98.482 186.426 98.7022 187.095 98.7301C189.685 98.892 192.14 97.1247 193.975 95.0471C194.596 98.0016 196.377 100.875 199.628 100.902C202.879 100.929 204.647 98.5008 205.294 95.8431C208.815 97.1922 212.984 93.1448 212.674 89.0166C215.642 89.0166 218.839 88.9221 221.214 87.2223C221.991 86.6541 222.627 85.9157 223.075 85.0637C224.894 86.0604 226.848 86.7875 228.876 87.2223C231.121 87.8506 233.505 87.7705 235.703 86.9929C238.158 85.7922 239.413 83.782 241.545 82.2036C243.46 80.7466 248.614 76.0247 244.405 74.0685Z" fill="#178137"/>
</g>
<g style="mix-blend-mode:multiply" opacity="0.3">
<path d="M249.059 86.5207C247.211 85.6034 244.769 87.1413 243.474 88.1936C242.179 89.2459 240.776 91.1887 240.991 92.9155C241.369 95.6137 245.039 95.1955 246.833 93.9813L247.089 93.7924C248.142 93.241 249.063 92.4677 249.788 91.5259C250.934 89.8935 251.218 87.654 249.059 86.5207Z" fill="#178137"/>
</g>
<g style="mix-blend-mode:multiply" opacity="0.3">
<path d="M258.219 88.0048C258.355 87.7432 258.416 87.4489 258.395 87.1548C258.395 86.2644 257.208 85.9676 256.398 86.3724C255.878 86.604 255.396 86.9133 254.968 87.2897C254.698 87.508 254.479 87.7832 254.328 88.0957C254.176 88.4082 254.095 88.7503 254.091 89.0975C254.057 89.2136 254.051 89.336 254.073 89.4549C254.096 89.5738 254.145 89.6857 254.219 89.7817C254.293 89.8776 254.388 89.9548 254.497 90.0071C254.606 90.0593 254.726 90.0851 254.847 90.0824C254.972 90.0963 255.099 90.0963 255.224 90.0824C255.959 90.0614 256.662 89.7792 257.208 89.2864C257.456 89.0605 257.678 88.807 257.869 88.5309C257.985 88.4043 258.084 88.2638 258.165 88.1127C258.165 88.1127 258.219 88.0318 258.219 88.0048Z" fill="#178137"/>
</g>
<g style="mix-blend-mode:screen" opacity="0.3">
<g style="mix-blend-mode:screen" opacity="0.3">
<path d="M149.063 222.888C139.39 215.252 129.407 207.859 119.545 200.345C114.796 196.716 109.022 194.948 103.356 192.628C95.947 189.434 89.0863 185.095 83.0245 179.771C82.8357 179.623 82.4714 179.946 82.6333 180.108C86.6779 183.865 91.0942 187.201 95.8141 190.065C102.344 193.91 110.007 195.812 116.226 200.021C127.275 207.536 137.313 215.981 148.605 223.32C148.834 223.469 149.306 223.077 149.063 222.888Z" fill="#845819"/>
</g>
<g style="mix-blend-mode:screen" opacity="0.3">
<path d="M131.66 206.16C123.458 198.631 121.42 188.837 115.336 180.243C115.147 179.973 114.675 180.351 114.796 180.567C119.262 189.215 121.677 201.087 130.905 206.834C131.282 207.09 132.024 206.483 131.66 206.16Z" fill="#845819"/>
</g>
<g style="mix-blend-mode:screen" opacity="0.3">
<path d="M163.459 193.046C163.378 192.776 162.865 193.141 162.919 193.397C167.816 212.392 172.551 231.847 174.238 251.409C174.238 252.178 175.506 251.409 175.587 250.936C176.302 231.32 168.707 211.772 163.459 193.046Z" fill="#845819"/>
</g>
<g style="mix-blend-mode:screen" opacity="0.3">
<path d="M172.686 258.518C172.059 252.595 170.699 246.772 168.639 241.182C166.75 236.191 161.678 232.089 157.738 228.379C157.563 228.231 157.199 228.582 157.333 228.744C161.705 233.56 165.914 238.376 168.005 244.366C170.231 250.68 170.703 257.965 171.148 264.522C171.917 276.408 171.513 288.104 174.238 299.855C174.319 300.246 174.953 299.855 174.899 299.599C172.416 285.784 174.13 272.32 172.686 258.518Z" fill="#845819"/>
</g>
<g style="mix-blend-mode:screen" opacity="0.3">
<path d="M179.58 194.611C179.58 194.382 179.27 194.503 179.229 194.611C178.636 197.863 177.017 200.992 176.761 204.271C176.482 208.313 176.482 212.37 176.761 216.413C176.761 216.979 177.705 216.413 177.732 216.048C177.921 212.514 177.732 208.966 177.732 205.418C177.732 201.869 179.229 198.281 179.58 194.611Z" fill="#845819"/>
</g>
<g style="mix-blend-mode:screen" opacity="0.3">
<path d="M189.348 207.09C183.331 225.506 187.999 244.15 186.272 262.903C184.72 280.549 179.688 298.533 183.574 316.22C183.654 316.611 184.275 316.22 184.235 315.95C181.226 296.806 187.243 278.89 188.903 259.935C190.481 242.046 185.381 224.602 190.697 206.848C190.98 205.998 189.55 206.51 189.348 207.09Z" fill="#845819"/>
</g>
<g style="mix-blend-mode:screen" opacity="0.3">
<path d="M188.876 326.446C187.918 321.481 187.607 316.476 187.014 311.471C187.014 311.214 186.555 311.471 186.569 311.646C186.852 316.786 186.569 321.926 187.378 327.026C188.282 332.422 190.076 337.468 191.25 342.757C191.331 343.121 191.952 342.757 191.925 342.5C191.574 337.077 189.995 331.842 188.876 326.446Z" fill="#845819"/>
</g>
<g style="mix-blend-mode:screen" opacity="0.3">
<path d="M234.745 215.563C223.588 228.056 207.588 235.718 196.242 248.117C195.985 248.373 196.39 248.535 196.606 248.333C208.613 236.595 224.465 228.636 235.123 215.725C235.352 215.414 234.907 215.347 234.745 215.563Z" fill="#845819"/>
</g>
<g style="mix-blend-mode:screen" opacity="0.3">
<path d="M261.592 225.951C249.896 229.917 237.983 232.602 226.124 236.096C225.949 236.096 225.814 236.514 226.124 236.487C237.956 234.073 251.177 232.13 261.808 226.598C262.159 226.41 262.172 225.748 261.592 225.951Z" fill="#845819"/>
</g>
<g style="mix-blend-mode:screen" opacity="0.3">
<path d="M252.351 212.703C249.1 213.323 245.848 214.052 242.543 214.524C242.327 214.524 242.057 214.969 242.381 214.969C245.68 214.927 248.961 214.473 252.149 213.62C252.607 213.472 253.093 212.554 252.351 212.703Z" fill="#845819"/>
</g>
<g style="mix-blend-mode:screen" opacity="0.3">
<path d="M161.421 279.052C158.103 274.762 152.558 272.225 147.188 270.498C146.892 270.404 146.406 270.944 146.743 271.052C152.007 272.826 156.815 275.737 160.828 279.578C161.098 279.848 161.651 279.322 161.421 279.052Z" fill="#845819"/>
</g>
</g>
<g style="mix-blend-mode:multiply">
<path d="M274.935 181.484C272.493 179.946 269.539 181.147 267.488 182.685C265.437 184.223 263.872 187.259 265.99 189.228C267.34 190.469 269.579 190.159 271.387 189.228C272.728 188.778 273.919 187.965 274.827 186.881C275.987 185.478 276.945 182.779 274.935 181.484Z" fill="#AFC90C"/>
</g>
<g style="mix-blend-mode:multiply">
<path d="M261.552 190.969C260.432 189.619 258.26 190.577 257.181 191.427C256.102 192.277 254.901 193.91 255.508 195.11C255.576 196.136 256.857 196.378 257.815 196.311C258.909 196.124 259.908 195.573 260.648 194.746C261.633 193.748 262.564 192.21 261.552 190.969Z" fill="#AFC90C"/>
</g>
<g style="mix-blend-mode:multiply">
<path d="M244.391 194.422L244.189 194.233C243.568 193.343 242.422 193.815 241.707 194.368L241.41 194.652C240.587 195.016 239.885 196.001 240.452 196.743C241.41 198.092 243.366 196.743 244.054 195.812C244.324 195.475 244.675 194.841 244.391 194.422Z" fill="#AFC90C"/>
</g>
<g style="mix-blend-mode:multiply">
<path d="M226.003 198.375C225.544 196.675 223.008 197.161 221.767 197.714C220.795 198.098 219.924 198.701 219.223 199.475C218.521 200.249 218.006 201.175 217.72 202.18C217.166 205.08 221.484 204.878 223.035 203.353L223.332 203.205C225.018 202.18 226.502 200.318 226.003 198.375Z" fill="#AFC90C"/>
</g>
<g style="mix-blend-mode:multiply">
<path d="M317.189 192.007C315.341 191.063 313.007 192.682 311.792 193.748C310.368 194.871 309.281 196.364 308.649 198.065C308.562 198.299 308.549 198.553 308.612 198.795C308.674 199.036 308.81 199.252 309 199.414C309.175 199.537 309.36 199.645 309.553 199.738C309.781 199.987 310.061 200.183 310.374 200.311C310.686 200.439 311.023 200.497 311.361 200.48C312.415 200.424 313.446 200.156 314.394 199.693C315.343 199.229 316.187 198.579 316.879 197.782C318.295 196.284 319.739 193.303 317.189 192.007Z" fill="#AFC90C"/>
</g>
<g style="mix-blend-mode:multiply">
<path d="M304.184 206.834C303.769 206.915 303.366 207.047 302.983 207.225C301.89 207.725 300.716 208.939 301.634 210.058C302.551 211.178 304.332 210.315 304.993 209.411C305.126 209.246 305.223 209.055 305.279 208.851C305.335 208.647 305.348 208.433 305.317 208.224C305.434 208.058 305.494 207.858 305.487 207.655C305.479 207.452 305.406 207.256 305.278 207.099C305.149 206.941 304.973 206.83 304.775 206.782C304.578 206.735 304.37 206.753 304.184 206.834Z" fill="#AFC90C"/>
</g>
<g style="mix-blend-mode:multiply">
<path d="M325.648 200.75C324.177 200.048 322.005 200.75 320.697 201.397C318.511 202.436 315.813 204.163 316.002 206.645C316.043 206.973 316.158 207.287 316.339 207.563C316.423 207.741 316.527 207.908 316.649 208.062C317.607 209.249 319.604 208.696 320.845 208.291C322.428 207.789 323.885 206.957 325.122 205.849C326.484 204.649 327.901 201.829 325.648 200.75Z" fill="#AFC90C"/>
</g>
<g style="mix-blend-mode:multiply">
<path d="M306.437 220.136C306.239 219.959 305.987 219.855 305.722 219.839C305.599 219.761 305.456 219.72 305.31 219.72C305.165 219.72 305.022 219.761 304.899 219.839C304.13 220.285 303.253 221.189 304.251 221.904C304.408 222.02 304.595 222.092 304.789 222.111C304.984 222.13 305.181 222.096 305.357 222.011C305.422 221.962 305.495 221.926 305.573 221.904C306.099 221.647 307.125 220.689 306.437 220.136Z" fill="#AFC90C"/>
</g>
<g style="mix-blend-mode:multiply" opacity="0.3">
<path d="M144.705 140.471C145.394 138.192 144.854 136.127 141.387 135.547C139.684 135.356 137.974 135.84 136.624 136.896C136.578 136.463 136.437 136.045 136.213 135.672C135.988 135.298 135.685 134.979 135.324 134.735C134.963 134.49 134.553 134.328 134.123 134.259C133.693 134.189 133.253 134.215 132.833 134.333C131.878 134.464 130.982 134.872 130.257 135.507C130.087 134.928 129.696 134.439 129.167 134.149C128.639 133.858 128.017 133.788 127.437 133.955C126.657 134.028 125.911 134.308 125.275 134.765C124.639 135.223 124.137 135.842 123.821 136.559C122.695 136.064 121.455 135.887 120.235 136.046C119.015 136.206 117.862 136.696 116.9 137.463C116.482 137.861 116.179 138.364 116.023 138.92C114.982 138.975 113.977 139.326 113.127 139.93C112.277 140.534 111.615 141.368 111.221 142.333C110.182 145.652 114.863 146.097 118.83 145.76C117.238 147.109 116.131 148.688 117.642 149.807C120.489 152.128 124.523 150.941 127.693 149.011C127.779 149.459 127.964 149.882 128.235 150.248C128.506 150.615 128.856 150.916 129.258 151.129C129.869 151.523 130.583 151.725 131.309 151.71C130.803 152.637 130.405 153.619 130.122 154.637C129.982 155.179 129.99 155.748 130.145 156.285C130.3 156.822 130.595 157.308 131.002 157.693C131.408 158.077 131.91 158.345 132.455 158.47C133 158.594 133.569 158.571 134.101 158.401C138.446 157.052 140.618 153.396 141.967 149.672C142.034 149.457 142.129 149.214 142.223 148.957C145.771 148.849 150.722 147.298 151.208 144.236C151.802 140.269 148.065 139.783 144.705 140.471Z" fill="#178137"/>
</g>
<path opacity="0.3" d="M305.452 182.631C303.118 181.565 300.244 182.537 297.708 184.331C297.475 183.752 297.171 183.204 296.804 182.699C295.131 180.661 291.07 181.43 289.114 182.699C289.312 181.814 289.385 180.905 289.33 180C289.128 177.599 286.106 177.059 284.149 178.22C280.885 180.149 278.632 185.559 278.874 189.943C277.546 190.144 276.294 190.694 275.249 191.538C274.203 192.382 273.401 193.489 272.925 194.746C270.227 194.868 267.812 196.095 268.055 198.942C268.203 200.871 271.036 201.532 273.95 201.532C273.249 202.453 272.836 203.561 272.763 204.716C272.717 205.25 272.871 205.781 273.195 206.208C273.519 206.634 273.99 206.925 274.517 207.023C272.142 209.465 270.996 212.851 274.031 215.118C274.549 215.467 275.155 215.664 275.779 215.688C276.404 215.712 277.022 215.561 277.566 215.253C277.341 216.018 277.424 216.841 277.797 217.547C278.169 218.253 278.803 218.785 279.562 219.03C281.303 219.624 283.866 217.519 284.689 216.332C285.403 215.374 285.996 214.331 286.456 213.229C287.874 213.176 289.227 212.621 290.274 211.664C291.899 210.057 292.829 207.878 292.865 205.593C294.915 207.063 297.047 207.212 298.99 204.649C299.56 203.887 299.948 203.003 300.121 202.067C300.294 201.131 300.248 200.168 299.988 199.252C302.916 198.591 304.723 193.964 304.265 190.807C307.192 188.837 309.256 184.358 305.452 182.631Z" fill="#AFC90C"/>
<g style="mix-blend-mode:screen" opacity="0.5">
<path d="M159.425 72.6789C159.202 71.6713 158.646 70.7682 157.846 70.1156C157.439 69.7058 156.986 69.3437 156.497 69.0364L157.968 68.2808C162.271 66.1223 166.521 62.7495 166.615 58.0546C166.723 52.8741 158.858 53.8994 154.096 57.1912C153.716 56.1372 153.058 55.2051 152.193 54.493C150.21 52.7526 146.797 54.3311 144.8 55.5993C144.764 54.1778 144.291 52.802 143.447 51.6581C142.602 50.5143 141.426 49.6577 140.078 49.2045C134.952 47.0054 131.107 52.6582 129.96 57.2991C126.817 54.5065 123.484 51.8083 119.167 55.3024C117.89 56.3662 117.077 57.8857 116.901 59.5386C116.113 59.0129 115.204 58.6962 114.26 58.6184C113.316 58.5405 112.368 58.704 111.504 59.0934C107.929 60.564 107.538 64.0716 108.617 67.1881C107.95 67.0772 107.266 67.1126 106.614 67.292C105.962 67.4714 105.357 67.7904 104.84 68.2269C103.032 69.8188 103.072 71.6131 104.233 72.9623C102.307 73.1082 100.478 73.8644 99.0116 75.1208C98.0635 75.879 97.3786 76.9168 97.054 78.0866C96.7295 79.2564 96.7819 80.4987 97.2038 81.637C98.0403 83.3504 100.158 83.9575 102.6 83.971C101.251 86.8041 104.3 88.45 107.268 88.8412C103.221 91.6339 97.9053 96.1534 100.752 100.174C102.492 102.656 106.85 101.118 109.697 99.3508C110.317 102.17 115.322 101.172 117.94 99.7015C119.142 99.039 120.268 98.2473 121.299 97.3406C122.108 99.7015 123.849 101.118 127.114 99.796C130.378 98.4739 132.011 94.1837 133.36 91.445C134.061 90.0829 134.674 88.6769 135.195 87.2358C136.8 89.3539 139.377 91.6744 141.94 90.676C142.932 90.3094 143.819 89.7061 144.525 88.9184C145.23 88.1307 145.732 87.1826 145.988 86.1565C146.988 87.0253 148.249 87.5377 149.572 87.6134C150.895 87.6891 152.206 87.3238 153.3 86.5747C154.213 86.0279 154.981 85.269 155.539 84.3622C156.857 84.1481 158.138 83.7484 159.344 83.175C162.204 81.8259 164.497 79.2356 163.62 76.2136C163.291 75.309 162.73 74.5065 161.994 73.8863C161.258 73.2661 160.372 72.8498 159.425 72.6789Z" fill="#82BA28"/>
</g>
</svg>
